Peel-Bold.ufo
<glyph name="exclam" format="1">
  <advance width="635"/>
  <unicode hex="0021"/>
  <outline>
    <contour>
      <point x="490" y="160" type="curve" smooth="yes"/>
      <point x="490" y="42"/>
      <point x="394" y="-18"/>
      <point x="309" y="-18" type="curve" smooth="yes"/>
      <point x="223" y="-18"/>
      <point x="128" y="42"/>
      <point x="128" y="160" type="curve" smooth="yes"/>
      <point x="128" y="280"/>
      <point x="221" y="344"/>
      <point x="309" y="344" type="curve" smooth="yes"/>
      <point x="396" y="344"/>
      <point x="490" y="279"/>
    </contour>
    <contour>
      <point x="374" y="586" type="curve"/>
      <point x="369" y="541"/>
      <point x="341" y="518"/>
      <point x="313" y="518" type="curve" smooth="yes"/>
      <point x="284" y="518"/>
      <point x="255" y="542"/>
      <point x="250" y="590" type="curve"/>
      <point x="154" y="1313"/>
      <point x="152" y="1346"/>
      <point x="152" y="1373" type="curve" smooth="yes"/>
      <point x="152" y="1548"/>
      <point x="235" y="1627"/>
      <point x="322" y="1627" type="curve" smooth="yes"/>
      <point x="404" y="1627"/>
      <point x="489" y="1550"/>
      <point x="489" y="1380" type="curve" smooth="yes"/>
      <point x="489" y="1352"/>
      <point x="486" y="1316"/>
    </contour>
  </outline>
</glyph>
<glyph name="quotedbl" format="1">
  <advance width="826"/>
  <unicode hex="0022"/>
  <outline>
    <contour>
      <point x="606" y="859" type="curve" smooth="yes"/>
      <point x="537" y="859"/>
      <point x="532" y="933"/>
      <point x="527" y="977" type="curve" smooth="yes"/>
      <point x="474" y="1371"/>
      <point x="473" y="1375"/>
      <point x="473" y="1383" type="curve" smooth="yes"/>
      <point x="473" y="1476"/>
      <point x="548" y="1515"/>
      <point x="609" y="1515" type="curve" smooth="yes"/>
      <point x="671" y="1515"/>
      <point x="744" y="1477"/>
      <point x="744" y="1384" type="curve" smooth="yes"/>
      <point x="744" y="1381"/>
      <point x="744" y="1367"/>
      <point x="687" y="977" type="curve" smooth="yes"/>
      <point x="681" y="932"/>
      <point x="675" y="859"/>
    </contour>
    <contour>
      <point x="249" y="859" type="curve" smooth="yes"/>
      <point x="180" y="859"/>
      <point x="175" y="933"/>
      <point x="170" y="977" type="curve" smooth="yes"/>
      <point x="117" y="1371"/>
      <point x="116" y="1375"/>
      <point x="116" y="1383" type="curve" smooth="yes"/>
      <point x="116" y="1476"/>
      <point x="191" y="1515"/>
      <point x="252" y="1515" type="curve" smooth="yes"/>
      <point x="314" y="1515"/>
      <point x="387" y="1477"/>
      <point x="387" y="1384" type="curve" smooth="yes"/>
      <point x="387" y="1381"/>
      <point x="387" y="1367"/>
      <point x="330" y="977" type="curve" smooth="yes"/>
      <point x="324" y="932"/>
      <point x="318" y="859"/>
    </contour>
  </outline>
</glyph>
<glyph name="dollar" format="1">
  <advance width="1118"/>
  <unicode hex="0024"/>
  <outline>
    <contour>
      <point x="672" y="251" type="line"/>
      <point x="712" y="278"/>
      <point x="735" y="316"/>
      <point x="735" y="376" type="curve" smooth="yes"/>
      <point x="735" y="419"/>
      <point x="731" y="447"/>
      <point x="672" y="503" type="curve"/>
    </contour>
    <contour>
      <point x="483" y="968" type="curve"/>
      <point x="483" y="1236" type="line"/>
      <point x="422" y="1210"/>
      <point x="398" y="1166"/>
      <point x="398" y="1119" type="curve" smooth="yes"/>
      <point x="398" y="1074"/>
      <point x="425" y="1019"/>
    </contour>
    <contour>
      <point x="581" y="-314" type="curve" smooth="yes"/>
      <point x="519" y="-314"/>
      <point x="483" y="-256"/>
      <point x="483" y="-196" type="curve" smooth="yes"/>
      <point x="483" y="-114" type="line"/>
      <point x="355" y="-104"/>
      <point x="230" y="-55"/>
      <point x="119" y="48" type="curve"/>
      <point x="119" y="400" type="line"/>
      <point x="289" y="260"/>
      <point x="362" y="188"/>
      <point x="483" y="170" type="curve"/>
      <point x="483" y="594" type="line"/>
      <point x="283" y="738" type="line"/>
      <point x="151" y="830"/>
      <point x="88" y="966"/>
      <point x="88" y="1098" type="curve" smooth="yes"/>
      <point x="88" y="1298"/>
      <point x="234" y="1488"/>
      <point x="483" y="1529" type="curve"/>
      <point x="483" y="1621" type="line" smooth="yes"/>
      <point x="483" y="1681"/>
      <point x="519" y="1739"/>
      <point x="581" y="1739" type="curve" smooth="yes"/>
      <point x="644" y="1739"/>
      <point x="672" y="1677"/>
      <point x="672" y="1623" type="curve" smooth="yes"/>
      <point x="672" y="1529" type="line"/>
      <point x="800" y="1510"/>
      <point x="914" y="1463"/>
      <point x="971" y="1410" type="curve"/>
      <point x="971" y="1065" type="line"/>
      <point x="868" y="1150"/>
      <point x="771" y="1220"/>
      <point x="672" y="1246" type="curve"/>
      <point x="672" y="834" type="line"/>
      <point x="778" y="759" type="line" smooth="yes"/>
      <point x="963" y="628"/>
      <point x="1028" y="499"/>
      <point x="1028" y="339" type="curve" smooth="yes"/>
      <point x="1028" y="96"/>
      <point x="862" y="-52"/>
      <point x="672" y="-99" type="curve"/>
      <point x="672" y="-198" type="line" smooth="yes"/>
      <point x="672" y="-252"/>
      <point x="644" y="-314"/>
    </contour>
  </outline>
</glyph>
<glyph name="percent" format="1">
  <advance width="2170"/>
  <unicode hex="0025"/>
  <outline>
    <contour>
      <point x="1637" y="-17" type="curve" smooth="yes"/>
      <point x="1360" y="-17"/>
      <point x="1220" y="182"/>
      <point x="1220" y="375" type="curve" smooth="yes"/>
      <point x="1220" y="570"/>
      <point x="1363" y="774"/>
      <point x="1637" y="774" type="curve" smooth="yes"/>
      <point x="1913" y="774"/>
      <point x="2053" y="570"/>
      <point x="2053" y="375" type="curve" smooth="yes"/>
      <point x="2053" y="183"/>
      <point x="1915" y="-17"/>
    </contour>
    <contour>
      <point x="1637" y="194" type="curve" smooth="yes"/>
      <point x="1750" y="194"/>
      <point x="1812" y="279"/>
      <point x="1812" y="379" type="curve" smooth="yes"/>
      <point x="1812" y="479"/>
      <point x="1752" y="563"/>
      <point x="1637" y="563" type="curve" smooth="yes"/>
      <point x="1523" y="563"/>
      <point x="1462" y="479"/>
      <point x="1462" y="379" type="curve" smooth="yes"/>
      <point x="1462" y="279"/>
      <point x="1525" y="194"/>
    </contour>
    <contour>
      <point x="447" y="0" type="line"/>
      <point x="1445" y="1516" type="line"/>
      <point x="1716" y="1516" type="line"/>
      <point x="720" y="0" type="line"/>
    </contour>
    <contour>
      <point x="534" y="747" type="curve" smooth="yes"/>
      <point x="256" y="747"/>
      <point x="117" y="946"/>
      <point x="117" y="1139" type="curve" smooth="yes"/>
      <point x="117" y="1335"/>
      <point x="260" y="1538"/>
      <point x="534" y="1538" type="curve" smooth="yes"/>
      <point x="808" y="1538"/>
      <point x="950" y="1335"/>
      <point x="950" y="1139" type="curve" smooth="yes"/>
      <point x="950" y="945"/>
      <point x="810" y="747"/>
    </contour>
    <contour>
      <point x="534" y="957" type="curve" smooth="yes"/>
      <point x="646" y="957"/>
      <point x="710" y="1042"/>
      <point x="710" y="1143" type="curve" smooth="yes"/>
      <point x="710" y="1242"/>
      <point x="648" y="1326"/>
      <point x="534" y="1326" type="curve" smooth="yes"/>
      <point x="419" y="1326"/>
      <point x="359" y="1242"/>
      <point x="359" y="1143" type="curve" smooth="yes"/>
      <point x="359" y="1042"/>
      <point x="421" y="957"/>
    </contour>
  </outline>
</glyph>
<glyph name="quotesingle" format="1">
  <advance width="560"/>
  <unicode hex="0027"/>
  <outline>
    <contour>
      <point x="279" y="859" type="curve" smooth="yes"/>
      <point x="348" y="859"/>
      <point x="354" y="932"/>
      <point x="360" y="977" type="curve" smooth="yes"/>
      <point x="417" y="1367"/>
      <point x="417" y="1381"/>
      <point x="417" y="1384" type="curve" smooth="yes"/>
      <point x="417" y="1477"/>
      <point x="344" y="1515"/>
      <point x="282" y="1515" type="curve" smooth="yes"/>
      <point x="221" y="1515"/>
      <point x="146" y="1476"/>
      <point x="146" y="1383" type="curve" smooth="yes"/>
      <point x="146" y="1375"/>
      <point x="147" y="1371"/>
      <point x="200" y="977" type="curve"/>
      <point x="205" y="933"/>
      <point x="210" y="859"/>
    </contour>
  </outline>
</glyph>
<glyph name="parenleft" format="1">
  <advance width="795"/>
  <unicode hex="0028"/>
  <outline>
    <contour>
      <point x="553" y="-126.2" type="curve"/>
      <point x="709" y="-1.2002" type="line"/>
      <point x="501" y="204.8"/>
      <point x="403" y="438.8"/>
      <point x="403" y="764.8" type="curve" smooth="yes"/>
      <point x="403" y="1085.42"/>
      <point x="501" y="1319.73"/>
      <point x="709" y="1526" type="curve"/>
      <point x="553" y="1651" type="line"/>
      <point x="373" y="1522.86"/>
      <point x="108" y="1292.6"/>
      <point x="108" y="764.8" type="curve" smooth="yes"/>
      <point x="108" y="231.8"/>
      <point x="373" y="1.7998"/>
    </contour>
  </outline>
</glyph>
<glyph name="parenright" format="1">
  <advance width="795"/>
  <unicode hex="0029"/>
  <outline>
    <contour>
      <point x="244" y="-126" type="curve"/>
      <point x="88" y="-1" type="line"/>
      <point x="296" y="205"/>
      <point x="394" y="439"/>
      <point x="394" y="765" type="curve" smooth="yes"/>
      <point x="394" y="1086"/>
      <point x="296" y="1320"/>
      <point x="88" y="1526" type="curve"/>
      <point x="244" y="1651" type="line"/>
      <point x="424" y="1523"/>
      <point x="689" y="1293"/>
      <point x="689" y="765" type="curve" smooth="yes"/>
      <point x="689" y="232"/>
      <point x="424" y="2"/>
    </contour>
  </outline>
</glyph>
<glyph name="asterisk" format="1">
  <advance width="1283"/>
  <unicode hex="002A"/>
  <outline>
    <contour>
      <point x="243" y="624" type="curve" smooth="yes"/>
      <point x="192" y="624"/>
      <point x="144" y="683"/>
      <point x="144" y="740" type="curve" smooth="yes"/>
      <point x="144" y="765"/>
      <point x="155" y="790"/>
      <point x="181" y="804" type="curve"/>
      <point x="571" y="956" type="line"/>
      <point x="181" y="1105" type="line"/>
      <point x="155" y="1119"/>
      <point x="144" y="1143"/>
      <point x="144" y="1168" type="curve" smooth="yes"/>
      <point x="144" y="1225"/>
      <point x="192" y="1284"/>
      <point x="243" y="1284" type="curve" smooth="yes"/>
      <point x="255" y="1284"/>
      <point x="267" y="1281"/>
      <point x="279" y="1274" type="curve"/>
      <point x="602" y="1034" type="line"/>
      <point x="545" y="1415" type="line"/>
      <point x="545" y="1469"/>
      <point x="594" y="1495"/>
      <point x="642" y="1495" type="curve" smooth="yes"/>
      <point x="690" y="1495"/>
      <point x="739" y="1469"/>
      <point x="739" y="1415" type="curve"/>
      <point x="682" y="1034" type="line"/>
      <point x="1005" y="1274" type="line"/>
      <point x="1017" y="1281"/>
      <point x="1029" y="1284"/>
      <point x="1041" y="1284" type="curve" smooth="yes"/>
      <point x="1092" y="1284"/>
      <point x="1140" y="1225"/>
      <point x="1140" y="1168" type="curve" smooth="yes"/>
      <point x="1140" y="1143"/>
      <point x="1129" y="1119"/>
      <point x="1103" y="1105" type="curve"/>
      <point x="713" y="956" type="line"/>
      <point x="1103" y="804" type="line"/>
      <point x="1129" y="790"/>
      <point x="1140" y="765"/>
      <point x="1140" y="740" type="curve" smooth="yes"/>
      <point x="1140" y="683"/>
      <point x="1092" y="624"/>
      <point x="1041" y="624" type="curve" smooth="yes"/>
      <point x="1029" y="624"/>
      <point x="1017" y="627"/>
      <point x="1005" y="634" type="curve"/>
      <point x="682" y="874" type="line"/>
      <point x="739" y="494" type="line"/>
      <point x="739" y="440"/>
      <point x="690" y="414"/>
      <point x="642" y="414" type="curve" smooth="yes"/>
      <point x="594" y="414"/>
      <point x="545" y="440"/>
      <point x="545" y="494" type="curve"/>
      <point x="602" y="874" type="line"/>
      <point x="279" y="634" type="line"/>
      <point x="267" y="627"/>
      <point x="255" y="624"/>
    </contour>
  </outline>
</glyph>
<glyph name="plus" format="1">
  <advance width="1188"/>
  <unicode hex="002B"/>
  <outline>
    <contour>
      <point x="471" y="325" type="line"/>
      <point x="471" y="655" type="line"/>
      <point x="141" y="655" type="line"/>
      <point x="141" y="877" type="line"/>
      <point x="471" y="877" type="line"/>
      <point x="471" y="1211" type="line"/>
      <point x="722" y="1211" type="line"/>
      <point x="722" y="877" type="line"/>
      <point x="1046" y="877" type="line"/>
      <point x="1046" y="655" type="line"/>
      <point x="722" y="655" type="line"/>
      <point x="722" y="325" type="line"/>
    </contour>
  </outline>
</glyph>
<glyph name="comma" format="1">
  <advance width="647"/>
  <unicode hex="002C"/>
  <outline>
    <contour>
      <point x="204" y="-334" type="curve"/>
      <point x="138" y="-258" type="line"/>
      <point x="212" y="-205"/>
      <point x="259" y="-144"/>
      <point x="266" y="-96" type="curve"/>
      <point x="162" y="-75"/>
      <point x="137" y="5"/>
      <point x="137" y="71" type="curve" smooth="yes"/>
      <point x="137" y="159"/>
      <point x="229" y="239"/>
      <point x="321" y="239" type="curve" smooth="yes"/>
      <point x="419" y="239"/>
      <point x="514" y="171"/>
      <point x="514" y="43" type="curve" smooth="yes"/>
      <point x="514" y="-110"/>
      <point x="405" y="-266"/>
    </contour>
  </outline>
</glyph>
<glyph name="hyphen" format="1">
  <advance width="844"/>
  <unicode hex="002D"/>
  <outline>
    <contour>
      <point x="53" y="517" type="line"/>
      <point x="53" y="756" type="line"/>
      <point x="791" y="756" type="line"/>
      <point x="791" y="517" type="line"/>
    </contour>
  </outline>
</glyph>
<glyph name="slash" format="1">
  <advance width="1096"/>
  <unicode hex="002F"/>
  <outline>
    <contour>
      <point x="-1" y="0" type="line"/>
      <point x="790" y="1516" type="line"/>
      <point x="1094" y="1516" type="line"/>
      <point x="305" y="0" type="line"/>
    </contour>
  </outline>
</glyph>
<glyph name="one" format="1">
  <advance width="843"/>
  <unicode hex="0031"/>
  <outline>
    <contour>
      <point x="386" y="0" type="line"/>
      <point x="386" y="1195" type="line"/>
      <point x="321" y="1161"/>
      <point x="258" y="1137"/>
      <point x="137" y="1100" type="curve"/>
      <point x="137" y="1373" type="line"/>
      <point x="266" y="1432"/>
      <point x="361" y="1466"/>
      <point x="438" y="1522" type="curve"/>
      <point x="669" y="1522" type="line"/>
      <point x="669" y="0" type="line"/>
    </contour>
  </outline>
</glyph>
<glyph name="two" format="1">
  <advance width="1311"/>
  <unicode hex="0032"/>
  <outline>
    <contour>
      <point x="155" y="0" type="line"/>
      <point x="155" y="217" type="line"/>
      <point x="669" y="760" type="line"/>
      <point x="787" y="881"/>
      <point x="851" y="978"/>
      <point x="851" y="1067" type="curve" smooth="yes"/>
      <point x="851" y="1207"/>
      <point x="785" y="1273"/>
      <point x="632" y="1273" type="curve" smooth="yes"/>
      <point x="516" y="1273"/>
      <point x="404" y="1238"/>
      <point x="277" y="1110" type="curve"/>
      <point x="176" y="1367" type="line"/>
      <point x="298" y="1480"/>
      <point x="442" y="1534"/>
      <point x="646" y="1534" type="curve" smooth="yes"/>
      <point x="952" y="1534"/>
      <point x="1151" y="1363"/>
      <point x="1151" y="1100" type="curve" smooth="yes"/>
      <point x="1151" y="905"/>
      <point x="1035" y="757"/>
      <point x="866" y="595" type="curve"/>
      <point x="520" y="259" type="line"/>
      <point x="1155" y="259" type="line"/>
      <point x="1155" y="0" type="line"/>
    </contour>
  </outline>
</glyph>
<glyph name="four" format="1">
  <advance width="1321"/>
  <unicode hex="0034"/>
  <outline>
    <contour>
      <point x="394" y="573" type="line"/>
      <point x="755" y="573" type="line"/>
      <point x="755" y="1122" type="line"/>
    </contour>
    <contour>
      <point x="755" y="0" type="line"/>
      <point x="755" y="325" type="line"/>
      <point x="70" y="325" type="line"/>
      <point x="70" y="539" type="line"/>
      <point x="760" y="1522" type="line"/>
      <point x="1025" y="1522" type="line"/>
      <point x="1025" y="573" type="line"/>
      <point x="1218" y="573" type="line"/>
      <point x="1194" y="325" type="line"/>
      <point x="1025" y="325" type="line"/>
      <point x="1025" y="0" type="line"/>
    </contour>
  </outline>
</glyph>
<glyph name="five" format="1">
  <advance width="1335"/>
  <unicode hex="0035"/>
  <outline>
    <contour>
      <point x="599" y="-20" type="curve" smooth="yes"/>
      <point x="412" y="-20"/>
      <point x="259" y="40"/>
      <point x="130" y="158" type="curve"/>
      <point x="239" y="393" type="line"/>
      <point x="351" y="309"/>
      <point x="454" y="246"/>
      <point x="606" y="246" type="curve" smooth="yes"/>
      <point x="803" y="246"/>
      <point x="911" y="355"/>
      <point x="911" y="510" type="curve" smooth="yes"/>
      <point x="911" y="645"/>
      <point x="830" y="738"/>
      <point x="652" y="738" type="curve" smooth="yes"/>
      <point x="565" y="738"/>
      <point x="502" y="715"/>
      <point x="429" y="636" type="curve"/>
      <point x="215" y="666" type="line"/>
      <point x="262" y="1521" type="line"/>
      <point x="1143" y="1521" type="line"/>
      <point x="1119" y="1253" type="line"/>
      <point x="501" y="1253" type="line"/>
      <point x="497" y="1160"/>
      <point x="494" y="1055"/>
      <point x="491" y="960" type="curve"/>
      <point x="556" y="987"/>
      <point x="619" y="1000"/>
      <point x="686" y="1000" type="curve" smooth="yes"/>
      <point x="1024" y="1000"/>
      <point x="1196" y="779"/>
      <point x="1196" y="511" type="curve" smooth="yes"/>
      <point x="1196" y="196"/>
      <point x="966" y="-20"/>
    </contour>
  </outline>
</glyph>
<glyph name="six" format="1">
  <advance width="1326"/>
  <unicode hex="0036"/>
  <outline>
    <contour>
      <point x="647" y="237" type="curve" smooth="yes"/>
      <point x="824" y="237"/>
      <point x="915" y="344"/>
      <point x="915" y="483" type="curve" smooth="yes"/>
      <point x="915" y="631"/>
      <point x="822" y="731"/>
      <point x="647" y="731" type="curve" smooth="yes"/>
      <point x="453" y="731"/>
      <point x="384" y="628"/>
      <point x="384" y="488" type="curve" smooth="yes"/>
      <point x="384" y="350"/>
      <point x="468" y="237"/>
    </contour>
    <contour>
      <point x="652" y="-20" type="curve" smooth="yes"/>
      <point x="302" y="-20"/>
      <point x="90" y="217"/>
      <point x="90" y="498" type="curve" smooth="yes"/>
      <point x="90" y="725"/>
      <point x="176" y="873"/>
      <point x="380" y="1113" type="curve" smooth="yes"/>
      <point x="466" y="1215"/>
      <point x="713" y="1496"/>
      <point x="735" y="1521" type="curve"/>
      <point x="1103" y="1521" type="line"/>
      <point x="609" y="981" type="line"/>
      <point x="634" y="985"/>
      <point x="659" y="987"/>
      <point x="684" y="987" type="curve" smooth="yes"/>
      <point x="966" y="987"/>
      <point x="1210" y="777"/>
      <point x="1210" y="484" type="curve" smooth="yes"/>
      <point x="1210" y="200"/>
      <point x="989" y="-20"/>
    </contour>
  </outline>
</glyph>
<glyph name="seven" format="1">
  <advance width="1183"/>
  <unicode hex="0037"/>
  <outline>
    <contour>
      <point x="270" y="0" type="line"/>
      <point x="564" y="0" type="line"/>
      <point x="1121" y="1323" type="line"/>
      <point x="1121" y="1522" type="line"/>
      <point x="145" y="1522" type="line"/>
      <point x="125" y="1263" type="line"/>
      <point x="790" y="1263" type="line"/>
    </contour>
  </outline>
</glyph>
<glyph name="nine" format="1">
  <advance width="1320"/>
  <unicode hex="0039"/>
  <outline>
    <contour>
      <point x="676" y="807" type="curve" smooth="yes"/>
      <point x="871" y="807"/>
      <point x="939" y="907"/>
      <point x="939" y="1043" type="curve" smooth="yes"/>
      <point x="939" y="1179"/>
      <point x="863" y="1278"/>
      <point x="684" y="1278" type="curve" smooth="yes"/>
      <point x="503" y="1278"/>
      <point x="407" y="1172"/>
      <point x="407" y="1038" type="curve" smooth="yes"/>
      <point x="407" y="895"/>
      <point x="497" y="807"/>
    </contour>
    <contour>
      <point x="223" y="0" type="line"/>
      <point x="719" y="562" type="line"/>
      <point x="693" y="558"/>
      <point x="668" y="555"/>
      <point x="642" y="555" type="curve" smooth="yes"/>
      <point x="363" y="555"/>
      <point x="115" y="743"/>
      <point x="115" y="1035" type="curve" smooth="yes"/>
      <point x="115" y="1318"/>
      <point x="343" y="1534"/>
      <point x="676" y="1534" type="curve" smooth="yes"/>
      <point x="1028" y="1534"/>
      <point x="1232" y="1312"/>
      <point x="1232" y="1032" type="curve" smooth="yes"/>
      <point x="1232" y="835"/>
      <point x="1162" y="696"/>
      <point x="1003" y="499" type="curve" smooth="yes"/>
      <point x="903" y="374"/>
      <point x="596" y="22"/>
      <point x="578" y="0" type="curve"/>
    </contour>
  </outline>
</glyph>
<glyph name="colon" format="1">
  <advance width="640"/>
  <unicode hex="003A"/>
  <outline>
    <contour>
      <point x="320" y="635" type="curve" smooth="yes"/>
      <point x="235" y="635"/>
      <point x="139" y="694"/>
      <point x="139" y="811" type="curve" smooth="yes"/>
      <point x="139" y="932"/>
      <point x="232" y="996"/>
      <point x="320" y="996" type="curve" smooth="yes"/>
      <point x="408" y="996"/>
      <point x="501" y="931"/>
      <point x="501" y="811" type="curve" smooth="yes"/>
      <point x="501" y="693"/>
      <point x="404" y="635"/>
    </contour>
    <contour>
      <point x="320" y="1" type="curve" smooth="yes"/>
      <point x="235" y="1"/>
      <point x="139" y="60"/>
      <point x="139" y="178" type="curve" smooth="yes"/>
      <point x="139" y="299"/>
      <point x="232" y="362"/>
      <point x="320" y="362" type="curve" smooth="yes"/>
      <point x="407" y="362"/>
      <point x="501" y="298"/>
      <point x="501" y="178" type="curve" smooth="yes"/>
      <point x="501" y="60"/>
      <point x="404" y="1"/>
    </contour>
  </outline>
</glyph>
<glyph name="semicolon" format="1">
  <advance width="641"/>
  <unicode hex="003B"/>
  <outline>
    <contour>
      <point x="311" y="634" type="curve" smooth="yes"/>
      <point x="226" y="634"/>
      <point x="130" y="694"/>
      <point x="130" y="812" type="curve" smooth="yes"/>
      <point x="130" y="932"/>
      <point x="224" y="996"/>
      <point x="311" y="996" type="curve" smooth="yes"/>
      <point x="399" y="996"/>
      <point x="492" y="930"/>
      <point x="492" y="812" type="curve" smooth="yes"/>
      <point x="492" y="695"/>
      <point x="397" y="634"/>
    </contour>
    <contour>
      <point x="204" y="-238" type="curve"/>
      <point x="138" y="-162" type="line"/>
      <point x="213" y="-109"/>
      <point x="259" y="-48"/>
      <point x="266" y="0" type="curve"/>
      <point x="162" y="21"/>
      <point x="137" y="101"/>
      <point x="137" y="167" type="curve" smooth="yes"/>
      <point x="137" y="255"/>
      <point x="229" y="335"/>
      <point x="321" y="335" type="curve" smooth="yes"/>
      <point x="419" y="335"/>
      <point x="514" y="267"/>
      <point x="514" y="139" type="curve" smooth="yes"/>
      <point x="514" y="-14"/>
      <point x="405" y="-170"/>
    </contour>
  </outline>
</glyph>
<glyph name="equal" format="1">
  <advance width="1255"/>
  <unicode hex="003D"/>
  <outline>
    <contour>
      <point x="148" y="410" type="line"/>
      <point x="148" y="619" type="line"/>
      <point x="1105" y="619" type="line"/>
      <point x="1105" y="410" type="line"/>
    </contour>
    <contour>
      <point x="148" y="787" type="line"/>
      <point x="148" y="996" type="line"/>
      <point x="1105" y="996" type="line"/>
      <point x="1105" y="787" type="line"/>
    </contour>
  </outline>
</glyph>
<glyph name="greater" format="1">
  <advance width="981"/>
  <unicode hex="003E"/>
  <outline>
    <contour>
      <point x="43" y="36" type="line"/>
      <point x="43" y="321" type="line"/>
      <point x="618" y="577" type="line"/>
      <point x="43" y="848" type="line"/>
      <point x="43" y="1125" type="line"/>
      <point x="945" y="700" type="line"/>
      <point x="945" y="465" type="line"/>
    </contour>
  </outline>
</glyph>
<glyph name="question" format="1">
  <advance width="997"/>
  <unicode hex="003F"/>
  <outline>
    <contour>
      <point x="416" y="-17" type="curve" smooth="yes"/>
      <point x="329" y="-17"/>
      <point x="235" y="43"/>
      <point x="235" y="161" type="curve" smooth="yes"/>
      <point x="235" y="279"/>
      <point x="326" y="345"/>
      <point x="416" y="345" type="curve" smooth="yes"/>
      <point x="504" y="345"/>
      <point x="596" y="278"/>
      <point x="596" y="161" type="curve" smooth="yes"/>
      <point x="596" y="43"/>
      <point x="501" y="-17"/>
    </contour>
    <contour>
      <point x="413" y="458" type="curve" smooth="yes"/>
      <point x="374" y="458"/>
      <point x="336" y="489"/>
      <point x="336" y="544" type="curve" smooth="yes"/>
      <point x="336" y="886"/>
      <point x="624" y="917"/>
      <point x="624" y="1131" type="curve" smooth="yes"/>
      <point x="624" y="1232"/>
      <point x="541" y="1277"/>
      <point x="452" y="1277" type="curve" smooth="yes"/>
      <point x="362" y="1277"/>
      <point x="264" y="1240"/>
      <point x="149" y="1135" type="curve"/>
      <point x="52" y="1390" type="line"/>
      <point x="188" y="1498"/>
      <point x="327" y="1542"/>
      <point x="467" y="1542" type="curve" smooth="yes"/>
      <point x="692" y="1542"/>
      <point x="921" y="1465"/>
      <point x="921" y="1173" type="curve" smooth="yes"/>
      <point x="921" y="825"/>
      <point x="536" y="790"/>
      <point x="488" y="531" type="curve" smooth="yes"/>
      <point x="479" y="481"/>
      <point x="446" y="458"/>
    </contour>
  </outline>
</glyph>
<glyph name="at" format="1">
  <advance width="1880"/>
  <unicode hex="0040"/>
  <outline>
    <contour>
      <point x="921" y="485" type="curve" smooth="yes"/>
      <point x="1008" y="485"/>
      <point x="1085" y="591"/>
      <point x="1094" y="626" type="curve"/>
      <point x="1097" y="1054" type="line"/>
      <point x="1077" y="1054" type="line"/>
      <point x="952" y="1046"/>
      <point x="747" y="956"/>
      <point x="747" y="694" type="curve" smooth="yes"/>
      <point x="747" y="534"/>
      <point x="811" y="485"/>
    </contour>
    <contour>
      <point x="1282" y="219" type="curve"/>
      <point x="1327" y="50" type="line"/>
      <point x="1217" y="4"/>
      <point x="1097" y="-22"/>
      <point x="979" y="-22" type="curve" smooth="yes"/>
      <point x="580" y="-22"/>
      <point x="137" y="241"/>
      <point x="137" y="760" type="curve" smooth="yes"/>
      <point x="137" y="1278"/>
      <point x="566" y="1539"/>
      <point x="983" y="1539" type="curve" smooth="yes"/>
      <point x="1382" y="1539"/>
      <point x="1827" y="1321"/>
      <point x="1827" y="803" type="curve" smooth="yes"/>
      <point x="1827" y="450"/>
      <point x="1611" y="309"/>
      <point x="1428" y="309" type="curve" smooth="yes"/>
      <point x="1314" y="309"/>
      <point x="1179" y="354"/>
      <point x="1128" y="505" type="curve"/>
      <point x="1097" y="409"/>
      <point x="1013" y="314"/>
      <point x="867" y="314" type="curve" smooth="yes"/>
      <point x="702" y="314"/>
      <point x="525" y="446"/>
      <point x="525" y="678" type="curve" smooth="yes"/>
      <point x="525" y="894"/>
      <point x="673" y="1216"/>
      <point x="1183" y="1216" type="curve" smooth="yes"/>
      <point x="1219" y="1216"/>
      <point x="1268" y="1214"/>
      <point x="1308" y="1211" type="curve"/>
      <point x="1308" y="632" type="line" smooth="yes"/>
      <point x="1308" y="518"/>
      <point x="1352" y="454"/>
      <point x="1433" y="454" type="curve" smooth="yes"/>
      <point x="1523" y="454"/>
      <point x="1595" y="533"/>
      <point x="1595" y="803" type="curve" smooth="yes"/>
      <point x="1595" y="1207"/>
      <point x="1305" y="1352"/>
      <point x="980" y="1352" type="curve" smooth="yes"/>
      <point x="657" y="1352"/>
      <point x="369" y="1138"/>
      <point x="369" y="760" type="curve" smooth="yes"/>
      <point x="369" y="326"/>
      <point x="657" y="157"/>
      <point x="981" y="157" type="curve" smooth="yes"/>
      <point x="1077" y="157"/>
      <point x="1193" y="181"/>
    </contour>
  </outline>
</glyph>
<glyph name="A" format="1">
  <advance width="1706"/>
  <unicode hex="0041"/>
  <outline>
    <contour>
      <point x="675" y="661" type="line"/>
      <point x="1024" y="661" type="line"/>
      <point x="844" y="1121" type="line"/>
    </contour>
    <contour>
      <point x="75" y="0" type="line"/>
      <point x="731" y="1516" type="line"/>
      <point x="942" y="1516" type="line"/>
      <point x="1635" y="0" type="line"/>
      <point x="1335" y="0" type="line"/>
      <point x="1122" y="436" type="line"/>
      <point x="585" y="436" type="line"/>
      <point x="383" y="0" type="line"/>
    </contour>
    <contour>
      <point x="853" y="1514" type="move" name="top"/>
    </contour>
    <contour>
      <point x="1535" y="10" type="move" name="ogonek"/>
    </contour>
  </outline>
</glyph>
<glyph name="B" format="1">
  <advance width="1377"/>
  <unicode hex="0042"/>
  <outline>
    <contour>
      <point x="483" y="255" type="line"/>
      <point x="650" y="255" type="line" smooth="yes"/>
      <point x="805" y="255"/>
      <point x="945" y="296"/>
      <point x="945" y="455" type="curve" smooth="yes"/>
      <point x="945" y="548"/>
      <point x="890" y="654"/>
      <point x="745" y="654" type="curve" smooth="yes"/>
      <point x="483" y="654" type="line"/>
    </contour>
    <contour>
      <point x="483" y="911" type="line"/>
      <point x="715" y="911" type="line" smooth="yes"/>
      <point x="827" y="911"/>
      <point x="894" y="996"/>
      <point x="894" y="1087" type="curve" smooth="yes"/>
      <point x="894" y="1168"/>
      <point x="836" y="1265"/>
      <point x="693" y="1265" type="curve" smooth="yes"/>
      <point x="483" y="1265" type="line"/>
    </contour>
    <contour>
      <point x="663" y="0" type="curve" smooth="yes"/>
      <point x="189" y="0" type="line"/>
      <point x="189" y="1516" type="line"/>
      <point x="702" y="1516" type="line" smooth="yes"/>
      <point x="1031" y="1516"/>
      <point x="1177" y="1326"/>
      <point x="1177" y="1113" type="curve" smooth="yes"/>
      <point x="1177" y="999"/>
      <point x="1096" y="871"/>
      <point x="975" y="813" type="curve"/>
      <point x="1193" y="739"/>
      <point x="1247" y="558"/>
      <point x="1247" y="449" type="curve" smooth="yes"/>
      <point x="1247" y="151"/>
      <point x="1039" y="0"/>
    </contour>
  </outline>
</glyph>
<glyph name="C" format="1">
  <advance width="1671"/>
  <unicode hex="0043"/>
  <outline>
    <contour>
      <point x="966" y="-22" type="curve" smooth="yes"/>
      <point x="465" y="-22"/>
      <point x="122" y="314"/>
      <point x="122" y="759" type="curve" smooth="yes"/>
      <point x="122" y="1239"/>
      <point x="502" y="1539"/>
      <point x="964" y="1539" type="curve" smooth="yes"/>
      <point x="1235" y="1539"/>
      <point x="1509" y="1419"/>
      <point x="1509" y="1419" type="curve"/>
      <point x="1509" y="1116" type="line"/>
      <point x="1509" y="1116"/>
      <point x="1275" y="1261"/>
      <point x="967" y="1261" type="curve" smooth="yes"/>
      <point x="659" y="1261"/>
      <point x="449" y="1060"/>
      <point x="449" y="756" type="curve" smooth="yes"/>
      <point x="449" y="419"/>
      <point x="691" y="258"/>
      <point x="977" y="258" type="curve" smooth="yes"/>
      <point x="1287" y="258"/>
      <point x="1509" y="457"/>
      <point x="1509" y="457" type="curve"/>
      <point x="1509" y="132" type="line"/>
      <point x="1509" y="132"/>
      <point x="1269" y="-22"/>
    </contour>
    <contour>
      <point x="836" y="1514" type="move" name="top"/>
    </contour>
    <contour>
      <point x="836" y="0" type="move" name="bottom"/>
    </contour>
  </outline>
</glyph>
<glyph name="D" format="1">
  <advance width="1705"/>
  <unicode hex="0044"/>
  <outline>
    <contour>
      <point x="187" y="0" type="line"/>
      <point x="187" y="1516" type="line"/>
      <point x="780" y="1516" type="line" smooth="yes"/>
      <point x="1305" y="1516"/>
      <point x="1563" y="1149"/>
      <point x="1563" y="776" type="curve" smooth="yes"/>
      <point x="1563" y="391"/>
      <point x="1288" y="0"/>
      <point x="747" y="0" type="curve" smooth="yes"/>
    </contour>
    <contour>
      <point x="481" y="279" type="line"/>
      <point x="735" y="279" type="line" smooth="yes"/>
      <point x="1081" y="279"/>
      <point x="1251" y="527"/>
      <point x="1251" y="771" type="curve" smooth="yes"/>
      <point x="1251" y="1005"/>
      <point x="1094" y="1235"/>
      <point x="784" y="1235" type="curve" smooth="yes"/>
      <point x="481" y="1235" type="line"/>
    </contour>
    <contour>
      <point x="853" y="1514" type="move" name="top"/>
    </contour>
    <contour>
      <point x="853" y="757" type="move" name="center"/>
    </contour>
  </outline>
</glyph>
<glyph name="E" format="1">
  <advance width="1320"/>
  <unicode hex="0045"/>
  <outline>
    <contour>
      <point x="189" y="0" type="line"/>
      <point x="189" y="1516" type="line"/>
      <point x="1123" y="1516" type="line"/>
      <point x="1123" y="1250" type="line"/>
      <point x="482" y="1250" type="line"/>
      <point x="482" y="916" type="line"/>
      <point x="1109" y="916" type="line"/>
      <point x="1109" y="655" type="line"/>
      <point x="482" y="655" type="line"/>
      <point x="482" y="266" type="line"/>
      <point x="1136" y="266" type="line"/>
      <point x="1136" y="0" type="line"/>
    </contour>
    <contour>
      <point x="660" y="1514" type="move" name="top"/>
    </contour>
    <contour>
      <point x="660" y="0" type="move" name="bottom"/>
    </contour>
    <contour>
      <point x="1188" y="10" type="move" name="ogonek"/>
    </contour>
  </outline>
</glyph>
<glyph name="F" format="1">
  <advance width="1146"/>
  <unicode hex="0046"/>
  <outline>
    <contour>
      <point x="168" y="0" type="line"/>
      <point x="168" y="1516" type="line"/>
      <point x="1103" y="1516" type="line"/>
      <point x="1103" y="1250" type="line"/>
      <point x="462" y="1250" type="line"/>
      <point x="462" y="898" type="line"/>
      <point x="1084" y="898" type="line"/>
      <point x="1084" y="622" type="line"/>
      <point x="462" y="622" type="line"/>
      <point x="462" y="0" type="line"/>
    </contour>
  </outline>
</glyph>
<glyph name="G" format="1">
  <advance width="1685"/>
  <unicode hex="0047"/>
  <outline>
    <contour>
      <point x="948" y="-22" type="curve" smooth="yes"/>
      <point x="392" y="-22"/>
      <point x="113" y="394"/>
      <point x="113" y="735" type="curve" smooth="yes"/>
      <point x="113" y="1206"/>
      <point x="470" y="1539"/>
      <point x="979" y="1539" type="curve" smooth="yes"/>
      <point x="1273" y="1539"/>
      <point x="1495" y="1401"/>
      <point x="1495" y="1401" type="curve"/>
      <point x="1495" y="1102" type="line"/>
      <point x="1495" y="1102"/>
      <point x="1254" y="1265"/>
      <point x="978" y="1265" type="curve" smooth="yes"/>
      <point x="659" y="1265"/>
      <point x="440" y="1086"/>
      <point x="440" y="745" type="curve" smooth="yes"/>
      <point x="440" y="477"/>
      <point x="618" y="258"/>
      <point x="944" y="258" type="curve" smooth="yes"/>
      <point x="1031" y="258"/>
      <point x="1131" y="273"/>
      <point x="1235" y="306" type="curve"/>
      <point x="1235" y="576" type="line"/>
      <point x="960" y="576" type="line"/>
      <point x="960" y="798" type="line"/>
      <point x="1530" y="798" type="line"/>
      <point x="1530" y="115" type="line"/>
      <point x="1530" y="115"/>
      <point x="1262" y="-22"/>
    </contour>
    <contour>
      <point x="843" y="1514" type="move" name="top"/>
    </contour>
    <contour>
      <point x="843" y="0" type="move" name="bottom"/>
    </contour>
  </outline>
</glyph>
<glyph name="H" format="1">
  <advance width="1708"/>
  <unicode hex="0048"/>
  <outline>
    <contour>
      <point x="187" y="0" type="line"/>
      <point x="187" y="1516" type="line"/>
      <point x="481" y="1516" type="line"/>
      <point x="481" y="898" type="line"/>
      <point x="1227" y="898" type="line"/>
      <point x="1227" y="1516" type="line"/>
      <point x="1521" y="1516" type="line"/>
      <point x="1521" y="0" type="line"/>
      <point x="1227" y="0" type="line"/>
      <point x="1227" y="645" type="line"/>
      <point x="481" y="645" type="line"/>
      <point x="481" y="0" type="line"/>
    </contour>
    <contour>
      <point x="854" y="1514" type="move" name="top"/>
    </contour>
    <contour>
      <point x="854" y="757" type="move" name="center"/>
    </contour>
  </outline>
</glyph>
<glyph name="I" format="1">
  <advance width="626"/>
  <unicode hex="0049"/>
  <outline>
    <contour>
      <point x="176" y="0" type="line"/>
      <point x="176" y="1516" type="line"/>
      <point x="470" y="1516" type="line"/>
      <point x="470" y="0" type="line"/>
    </contour>
    <contour>
      <point x="313" y="1514" type="move" name="top"/>
    </contour>
    <contour>
      <point x="563" y="10" type="move" name="ogonek"/>
    </contour>
  </outline>
</glyph>
<glyph name="J" format="1">
  <advance width="773"/>
  <unicode hex="004A"/>
  <outline>
    <contour>
      <point x="50" y="-394" type="curve"/>
      <point x="50" y="-138" type="line"/>
      <point x="281" y="-138"/>
      <point x="314" y="-102"/>
      <point x="314" y="62" type="curve" smooth="yes"/>
      <point x="314" y="1516" type="line"/>
      <point x="608" y="1516" type="line"/>
      <point x="608" y="7" type="line" smooth="yes"/>
      <point x="608" y="-271"/>
      <point x="473" y="-393"/>
    </contour>
    <contour>
      <point x="387" y="1514" type="move" name="top"/>
    </contour>
  </outline>
</glyph>
<glyph name="K" format="1">
  <advance width="1522"/>
  <unicode hex="004B"/>
  <outline>
    <contour>
      <point x="174" y="0" type="line"/>
      <point x="174" y="1516" type="line"/>
      <point x="468" y="1516" type="line"/>
      <point x="468" y="817" type="line"/>
      <point x="1041" y="1516" type="line"/>
      <point x="1342" y="1516" type="line"/>
      <point x="1342" y="1441" type="line"/>
      <point x="767" y="775" type="line"/>
      <point x="1440" y="74" type="line"/>
      <point x="1440" y="0" type="line"/>
      <point x="1106" y="0" type="line"/>
      <point x="468" y="682" type="line"/>
      <point x="468" y="0" type="line"/>
    </contour>
    <contour>
      <point x="761" y="1514" type="move" name="top"/>
    </contour>
    <contour>
      <point x="761" y="0" type="move" name="bottom"/>
    </contour>
  </outline>
</glyph>
<glyph name="L" format="1">
  <advance width="1122"/>
  <unicode hex="004C"/>
  <outline>
    <contour>
      <point x="174" y="0" type="line"/>
      <point x="174" y="1516" type="line"/>
      <point x="468" y="1516" type="line"/>
      <point x="468" y="266" type="line"/>
      <point x="1094" y="266" type="line"/>
      <point x="1094" y="0" type="line"/>
    </contour>
    <contour>
      <point x="561" y="1514" type="move" name="top"/>
    </contour>
    <contour>
      <point x="561" y="0" type="move" name="bottom"/>
    </contour>
  </outline>
</glyph>
<glyph name="M" format="1">
  <advance width="1807"/>
  <unicode hex="004D"/>
  <outline>
    <contour>
      <point x="174" y="0" type="line"/>
      <point x="467" y="0" type="line"/>
      <point x="467" y="1108" type="line"/>
      <point x="864" y="605" type="line"/>
      <point x="947" y="605" type="line"/>
      <point x="1340" y="1095" type="line"/>
      <point x="1340" y="0" type="line"/>
      <point x="1633" y="0" type="line"/>
      <point x="1633" y="1516" type="line"/>
      <point x="1380" y="1516" type="line"/>
      <point x="906" y="908" type="line"/>
      <point x="424" y="1516" type="line"/>
      <point x="174" y="1516" type="line"/>
    </contour>
  </outline>
</glyph>
<glyph name="N" format="1">
  <advance width="1793"/>
  <unicode hex="004E"/>
  <outline>
    <contour>
      <point x="183" y="0" type="line"/>
      <point x="183" y="1516" type="line"/>
      <point x="453" y="1516" type="line"/>
      <point x="1332" y="471" type="line"/>
      <point x="1332" y="1516" type="line"/>
      <point x="1606" y="1516" type="line"/>
      <point x="1606" y="0" type="line"/>
      <point x="1330" y="0" type="line"/>
      <point x="458" y="1043" type="line"/>
      <point x="458" y="0" type="line"/>
    </contour>
    <contour>
      <point x="897" y="1514" type="move" name="top"/>
    </contour>
    <contour>
      <point x="897" y="0" type="move" name="bottom"/>
    </contour>
  </outline>
</glyph>
<glyph name="O" format="1">
  <advance width="1842"/>
  <unicode hex="004F"/>
  <outline>
    <contour>
      <point x="924" y="-22" type="curve" smooth="yes"/>
      <point x="401" y="-22"/>
      <point x="142" y="367"/>
      <point x="142" y="757" type="curve" smooth="yes"/>
      <point x="142" y="1148"/>
      <point x="402" y="1539"/>
      <point x="924" y="1539" type="curve" smooth="yes"/>
      <point x="1441" y="1539"/>
      <point x="1700" y="1150"/>
      <point x="1700" y="760" type="curve" smooth="yes"/>
      <point x="1700" y="369"/>
      <point x="1440" y="-22"/>
    </contour>
    <contour>
      <point x="924" y="258" type="curve" smooth="yes"/>
      <point x="1234" y="258"/>
      <point x="1390" y="508"/>
      <point x="1390" y="759" type="curve" smooth="yes"/>
      <point x="1390" y="1010"/>
      <point x="1234" y="1261"/>
      <point x="924" y="1261" type="curve" smooth="yes"/>
      <point x="610" y="1261"/>
      <point x="452" y="1010"/>
      <point x="452" y="759" type="curve" smooth="yes"/>
      <point x="452" y="508"/>
      <point x="609" y="258"/>
    </contour>
    <contour>
      <point x="921" y="1514" type="move" name="top"/>
    </contour>
  </outline>
</glyph>
<glyph name="P" format="1">
  <advance width="1294"/>
  <unicode hex="0050"/>
  <outline>
    <contour>
      <point x="481" y="823" type="line"/>
      <point x="738" y="823"/>
      <point x="909" y="899"/>
      <point x="909" y="1064" type="curve" smooth="yes"/>
      <point x="909" y="1194"/>
      <point x="808" y="1308"/>
      <point x="481" y="1308" type="curve"/>
    </contour>
    <contour>
      <point x="187" y="0" type="line"/>
      <point x="187" y="1515" type="line"/>
      <point x="305.125" y="1527.07"/>
      <point x="419.319" y="1534.6"/>
      <point x="525.93" y="1534.6" type="curve" smooth="yes"/>
      <point x="921.712" y="1534.6"/>
      <point x="1213" y="1430.81"/>
      <point x="1213" y="1070" type="curve" smooth="yes"/>
      <point x="1213" y="769"/>
      <point x="910" y="594"/>
      <point x="481" y="594" type="curve"/>
      <point x="481" y="0" type="line"/>
    </contour>
  </outline>
</glyph>
<glyph name="Q" format="1">
  <advance width="1877"/>
  <unicode hex="0051"/>
  <outline>
    <contour>
      <point x="938" y="258" type="curve" smooth="yes"/>
      <point x="1223" y="258"/>
      <point x="1435" y="464"/>
      <point x="1435" y="764" type="curve" smooth="yes"/>
      <point x="1435" y="1065"/>
      <point x="1223" y="1258"/>
      <point x="938" y="1258" type="curve" smooth="yes"/>
      <point x="653" y="1258"/>
      <point x="443" y="1056"/>
      <point x="443" y="764" type="curve" smooth="yes"/>
      <point x="443" y="464"/>
      <point x="653" y="258"/>
    </contour>
    <contour>
      <point x="1305" y="-433" type="line"/>
      <point x="1108" y="-372"/>
      <point x="923" y="-168"/>
      <point x="855" y="-19" type="curve"/>
      <point x="439" y="21"/>
      <point x="115" y="350"/>
      <point x="115" y="753" type="curve" smooth="yes"/>
      <point x="115" y="1181"/>
      <point x="470" y="1536"/>
      <point x="938" y="1536" type="curve" smooth="yes"/>
      <point x="1402" y="1536"/>
      <point x="1762" y="1182"/>
      <point x="1762" y="754" type="curve" smooth="yes"/>
      <point x="1762" y="396"/>
      <point x="1504" y="93"/>
      <point x="1154" y="4" type="curve"/>
      <point x="1224" y="-95"/>
      <point x="1451" y="-196"/>
      <point x="1583" y="-196" type="curve" smooth="yes"/>
      <point x="1639" y="-196" type="line"/>
      <point x="1639" y="-303" type="line"/>
    </contour>
  </outline>
</glyph>
<glyph name="R" format="1">
  <advance width="1268"/>
  <unicode hex="0052"/>
  <outline>
    <contour>
      <point x="172" y="0" type="line"/>
      <point x="466" y="0" type="line"/>
      <point x="466" y="644" type="line"/>
      <point x="516" y="644" type="line"/>
      <point x="555" y="644" type="line"/>
      <point x="693" y="308"/>
      <point x="909" y="0"/>
      <point x="909" y="0" type="curve"/>
      <point x="1183" y="0" type="line"/>
      <point x="1183" y="108" type="line"/>
      <point x="1070" y="284"/>
      <point x="913" y="478"/>
      <point x="822" y="688" type="curve"/>
      <point x="1012" y="761"/>
      <point x="1102" y="918"/>
      <point x="1102" y="1095" type="curve" smooth="yes"/>
      <point x="1102" y="1395"/>
      <point x="848" y="1516"/>
      <point x="564" y="1516" type="curve" smooth="yes"/>
      <point x="172" y="1516" type="line"/>
    </contour>
    <contour>
      <point x="466" y="856" type="line"/>
      <point x="466" y="1298" type="line"/>
      <point x="543" y="1298" type="line" smooth="yes"/>
      <point x="779" y="1298"/>
      <point x="799" y="1179"/>
      <point x="799" y="1076" type="curve" smooth="yes"/>
      <point x="799" y="946"/>
      <point x="690" y="858"/>
      <point x="489" y="856" type="curve" smooth="yes"/>
    </contour>
    <contour>
      <point x="643" y="1516" type="move"/>
    </contour>
    <contour>
      <point x="658" y="0" type="move"/>
    </contour>
  </outline>
</glyph>
<glyph name="S" format="1">
  <advance width="1209"/>
  <unicode hex="0053"/>
  <outline>
    <contour>
      <point x="626" y="-14" type="curve" smooth="yes"/>
      <point x="412" y="-14"/>
      <point x="281" y="85"/>
      <point x="168" y="152" type="curve"/>
      <point x="168" y="452" type="line"/>
      <point x="197" y="452" type="line"/>
      <point x="258" y="405"/>
      <point x="375" y="340"/>
      <point x="479" y="287" type="curve"/>
      <point x="701" y="167"/>
      <point x="871" y="420"/>
      <point x="646" y="569" type="curve" smooth="yes"/>
      <point x="331" y="778" type="line" smooth="yes"/>
      <point x="200" y="865"/>
      <point x="137" y="1010"/>
      <point x="137" y="1131" type="curve" smooth="yes"/>
      <point x="137" y="1340"/>
      <point x="297" y="1537"/>
      <point x="608" y="1537" type="curve" smooth="yes"/>
      <point x="873" y="1537"/>
      <point x="1020" y="1387"/>
      <point x="1020" y="1387" type="curve"/>
      <point x="1020" y="1112" type="line"/>
      <point x="990" y="1112" type="line"/>
      <point x="921" y="1159"/>
      <point x="844" y="1209"/>
      <point x="734" y="1260" type="curve" smooth="yes"/>
      <point x="499" y="1370"/>
      <point x="360.0" y="1112.0"/>
      <point x="570" y="977" type="curve" smooth="yes"/>
      <point x="827" y="812" type="line"/>
      <point x="1013" y="687"/>
      <point x="1077" y="555"/>
      <point x="1077" y="407" type="curve" smooth="yes"/>
      <point x="1077" y="133"/>
      <point x="865" y="-14"/>
    </contour>
    <contour>
      <point x="605" y="1514" type="move" name="top"/>
    </contour>
    <contour>
      <point x="605" y="0" type="move" name="bottom"/>
    </contour>
  </outline>
</glyph>
<glyph name="T" format="1">
  <advance width="1432"/>
  <unicode hex="0054"/>
  <outline>
    <contour>
      <point x="568" y="0" type="line"/>
      <point x="568" y="1250" type="line"/>
      <point x="80" y="1250" type="line"/>
      <point x="80" y="1516" type="line"/>
      <point x="1352" y="1516" type="line"/>
      <point x="1352" y="1250" type="line"/>
      <point x="862" y="1250" type="line"/>
      <point x="862" y="0" type="line"/>
    </contour>
    <contour>
      <point x="716" y="1514" type="move" name="top"/>
    </contour>
    <contour>
      <point x="716" y="0" type="move" name="bottom"/>
    </contour>
    <contour>
      <point x="716" y="757" type="move" name="center"/>
    </contour>
  </outline>
</glyph>
<glyph name="U" format="1">
  <advance width="1653"/>
  <unicode hex="0055"/>
  <outline>
    <contour>
      <point x="828" y="-18" type="curve" smooth="yes"/>
      <point x="501" y="-18"/>
      <point x="162" y="187"/>
      <point x="162" y="597" type="curve" smooth="yes"/>
      <point x="162" y="1516" type="line"/>
      <point x="456" y="1516" type="line"/>
      <point x="456" y="614" type="line" smooth="yes"/>
      <point x="456" y="372"/>
      <point x="637" y="257"/>
      <point x="825" y="257" type="curve" smooth="yes"/>
      <point x="1013" y="257"/>
      <point x="1197" y="373"/>
      <point x="1197" y="614" type="curve" smooth="yes"/>
      <point x="1197" y="1516" type="line"/>
      <point x="1491" y="1516" type="line"/>
      <point x="1491" y="598" type="line" smooth="yes"/>
      <point x="1491" y="187"/>
      <point x="1155" y="-18"/>
    </contour>
    <contour>
      <point x="827" y="1514" type="move" name="top"/>
    </contour>
    <contour>
      <point x="1488" y="10" type="move" name="ogonek"/>
    </contour>
  </outline>
</glyph>
<glyph name="V" format="1">
  <advance width="1564"/>
  <unicode hex="0056"/>
  <outline>
    <contour>
      <point x="731" y="-13" type="line"/>
      <point x="856" y="-13" type="line"/>
      <point x="1504" y="1516" type="line"/>
      <point x="1195" y="1516" type="line"/>
      <point x="793" y="499" type="line"/>
      <point x="371" y="1516" type="line"/>
      <point x="60" y="1516" type="line"/>
    </contour>
  </outline>
</glyph>
<glyph name="W" format="1">
  <advance width="2500"/>
  <unicode hex="0057"/>
  <outline>
    <contour>
      <point x="1676" y="-25" type="line"/>
      <point x="1249" y="1070" type="line"/>
      <point x="813" y="-22" type="line"/>
      <point x="694" y="-22" type="line"/>
      <point x="100" y="1516" type="line"/>
      <point x="422" y="1516" type="line"/>
      <point x="754" y="560" type="line"/>
      <point x="1122" y="1516" type="line"/>
      <point x="1383" y="1516" type="line"/>
      <point x="1739" y="552" type="line"/>
      <point x="2089" y="1516" type="line"/>
      <point x="2400" y="1516" type="line"/>
      <point x="1803" y="-25" type="line"/>
    </contour>
    <contour>
      <point x="1250" y="1514" type="move" name="top"/>
    </contour>
  </outline>
</glyph>
<glyph name="X" format="1">
  <advance width="1833"/>
  <unicode hex="0058"/>
  <outline>
    <contour>
      <point x="59" y="0" type="line"/>
      <point x="422" y="0" type="line"/>
      <point x="915" y="599" type="line"/>
      <point x="1398" y="0" type="line"/>
      <point x="1774" y="0" type="line"/>
      <point x="1103" y="783" type="line"/>
      <point x="1742" y="1516" type="line"/>
      <point x="1355" y="1516" type="line"/>
      <point x="915" y="966" type="line"/>
      <point x="479" y="1516" type="line"/>
      <point x="93" y="1516" type="line"/>
      <point x="718" y="785" type="line"/>
    </contour>
  </outline>
</glyph>
<glyph name="Y" format="1">
  <advance width="1419"/>
  <unicode hex="0059"/>
  <outline>
    <contour>
      <point x="565" y="0" type="line"/>
      <point x="565" y="786" type="line"/>
      <point x="-19" y="1516" type="line"/>
      <point x="335" y="1516" type="line"/>
      <point x="710" y="1054" type="line"/>
      <point x="1101" y="1516" type="line"/>
      <point x="1438" y="1516" type="line"/>
      <point x="859" y="781" type="line"/>
      <point x="859" y="0" type="line"/>
    </contour>
    <contour>
      <point x="710" y="1514" type="move" name="top"/>
    </contour>
  </outline>
</glyph>
<glyph name="Z" format="1">
  <advance width="1638"/>
  <unicode hex="005A"/>
  <outline>
    <contour>
      <point x="166" y="0" type="line"/>
      <point x="152" y="66" type="line"/>
      <point x="983" y="1250" type="line"/>
      <point x="205" y="1250" type="line"/>
      <point x="205" y="1516" type="line"/>
      <point x="1436" y="1516" type="line"/>
      <point x="1461" y="1418" type="line"/>
      <point x="646" y="266" type="line"/>
      <point x="1475" y="266" type="line"/>
      <point x="1475" y="0" type="line"/>
    </contour>
    <contour>
      <point x="819" y="1514" type="move" name="top"/>
    </contour>
  </outline>
</glyph>
<glyph name="bracketleft" format="1">
  <advance width="711"/>
  <unicode hex="005B"/>
  <outline>
    <contour>
      <point x="69" y="-18" type="line"/>
      <point x="69" y="1567" type="line"/>
      <point x="748" y="1567" type="line"/>
      <point x="748" y="1280" type="line"/>
      <point x="384" y="1280" type="line"/>
      <point x="384" y="269" type="line"/>
      <point x="748" y="269" type="line"/>
      <point x="748" y="-18" type="line"/>
    </contour>
  </outline>
</glyph>
<glyph name="backslash" format="1">
  <advance width="1096"/>
  <unicode hex="005C"/>
  <outline>
    <contour>
      <point x="792" y="0" type="line"/>
      <point x="3" y="1516" type="line"/>
      <point x="307" y="1516" type="line"/>
      <point x="1098" y="0" type="line"/>
    </contour>
  </outline>
</glyph>
<glyph name="grave" format="1">
  <advance width="368"/>
  <unicode hex="0060"/>
  <outline>
    <contour>
      <point x="315" y="79" type="curve" smooth="yes"/>
      <point x="281" y="79"/>
      <point x="261" y="100"/>
      <point x="247" y="118" type="curve"/>
      <point x="38" y="427" type="line"/>
      <point x="9" y="464"/>
      <point x="-3" y="501"/>
      <point x="-3" y="537" type="curve" smooth="yes"/>
      <point x="-3" y="622"/>
      <point x="69" y="677"/>
      <point x="140" y="677" type="curve" smooth="yes"/>
      <point x="202" y="677"/>
      <point x="259" y="633"/>
      <point x="284" y="553" type="curve"/>
      <point x="369" y="178" type="line"/>
      <point x="375" y="160"/>
      <point x="374" y="148"/>
      <point x="374" y="144" type="curve" smooth="yes"/>
      <point x="374" y="130"/>
      <point x="369" y="79"/>
    </contour>
    <contour>
      <point x="185.531" y="996" type="move" name="_top"/>
    </contour>
  </outline>
</glyph>
<glyph name="a" format="1">
  <advance width="1184"/>
  <unicode hex="0061"/>
  <outline>
    <contour>
      <point x="428" y="-19" type="curve" smooth="yes"/>
      <point x="521" y="-19"/>
      <point x="637" y="34"/>
      <point x="701" y="162" type="curve"/>
      <point x="757" y="-5"/>
      <point x="920" y="-27"/>
      <point x="971" y="-27" type="curve"/>
      <point x="1084" y="193" type="line"/>
      <point x="1084" y="193"/>
      <point x="941" y="195"/>
      <point x="941" y="343" type="curve" smooth="yes"/>
      <point x="941" y="686" type="line" smooth="yes"/>
      <point x="941" y="931"/>
      <point x="733" y="1017"/>
      <point x="553" y="1017" type="curve" smooth="yes"/>
      <point x="324" y="1017"/>
      <point x="153" y="886"/>
      <point x="153" y="886" type="curve"/>
      <point x="229" y="673" type="line"/>
      <point x="229" y="673"/>
      <point x="381" y="772"/>
      <point x="538" y="772" type="curve" smooth="yes"/>
      <point x="612" y="772"/>
      <point x="661" y="729"/>
      <point x="661" y="627" type="curve" smooth="yes"/>
      <point x="661" y="592" type="line"/>
      <point x="534" y="563" type="line" smooth="yes"/>
      <point x="271" y="502"/>
      <point x="144" y="386"/>
      <point x="144" y="259" type="curve" smooth="yes"/>
      <point x="144" y="81"/>
      <point x="280" y="-19"/>
    </contour>
    <contour>
      <point x="511" y="176" type="curve" smooth="yes"/>
      <point x="464" y="176"/>
      <point x="430" y="215"/>
      <point x="430" y="261" type="curve" smooth="yes"/>
      <point x="430" y="325"/>
      <point x="485" y="386"/>
      <point x="653" y="439" type="curve" smooth="yes"/>
      <point x="655" y="439"/>
      <point x="657" y="440"/>
      <point x="660" y="441" type="curve"/>
      <point x="660" y="250" type="line"/>
      <point x="625" y="209"/>
      <point x="556" y="176"/>
    </contour>
    <contour>
      <point x="576" y="996" type="move"/>
    </contour>
    <contour>
      <point x="989" y="10" type="move"/>
    </contour>
  </outline>
</glyph>
<glyph name="b" format="1">
  <advance width="1281"/>
  <unicode hex="0062"/>
  <outline>
    <contour>
      <point x="535" y="216" type="curve" smooth="yes"/>
      <point x="761" y="216"/>
      <point x="875" y="354"/>
      <point x="875" y="503" type="curve" smooth="yes"/>
      <point x="875" y="652"/>
      <point x="776" y="772"/>
      <point x="618" y="772" type="curve" smooth="yes"/>
      <point x="530" y="772"/>
      <point x="461" y="743"/>
      <point x="461" y="743" type="curve"/>
      <point x="461" y="223" type="line"/>
      <point x="461" y="223"/>
      <point x="509" y="216"/>
    </contour>
    <contour>
      <point x="181" y="34" type="curve"/>
      <point x="181" y="1490" type="line"/>
      <point x="461" y="1490" type="line"/>
      <point x="461.0" y="1358.5"/>
      <point x="461" y="923"/>
      <point x="461" y="924" type="curve"/>
      <point x="503" y="958"/>
      <point x="628" y="1017"/>
      <point x="690" y="1017" type="curve" smooth="yes"/>
      <point x="985" y="1017"/>
      <point x="1157" y="762"/>
      <point x="1157" y="514" type="curve" smooth="yes"/>
      <point x="1157" y="155"/>
      <point x="905" y="-16"/>
      <point x="546" y="-16" type="curve" smooth="yes"/>
      <point x="433" y="-16"/>
      <point x="310" y="1"/>
    </contour>
  </outline>
</glyph>
<glyph name="c" format="1">
  <advance width="1129"/>
  <unicode hex="0063"/>
  <outline>
    <contour>
      <point x="679" y="-19" type="curve" smooth="yes"/>
      <point x="340" y="-19"/>
      <point x="117" y="198"/>
      <point x="117" y="500" type="curve" smooth="yes"/>
      <point x="117" y="809"/>
      <point x="353" y="1017"/>
      <point x="672" y="1017" type="curve" smooth="yes"/>
      <point x="889" y="1017"/>
      <point x="978" y="938"/>
      <point x="978" y="938" type="curve"/>
      <point x="978" y="685" type="line"/>
      <point x="957" y="685" type="line"/>
      <point x="915" y="714"/>
      <point x="816" y="771"/>
      <point x="697" y="771" type="curve" smooth="yes"/>
      <point x="515" y="771"/>
      <point x="398" y="658"/>
      <point x="398" y="501" type="curve" smooth="yes"/>
      <point x="398" y="345"/>
      <point x="508" y="224"/>
      <point x="701" y="224" type="curve" smooth="yes"/>
      <point x="831" y="224"/>
      <point x="898" y="272"/>
      <point x="966" y="313" type="curve"/>
      <point x="978" y="313" type="line"/>
      <point x="978" y="67" type="line"/>
      <point x="978" y="67"/>
      <point x="857" y="-19"/>
    </contour>
    <contour>
      <point x="565" y="996" type="move" name="top"/>
    </contour>
    <contour>
      <point x="565" y="0" type="move" name="bottom"/>
    </contour>
  </outline>
</glyph>
<glyph name="d" format="1">
  <advance width="1259"/>
  <unicode hex="0064"/>
  <outline>
    <contour>
      <point x="739" y="216" type="curve" smooth="yes"/>
      <point x="765" y="216"/>
      <point x="813" y="223"/>
      <point x="813" y="223" type="curve"/>
      <point x="813" y="743" type="line"/>
      <point x="813" y="743"/>
      <point x="744" y="772"/>
      <point x="656" y="772" type="curve" smooth="yes"/>
      <point x="498" y="772"/>
      <point x="399" y="652"/>
      <point x="399" y="503" type="curve" smooth="yes"/>
      <point x="399" y="354"/>
      <point x="513" y="216"/>
    </contour>
    <contour>
      <point x="1093" y="34" type="line"/>
      <point x="964" y="1"/>
      <point x="841" y="-16"/>
      <point x="728" y="-16" type="curve" smooth="yes"/>
      <point x="369" y="-16"/>
      <point x="117" y="155"/>
      <point x="117" y="514" type="curve" smooth="yes"/>
      <point x="117" y="762"/>
      <point x="289" y="1017"/>
      <point x="624" y="1017" type="curve" smooth="yes"/>
      <point x="686" y="1017"/>
      <point x="771" y="998"/>
      <point x="813" y="964" type="curve"/>
      <point x="813" y="1490" type="line"/>
      <point x="1093" y="1490" type="line"/>
    </contour>
    <contour>
      <point x="630" y="498" type="move" name="center"/>
    </contour>
  </outline>
</glyph>
<glyph name="e" format="1">
  <advance width="1205"/>
  <unicode hex="0065"/>
  <outline>
    <contour>
      <point x="1035" y="15" type="line"/>
      <point x="943" y="-13"/>
      <point x="827.7" y="-17.7055"/>
      <point x="722.874" y="-17.7055" type="curve" smooth="yes"/>
      <point x="422.936" y="-17.7055"/>
      <point x="124" y="118.601"/>
      <point x="124" y="514" type="curve" smooth="yes"/>
      <point x="124" y="783"/>
      <point x="310" y="1016"/>
      <point x="606" y="1016" type="curve" smooth="yes"/>
      <point x="921" y="1016"/>
      <point x="1051" y="797"/>
      <point x="1051" y="519" type="curve" smooth="yes"/>
      <point x="1051" y="415" type="line"/>
      <point x="405" y="415" type="line"/>
      <point x="453.073" y="248.391"/>
      <point x="611.562" y="199.331"/>
      <point x="789.873" y="199.331" type="curve" smooth="yes"/>
      <point x="870.321" y="199.331"/>
      <point x="955" y="204"/>
      <point x="1035" y="218" type="curve"/>
    </contour>
    <contour>
      <point x="411" y="594" type="curve"/>
      <point x="810" y="594" type="line"/>
      <point x="799" y="743"/>
      <point x="722" y="813"/>
      <point x="619" y="813" type="curve" smooth="yes"/>
      <point x="519" y="813"/>
      <point x="435" y="765"/>
    </contour>
    <contour>
      <point x="603" y="996" type="move" name="top"/>
    </contour>
    <contour>
      <point x="603" y="0" type="move" name="bottom"/>
    </contour>
    <contour>
      <point x="1084" y="10" type="move" name="ogonek"/>
    </contour>
  </outline>
</glyph>
<glyph name="f" format="1">
  <advance width="864"/>
  <unicode hex="0066"/>
  <outline>
    <contour>
      <point x="220" y="0" type="line"/>
      <point x="220" y="788" type="line"/>
      <point x="86" y="788" type="line"/>
      <point x="86" y="996" type="line"/>
      <point x="216" y="996" type="line"/>
      <point x="216" y="1021" type="line" smooth="yes"/>
      <point x="216" y="1255"/>
      <point x="315" y="1433"/>
      <point x="553" y="1433" type="curve" smooth="yes"/>
      <point x="609" y="1433"/>
      <point x="689" y="1423"/>
      <point x="790" y="1390" type="curve"/>
      <point x="790" y="1176" type="line"/>
      <point x="737" y="1192"/>
      <point x="685" y="1202"/>
      <point x="640" y="1202" type="curve" smooth="yes"/>
      <point x="559" y="1202"/>
      <point x="501" y="1167"/>
      <point x="501" y="1060" type="curve" smooth="yes"/>
      <point x="501" y="996" type="line"/>
      <point x="679" y="996" type="line"/>
      <point x="679" y="789" type="line"/>
      <point x="501" y="789" type="line"/>
      <point x="501" y="0" type="line"/>
    </contour>
  </outline>
</glyph>
<glyph name="g" format="1">
  <advance width="1271"/>
  <unicode hex="0067"/>
  <outline>
    <contour>
      <point x="651" y="772" type="curve" smooth="yes"/>
      <point x="705" y="772"/>
      <point x="751" y="763"/>
      <point x="816" y="741" type="curve"/>
      <point x="816" y="211" type="line"/>
      <point x="783" y="203"/>
      <point x="749" y="198"/>
      <point x="715" y="198" type="curve" smooth="yes"/>
      <point x="555" y="198"/>
      <point x="401" y="295"/>
      <point x="401" y="508" type="curve" smooth="yes"/>
      <point x="401" y="662"/>
      <point x="511" y="772"/>
    </contour>
    <contour>
      <point x="1097.0" y="93.0" type="curve"/>
      <point x="1096.0" y="93.0" type="line"/>
      <point x="1096.0" y="996.0" type="line"/>
      <point x="852.0" y="996.0" type="line"/>
      <point x="832.0" y="899.0" type="line"/>
      <point x="800.0" y="947.0"/>
      <point x="702.0" y="1016.0"/>
      <point x="586.0" y="1016.0" type="curve" smooth="yes"/>
      <point x="274.0" y="1016.0"/>
      <point x="113.0" y="757.0"/>
      <point x="113.0" y="516.0" type="curve" smooth="yes"/>
      <point x="113.0" y="155.0"/>
      <point x="399.0" y="-13.0"/>
      <point x="661.0" y="-13.0" type="curve" smooth="yes"/>
      <point x="728.0" y="-13.0"/>
      <point x="794.0" y="-2.0"/>
      <point x="853.0" y="19.0" type="curve"/>
      <point x="853.0" y="-155.0"/>
      <point x="713.0" y="-229.0"/>
      <point x="524.0" y="-229.0" type="curve" smooth="yes"/>
      <point x="465.0" y="-229.0"/>
      <point x="387" y="-216"/>
      <point x="324" y="-193" type="curve"/>
      <point x="300" y="-193" type="line"/>
      <point x="300.0" y="-417.0" type="line"/>
      <point x="379.0" y="-441.0"/>
      <point x="474.0" y="-457.0"/>
      <point x="569.0" y="-457.0" type="curve" smooth="yes"/>
      <point x="829.0" y="-457.0"/>
      <point x="1097.0" y="-335.0"/>
    </contour>
  </outline>
</glyph>
<glyph name="h" format="1">
  <advance width="1350"/>
  <unicode hex="0068"/>
  <outline>
    <contour>
      <point x="181" y="1" type="line"/>
      <point x="181" y="1490" type="line"/>
      <point x="461" y="1490" type="line"/>
      <point x="461" y="881" type="line"/>
      <point x="566" y="971"/>
      <point x="675" y="1016"/>
      <point x="791" y="1016" type="curve" smooth="yes"/>
      <point x="985" y="1016"/>
      <point x="1151" y="890"/>
      <point x="1151" y="641" type="curve" smooth="yes"/>
      <point x="1151" y="1" type="line"/>
      <point x="871" y="1" type="line"/>
      <point x="871" y="540" type="line" smooth="yes"/>
      <point x="871" y="691"/>
      <point x="806" y="779"/>
      <point x="666" y="779" type="curve" smooth="yes"/>
      <point x="612" y="779"/>
      <point x="530" y="766"/>
      <point x="461" y="738" type="curve"/>
      <point x="461" y="1" type="line"/>
    </contour>
    <contour>
      <point x="675" y="996" type="move" name="top"/>
    </contour>
    <contour>
      <point x="675" y="498" type="move" name="center"/>
    </contour>
  </outline>
</glyph>
<glyph name="i" format="1">
  <advance width="624"/>
  <unicode hex="0069"/>
  <outline>
    <contour>
      <point x="312" y="1115" type="curve" smooth="yes"/>
      <point x="201" y="1115"/>
      <point x="136" y="1199"/>
      <point x="136" y="1286" type="curve" smooth="yes"/>
      <point x="136" y="1370"/>
      <point x="200" y="1458"/>
      <point x="312" y="1458" type="curve" smooth="yes"/>
      <point x="425" y="1458"/>
      <point x="487" y="1369"/>
      <point x="487" y="1286" type="curve" smooth="yes"/>
      <point x="487" y="1200"/>
      <point x="423" y="1115"/>
    </contour>
    <contour>
      <point x="172" y="0" type="line"/>
      <point x="172" y="996" type="line"/>
      <point x="452" y="996" type="line"/>
      <point x="452" y="0" type="line"/>
    </contour>
  </outline>
</glyph>
<glyph name="j" format="1">
  <advance width="688"/>
  <unicode hex="006A"/>
  <outline>
    <contour>
      <point x="380" y="1113" type="curve" smooth="yes"/>
      <point x="271" y="1113"/>
      <point x="203" y="1196"/>
      <point x="203" y="1285" type="curve" smooth="yes"/>
      <point x="203" y="1372"/>
      <point x="272" y="1455"/>
      <point x="380" y="1455" type="curve" smooth="yes"/>
      <point x="491" y="1455"/>
      <point x="556" y="1371"/>
      <point x="556" y="1285" type="curve" smooth="yes"/>
      <point x="556" y="1198"/>
      <point x="491" y="1113"/>
    </contour>
    <contour>
      <point x="99" y="-384" type="curve"/>
      <point x="38" y="-161" type="line"/>
      <point x="187" y="-131"/>
      <point x="239" y="-65"/>
      <point x="239" y="55" type="curve" smooth="yes"/>
      <point x="239" y="996" type="line"/>
      <point x="522" y="996" type="line"/>
      <point x="522" y="87" type="line" smooth="yes"/>
      <point x="522" y="-100"/>
      <point x="490" y="-350"/>
    </contour>
  </outline>
</glyph>
<glyph name="k" format="1">
  <advance width="1273"/>
  <unicode hex="006B"/>
  <outline>
    <contour>
      <point x="776" y="575" type="curve"/>
      <point x="924" y="337" type="line" smooth="yes"/>
      <point x="1026" y="189"/>
      <point x="1125" y="190"/>
      <point x="1187" y="190" type="curve"/>
      <point x="1187" y="-16" type="line"/>
      <point x="1067" y="-16" type="line" smooth="yes"/>
      <point x="993" y="-16"/>
      <point x="854" y="-2"/>
      <point x="746" y="145" type="curve" smooth="yes"/>
      <point x="533" y="457" type="line"/>
      <point x="461" y="398" type="line"/>
      <point x="461" y="0" type="line"/>
      <point x="181" y="0" type="line"/>
      <point x="181" y="1491" type="line"/>
      <point x="461" y="1491" type="line"/>
      <point x="461" y="636" type="line"/>
      <point x="461" y="636"/>
      <point x="863" y="988"/>
      <point x="1047" y="1018" type="curve" smooth="yes"/>
      <point x="1047" y="1018"/>
      <point x="1177" y="816"/>
      <point x="1177" y="816" type="curve"/>
      <point x="1065" y="776"/>
      <point x="776" y="575"/>
    </contour>
    <contour>
      <point x="616" y="0" type="move" name="bottom"/>
    </contour>
  </outline>
</glyph>
<glyph name="l" format="1">
  <advance width="774"/>
  <unicode hex="006C"/>
  <outline>
    <contour>
      <point x="181" y="279" type="curve" smooth="yes"/>
      <point x="181" y="1490" type="line"/>
      <point x="461" y="1490" type="line"/>
      <point x="461" y="322" type="line"/>
      <point x="462" y="322" type="line"/>
      <point x="462" y="248.393"/>
      <point x="507.975" y="193.702"/>
      <point x="609.339" y="193.702" type="curve" smooth="yes"/>
      <point x="635.228" y="193.702"/>
      <point x="688.729" y="197.27"/>
      <point x="722" y="205" type="curve"/>
      <point x="722" y="1" type="line"/>
      <point x="678" y="-11"/>
      <point x="616" y="-18"/>
      <point x="562" y="-18" type="curve" smooth="yes"/>
      <point x="379" y="-18"/>
      <point x="181" y="59.5908"/>
    </contour>
    <contour>
      <point x="387" y="996" type="move" name="top"/>
    </contour>
    <contour>
      <point x="387" y="0" type="move" name="bottom"/>
    </contour>
    <contour>
      <point x="754" y="996" type="move" name="topright"/>
    </contour>
  </outline>
</glyph>
<glyph name="m" format="1">
  <advance width="2040"/>
  <unicode hex="006D"/>
  <outline>
    <contour>
      <point x="181" y="1" type="line"/>
      <point x="181" y="996" type="line"/>
      <point x="425" y="996" type="line"/>
      <point x="445" y="881" type="line"/>
      <point x="550" y="971"/>
      <point x="675" y="1016"/>
      <point x="791" y="1016" type="curve" smooth="yes"/>
      <point x="919.155" y="1016"/>
      <point x="1035.09" y="961.016"/>
      <point x="1099.03" y="851.913" type="curve"/>
      <point x="1110.55" y="862.153"/>
      <point x="1122.54" y="871.834"/>
      <point x="1135" y="881" type="curve"/>
      <point x="1240" y="971"/>
      <point x="1365" y="1016"/>
      <point x="1481" y="1016" type="curve" smooth="yes"/>
      <point x="1675" y="1016"/>
      <point x="1841" y="890"/>
      <point x="1841" y="641" type="curve" smooth="yes"/>
      <point x="1841" y="1" type="line"/>
      <point x="1561" y="1" type="line"/>
      <point x="1561" y="540" type="line" smooth="yes"/>
      <point x="1561" y="691"/>
      <point x="1496" y="779"/>
      <point x="1356" y="779" type="curve" smooth="yes"/>
      <point x="1307.92" y="779"/>
      <point x="1213.08" y="753.635"/>
      <point x="1144.86" y="720.548" type="curve"/>
      <point x="1148.89" y="695.599"/>
      <point x="1151" y="669.082"/>
      <point x="1151" y="641" type="curve" smooth="yes"/>
      <point x="1151" y="1" type="line"/>
      <point x="871" y="1" type="line"/>
      <point x="871" y="540" type="line" smooth="yes"/>
      <point x="871" y="691"/>
      <point x="806" y="779"/>
      <point x="666" y="779" type="curve" smooth="yes"/>
      <point x="612" y="779"/>
      <point x="530" y="766"/>
      <point x="461" y="738" type="curve"/>
      <point x="461" y="1" type="line"/>
    </contour>
  </outline>
</glyph>
<glyph name="o" format="1">
  <advance width="1328"/>
  <unicode hex="006F"/>
  <outline>
    <contour>
      <point x="405" y="498" type="curve" smooth="yes"/>
      <point x="405" y="299"/>
      <point x="534" y="210"/>
      <point x="663" y="210" type="curve" smooth="yes"/>
      <point x="793" y="210"/>
      <point x="923" y="300"/>
      <point x="923" y="498" type="curve" smooth="yes"/>
      <point x="923" y="700"/>
      <point x="793" y="791"/>
      <point x="664" y="791" type="curve" smooth="yes"/>
      <point x="534" y="791"/>
      <point x="405" y="700"/>
    </contour>
    <contour>
      <point x="663" y="-19" type="curve" smooth="yes"/>
      <point x="354" y="-19"/>
      <point x="124" y="188"/>
      <point x="124" y="500" type="curve" smooth="yes"/>
      <point x="124" y="810"/>
      <point x="354" y="1017"/>
      <point x="663" y="1017" type="curve" smooth="yes"/>
      <point x="971" y="1017"/>
      <point x="1204" y="811"/>
      <point x="1204" y="500" type="curve" smooth="yes"/>
      <point x="1204" y="188"/>
      <point x="972" y="-19"/>
    </contour>
    <contour>
      <point x="664" y="996" type="move" name="top"/>
    </contour>
  </outline>
</glyph>
<glyph name="p" format="1">
  <advance width="1281"/>
  <unicode hex="0070"/>
  <outline>
    <contour>
      <point x="535" y="785" type="curve" smooth="yes"/>
      <point x="509" y="785"/>
      <point x="461" y="778"/>
      <point x="461" y="778" type="curve"/>
      <point x="461" y="258" type="line"/>
      <point x="461" y="258"/>
      <point x="530" y="229"/>
      <point x="618" y="229" type="curve" smooth="yes"/>
      <point x="776" y="229"/>
      <point x="875" y="349"/>
      <point x="875" y="498" type="curve" smooth="yes"/>
      <point x="875" y="647"/>
      <point x="761" y="785"/>
    </contour>
    <contour>
      <point x="181" y="967" type="line"/>
      <point x="310" y="1000"/>
      <point x="433" y="1017"/>
      <point x="546" y="1017" type="curve" smooth="yes"/>
      <point x="905" y="1017"/>
      <point x="1157" y="846"/>
      <point x="1157" y="487" type="curve" smooth="yes"/>
      <point x="1157" y="239"/>
      <point x="985" y="-16"/>
      <point x="650" y="-16" type="curve" smooth="yes"/>
      <point x="588" y="-16"/>
      <point x="503" y="3"/>
      <point x="461" y="37" type="curve"/>
      <point x="461" y="-489" type="line"/>
      <point x="181" y="-489" type="line"/>
    </contour>
    <contour>
      <point x="644" y="503" type="move" name="center"/>
    </contour>
  </outline>
</glyph>
<glyph name="q" format="1">
  <advance width="1253"/>
  <unicode hex="0071"/>
  <outline>
    <contour>
      <point x="672" y="215" type="curve" smooth="yes"/>
      <point x="736" y="215"/>
      <point x="778" y="229"/>
      <point x="798" y="238" type="curve"/>
      <point x="798" y="715" type="line"/>
      <point x="737" y="747"/>
      <point x="678" y="760"/>
      <point x="627" y="760" type="curve" smooth="yes"/>
      <point x="508" y="760"/>
      <point x="395" y="671"/>
      <point x="395" y="506" type="curve" smooth="yes"/>
      <point x="395" y="374"/>
      <point x="503" y="215"/>
    </contour>
    <contour>
      <point x="798" y="-405" type="line"/>
      <point x="798" y="14" type="line"/>
      <point x="761" y="-14"/>
      <point x="694" y="-21"/>
      <point x="638" y="-21" type="curve" smooth="yes"/>
      <point x="276" y="-21"/>
      <point x="101" y="255"/>
      <point x="101" y="516" type="curve" smooth="yes"/>
      <point x="101" y="802"/>
      <point x="305" y="1015"/>
      <point x="566" y="1015" type="curve" smooth="yes"/>
      <point x="637" y="1015"/>
      <point x="740" y="974"/>
      <point x="798" y="910" type="curve"/>
      <point x="798" y="996" type="line"/>
      <point x="1078" y="996" type="line"/>
      <point x="1078" y="-405" type="line"/>
    </contour>
  </outline>
</glyph>
<glyph name="r" format="1">
  <advance width="975"/>
  <unicode hex="0072"/>
  <outline>
    <contour>
      <point x="181" y="0" type="line"/>
      <point x="181" y="996" type="line"/>
      <point x="434" y="996" type="line"/>
      <point x="458" y="709" type="line"/>
      <point x="493" y="877"/>
      <point x="589" y="1015"/>
      <point x="685" y="1015" type="curve" smooth="yes"/>
      <point x="753" y="1015"/>
      <point x="849" y="998"/>
      <point x="962" y="872" type="curve"/>
      <point x="822" y="646" type="line"/>
      <point x="765" y="719"/>
      <point x="715" y="745"/>
      <point x="670" y="745" type="curve" smooth="yes"/>
      <point x="544" y="745"/>
      <point x="459" y="549"/>
      <point x="459" y="468" type="curve" smooth="yes"/>
      <point x="459" y="0" type="line"/>
    </contour>
    <contour>
      <point x="488" y="996" type="move" name="top"/>
    </contour>
    <contour>
      <point x="488" y="0" type="move" name="bottom"/>
    </contour>
  </outline>
</glyph>
<glyph name="s" format="1">
  <advance width="965"/>
  <unicode hex="0073"/>
  <outline>
    <contour>
      <point x="480" y="360"/>
      <point x="423" y="390"/>
      <point x="381" y="415" type="curve" smooth="yes"/>
      <point x="241" y="498"/>
      <point x="157" y="567"/>
      <point x="157" y="727" type="curve" smooth="yes"/>
      <point x="157" y="940"/>
      <point x="334" y="1015"/>
      <point x="480" y="1015" type="curve" smooth="yes"/>
      <point x="584" y="1015"/>
      <point x="707" y="955"/>
      <point x="762" y="923" type="curve"/>
      <point x="762" y="697" type="line"/>
      <point x="762" y="697"/>
      <point x="621" y="768"/>
      <point x="548" y="796" type="curve" smooth="yes"/>
      <point x="529" y="803"/>
      <point x="512" y="806"/>
      <point x="497" y="806" type="curve" smooth="yes"/>
      <point x="447" y="806"/>
      <point x="417" y="773"/>
      <point x="417" y="734" type="curve" smooth="yes"/>
      <point x="417" y="703"/>
      <point x="435" y="669"/>
      <point x="477" y="646" type="curve" smooth="yes"/>
      <point x="509" y="628"/>
      <point x="549" y="604"/>
      <point x="604" y="572" type="curve" smooth="yes"/>
      <point x="737" y="495"/>
      <point x="819" y="417"/>
      <point x="819" y="282" type="curve" smooth="yes"/>
      <point x="819" y="276"/>
      <point x="819" y="271"/>
      <point x="819" y="265" type="curve" smooth="yes"/>
      <point x="811" y="74"/>
      <point x="702" y="-16"/>
      <point x="498" y="-20" type="curve" smooth="yes"/>
      <point x="495" y="-20"/>
      <point x="492" y="-20"/>
      <point x="490" y="-20" type="curve" smooth="yes"/>
      <point x="396" y="-20"/>
      <point x="253" y="28"/>
      <point x="177" y="97" type="curve"/>
      <point x="177" y="327" type="line"/>
      <point x="187" y="327" type="line"/>
      <point x="273" y="264"/>
      <point x="396" y="214"/>
      <point x="420" y="205" type="curve" smooth="yes"/>
      <point x="442" y="197"/>
      <point x="462" y="193"/>
      <point x="479" y="193" type="curve" smooth="yes"/>
      <point x="533" y="193"/>
      <point x="563" y="227"/>
      <point x="563" y="265" type="curve" smooth="yes"/>
      <point x="563" y="294"/>
      <point x="546" y="325"/>
      <point x="508" y="345" type="curve" smooth="yes"/>
    </contour>
  </outline>
</glyph>
<glyph name="t" format="1">
  <advance width="973"/>
  <unicode hex="0074"/>
  <outline>
    <contour>
      <point x="867" y="2" type="line"/>
      <point x="824" y="-7"/>
      <point x="744" y="-18"/>
      <point x="655" y="-18" type="curve" smooth="yes"/>
      <point x="463" y="-18"/>
      <point x="228" y="33"/>
      <point x="228" y="267" type="curve" smooth="yes"/>
      <point x="228" y="770" type="line"/>
      <point x="128" y="770" type="line" smooth="yes"/>
      <point x="93" y="770"/>
      <point x="71" y="785"/>
      <point x="71" y="810" type="curve" smooth="yes"/>
      <point x="71" y="823"/>
      <point x="77" y="838"/>
      <point x="91" y="856" type="curve"/>
      <point x="457" y="1238" type="line"/>
      <point x="508" y="1238" type="line"/>
      <point x="508" y="996" type="line"/>
      <point x="806" y="996" type="line"/>
      <point x="847" y="770" type="line"/>
      <point x="508" y="770" type="line"/>
      <point x="508" y="309" type="line" smooth="yes"/>
      <point x="508" y="236"/>
      <point x="602" y="214"/>
      <point x="705" y="214" type="curve" smooth="yes"/>
      <point x="761" y="214"/>
      <point x="819" y="221"/>
      <point x="867" y="229" type="curve"/>
    </contour>
    <contour>
      <point x="487" y="498" type="move" name="center"/>
    </contour>
    <contour>
      <point x="487" y="0" type="move" name="bottom"/>
    </contour>
  </outline>
</glyph>
<glyph name="u" format="1">
  <advance width="1350"/>
  <unicode hex="0075"/>
  <outline>
    <contour>
      <point x="1151" y="996" type="line"/>
      <point x="1151" y="1" type="line"/>
      <point x="907" y="1" type="line"/>
      <point x="887" y="116" type="line"/>
      <point x="782" y="26"/>
      <point x="657" y="-19"/>
      <point x="541" y="-19" type="curve" smooth="yes"/>
      <point x="347" y="-19"/>
      <point x="181" y="107"/>
      <point x="181" y="356" type="curve" smooth="yes"/>
      <point x="181" y="996" type="line"/>
      <point x="461" y="996" type="line"/>
      <point x="461" y="457" type="line" smooth="yes"/>
      <point x="461" y="306"/>
      <point x="526" y="218"/>
      <point x="666" y="218" type="curve" smooth="yes"/>
      <point x="720" y="218"/>
      <point x="802" y="231"/>
      <point x="871" y="259" type="curve"/>
      <point x="871" y="996" type="line"/>
    </contour>
    <contour>
      <point x="675" y="996" type="move" name="top"/>
    </contour>
    <contour>
      <point x="1215" y="10" type="move" name="ogonek"/>
    </contour>
  </outline>
</glyph>
<glyph name="v" format="1">
  <advance width="1227"/>
  <unicode hex="0076"/>
  <outline>
    <contour>
      <point x="564" y="0" type="line"/>
      <point x="68" y="996" type="line"/>
      <point x="381" y="996" type="line"/>
      <point x="614" y="426" type="line"/>
      <point x="844" y="996" type="line"/>
      <point x="1160" y="996" type="line"/>
      <point x="660" y="0" type="line"/>
    </contour>
  </outline>
</glyph>
<glyph name="w" format="1">
  <advance width="1663"/>
  <unicode hex="0077"/>
  <outline>
    <contour>
      <point x="472" y="0" type="line"/>
      <point x="115" y="996" type="line"/>
      <point x="425" y="996" type="line"/>
      <point x="548" y="524" type="line"/>
      <point x="712" y="996" type="line"/>
      <point x="949" y="996" type="line"/>
      <point x="1121" y="512" type="line"/>
      <point x="1254" y="996" type="line"/>
      <point x="1548" y="996" type="line"/>
      <point x="1191" y="0" type="line"/>
      <point x="1081" y="0" type="line"/>
      <point x="836" y="665" type="line"/>
      <point x="587" y="0" type="line"/>
    </contour>
    <contour>
      <point x="832" y="996" type="move" name="top"/>
    </contour>
  </outline>
</glyph>
<glyph name="y" format="1">
  <advance width="1274"/>
  <unicode hex="0079"/>
  <outline>
    <contour>
      <point x="279" y="-268" type="line"/>
      <point x="532" y="268" type="line"/>
      <point x="116" y="997" type="line"/>
      <point x="451" y="997" type="line"/>
      <point x="689" y="529" type="line"/>
      <point x="922" y="997" type="line"/>
      <point x="1228" y="997" type="line"/>
      <point x="587" y="-268" type="line"/>
    </contour>
    <contour>
      <point x="637" y="996" type="move" name="top"/>
    </contour>
  </outline>
</glyph>
<glyph name="z" format="1">
  <advance width="1215"/>
  <unicode hex="007A"/>
  <outline>
    <contour>
      <point x="192" y="0" type="line"/>
      <point x="165" y="82" type="line"/>
      <point x="631" y="755" type="line"/>
      <point x="208" y="755" type="line"/>
      <point x="208" y="996" type="line"/>
      <point x="1002" y="996" type="line"/>
      <point x="1042" y="905" type="line"/>
      <point x="575" y="242" type="line"/>
      <point x="1022" y="242" type="line"/>
      <point x="1022" y="0" type="line"/>
    </contour>
    <contour>
      <point x="608" y="996" type="move" name="top"/>
    </contour>
  </outline>
</glyph>
<glyph name="braceright" format="1">
  <advance width="740"/>
  <unicode hex="007D"/>
  <outline>
    <contour>
      <point x="40" y="-266" type="curve"/>
      <point x="40" y="3" type="line"/>
      <point x="175" y="3"/>
      <point x="235" y="32"/>
      <point x="235" y="154" type="curve" smooth="yes"/>
      <point x="235" y="519" type="line" smooth="yes"/>
      <point x="235" y="609"/>
      <point x="286" y="681"/>
      <point x="359" y="730" type="curve"/>
      <point x="285" y="781"/>
      <point x="235" y="852"/>
      <point x="235" y="942" type="curve" smooth="yes"/>
      <point x="235" y="1306" type="line" smooth="yes"/>
      <point x="235" y="1437"/>
      <point x="176" y="1468"/>
      <point x="40" y="1468" type="curve"/>
      <point x="40" y="1737" type="line"/>
      <point x="290" y="1737"/>
      <point x="515" y="1639"/>
      <point x="514" y="1374" type="curve"/>
      <point x="514" y="1016" type="line" smooth="yes"/>
      <point x="514" y="897"/>
      <point x="571" y="869"/>
      <point x="659" y="869" type="curve" smooth="yes"/>
      <point x="710" y="869" type="line"/>
      <point x="710" y="602" type="line"/>
      <point x="659" y="602" type="line" smooth="yes"/>
      <point x="569" y="602"/>
      <point x="514" y="573"/>
      <point x="514" y="451" type="curve" smooth="yes"/>
      <point x="514" y="78" type="line" smooth="yes"/>
      <point x="514" y="-170"/>
      <point x="291" y="-266"/>
    </contour>
  </outline>
</glyph>
<glyph name="asciitilde" format="1">
  <advance width="624"/>
  <unicode hex="007E"/>
  <outline>
    <contour>
      <point x="410" y="193" type="curve" smooth="yes"/>
      <point x="306" y="193"/>
      <point x="193" y="268"/>
      <point x="117" y="268" type="curve" smooth="yes"/>
      <point x="91" y="268"/>
      <point x="102" y="229"/>
      <point x="28" y="229" type="curve" smooth="yes"/>
      <point x="-2" y="229"/>
      <point x="-34" y="255"/>
      <point x="-34" y="291" type="curve" smooth="yes"/>
      <point x="-34" y="318"/>
      <point x="-25" y="325"/>
      <point x="-22" y="330" type="curve" smooth="yes"/>
      <point x="25" y="407"/>
      <point x="90" y="478"/>
      <point x="195" y="478" type="curve" smooth="yes"/>
      <point x="320" y="478"/>
      <point x="462" y="402"/>
      <point x="506" y="402" type="curve" smooth="yes"/>
      <point x="533" y="402"/>
      <point x="524" y="442"/>
      <point x="598" y="442" type="curve" smooth="yes"/>
      <point x="636" y="442"/>
      <point x="658" y="407"/>
      <point x="658" y="380" type="curve" smooth="yes"/>
      <point x="658" y="347"/>
      <point x="654" y="351"/>
      <point x="645" y="338" type="curve" smooth="yes"/>
      <point x="592" y="260"/>
      <point x="519" y="193"/>
    </contour>
  </outline>
</glyph>
<glyph name="sterling" format="1">
  <advance width="1383"/>
  <unicode hex="00A3"/>
  <outline>
    <contour>
      <point x="239" y="0" type="line"/>
      <point x="239" y="597" type="line"/>
      <point x="94" y="597" type="line"/>
      <point x="94" y="827" type="line"/>
      <point x="243" y="827" type="line"/>
      <point x="274" y="1235"/>
      <point x="497" y="1541"/>
      <point x="833" y="1541" type="curve" smooth="yes"/>
      <point x="943" y="1541"/>
      <point x="1062" y="1503"/>
      <point x="1205" y="1410" type="curve"/>
      <point x="1205" y="1114" type="line"/>
      <point x="1022" y="1243"/>
      <point x="931" y="1274"/>
      <point x="858" y="1274" type="curve" smooth="yes"/>
      <point x="693" y="1274"/>
      <point x="562" y="1130"/>
      <point x="538" y="827" type="curve"/>
      <point x="860" y="827" type="line"/>
      <point x="860" y="597" type="line"/>
      <point x="534" y="597" type="line"/>
      <point x="534" y="266" type="line"/>
      <point x="1210" y="266" type="line"/>
      <point x="1210" y="0" type="line"/>
    </contour>
  </outline>
</glyph>
<glyph name="dieresis" format="1">
  <advance width="801"/>
  <unicode hex="00A8"/>
  <outline>
    <contour>
      <point x="182" y="63" type="curve" smooth="yes"/>
      <point x="245" y="63"/>
      <point x="319" y="107"/>
      <point x="319" y="195" type="curve" smooth="yes"/>
      <point x="319" y="285"/>
      <point x="248" y="333"/>
      <point x="182" y="333" type="curve" smooth="yes"/>
      <point x="115" y="333"/>
      <point x="46" y="284"/>
      <point x="46" y="195" type="curve" smooth="yes"/>
      <point x="46" y="108"/>
      <point x="118" y="63"/>
    </contour>
    <contour>
      <point x="618" y="63" type="curve" smooth="yes"/>
      <point x="683" y="63"/>
      <point x="754" y="107"/>
      <point x="754" y="195" type="curve" smooth="yes"/>
      <point x="754" y="284"/>
      <point x="685" y="333"/>
      <point x="618" y="333" type="curve" smooth="yes"/>
      <point x="552" y="333"/>
      <point x="481" y="285"/>
      <point x="481" y="195" type="curve" smooth="yes"/>
      <point x="481" y="107"/>
      <point x="555" y="63"/>
    </contour>
    <contour>
      <point x="401" y="996" type="move"/>
    </contour>
  </outline>
</glyph>
<glyph name="logicalnot" format="1">
  <advance width="1188"/>
  <unicode hex="00AC"/>
  <outline>
    <contour>
      <point x="1046" y="305" type="line"/>
      <point x="789" y="305" type="line"/>
      <point x="789" y="655" type="line"/>
      <point x="141" y="655" type="line"/>
      <point x="141" y="912" type="line"/>
      <point x="1046" y="912" type="line"/>
    </contour>
  </outline>
</glyph>
<glyph name="registered" format="1">
  <advance width="1814"/>
  <unicode hex="00AE"/>
  <outline>
    <contour>
      <point x="905" y="0" type="curve" smooth="yes"/>
      <point x="524" y="0"/>
      <point x="133" y="244"/>
      <point x="133" y="724" type="curve" smooth="yes"/>
      <point x="133" y="1205"/>
      <point x="527" y="1446"/>
      <point x="908" y="1446" type="curve" smooth="yes"/>
      <point x="1289" y="1446"/>
      <point x="1681" y="1205"/>
      <point x="1681" y="724" type="curve" smooth="yes"/>
      <point x="1681" y="245"/>
      <point x="1287" y="0"/>
    </contour>
    <contour>
      <point x="909" y="140" type="curve" smooth="yes"/>
      <point x="1216" y="140"/>
      <point x="1524" y="330"/>
      <point x="1524" y="723" type="curve" smooth="yes"/>
      <point x="1524" y="1113"/>
      <point x="1215" y="1304"/>
      <point x="908" y="1304" type="curve" smooth="yes"/>
      <point x="601" y="1304"/>
      <point x="293" y="1115"/>
      <point x="293" y="723" type="curve" smooth="yes"/>
      <point x="293" y="332"/>
      <point x="601" y="140"/>
    </contour>
    <contour>
      <point x="807" y="780" type="line"/>
      <point x="839" y="780" type="line" smooth="yes"/>
      <point x="974" y="780"/>
      <point x="1067" y="789"/>
      <point x="1067" y="930" type="curve" smooth="yes"/>
      <point x="1067" y="1006"/>
      <point x="1055" y="1079"/>
      <point x="888" y="1079" type="curve" smooth="yes"/>
      <point x="807" y="1079" type="line"/>
    </contour>
    <contour>
      <point x="657" y="258" type="line"/>
      <point x="657" y="1192" type="line"/>
      <point x="903" y="1192" type="line" smooth="yes"/>
      <point x="1078" y="1192"/>
      <point x="1227" y="1113"/>
      <point x="1227" y="937" type="curve" smooth="yes"/>
      <point x="1227" y="822"/>
      <point x="1160" y="732"/>
      <point x="1029" y="692" type="curve"/>
      <point x="1088" y="546"/>
      <point x="1180" y="410"/>
      <point x="1256" y="289" type="curve"/>
      <point x="1255" y="258" type="line"/>
      <point x="1102" y="258" type="line"/>
      <point x="1045" y="348"/>
      <point x="950" y="533"/>
      <point x="890" y="677" type="curve"/>
      <point x="889" y="677" type="line" smooth="yes"/>
      <point x="877" y="677"/>
      <point x="864" y="676"/>
      <point x="852" y="676" type="curve" smooth="yes"/>
      <point x="808" y="676" type="line"/>
      <point x="808" y="258" type="line"/>
    </contour>
  </outline>
</glyph>
<glyph name="macron" format="1">
  <advance width="721"/>
  <unicode hex="00AF"/>
  <outline>
    <contour>
      <point x="53" y="0" type="line"/>
      <point x="53" y="153" type="line"/>
      <point x="668" y="153" type="line"/>
      <point x="668" y="0" type="line"/>
    </contour>
    <contour>
      <point x="360.5" y="996" type="move" name="_top"/>
    </contour>
  </outline>
</glyph>
<glyph name="plusminus" format="1">
  <advance width="1188"/>
  <unicode hex="00B1"/>
  <outline>
    <contour>
      <point x="471" y="325" type="line"/>
      <point x="471" y="655" type="line"/>
      <point x="141" y="655" type="line"/>
      <point x="141" y="877" type="line"/>
      <point x="471" y="877" type="line"/>
      <point x="471" y="1211" type="line"/>
      <point x="722" y="1211" type="line"/>
      <point x="722" y="877" type="line"/>
      <point x="1046" y="877" type="line"/>
      <point x="1046" y="655" type="line"/>
      <point x="722" y="655" type="line"/>
      <point x="722" y="325" type="line"/>
    </contour>
    <contour>
      <point x="141" y="0" type="line"/>
      <point x="141" y="209" type="line"/>
      <point x="1046" y="209" type="line"/>
      <point x="1046" y="0" type="line"/>
    </contour>
  </outline>
</glyph>
<glyph name="acute" format="1">
  <advance width="370"/>
  <unicode hex="00B4"/>
  <outline>
    <contour>
      <point x="34" y="113" type="curve" smooth="yes"/>
      <point x="10" y="114"/>
      <point x="-14" y="131"/>
      <point x="-12" y="164" type="curve" smooth="yes"/>
      <point x="-12" y="170"/>
      <point x="-10" y="176"/>
      <point x="-8" y="184" type="curve" smooth="yes"/>
      <point x="99" y="543" type="line" smooth="yes"/>
      <point x="123" y="625"/>
      <point x="188" y="662"/>
      <point x="251" y="659" type="curve" smooth="yes"/>
      <point x="320" y="656"/>
      <point x="391" y="600"/>
      <point x="387" y="515" type="curve" smooth="yes"/>
      <point x="385" y="476"/>
      <point x="370" y="435"/>
      <point x="337" y="401" type="curve" smooth="yes"/>
      <point x="76" y="129" type="line" smooth="yes"/>
      <point x="66" y="118"/>
      <point x="50" y="112"/>
    </contour>
    <contour>
      <point x="187.522" y="996" type="move" name="_top"/>
    </contour>
  </outline>
</glyph>
<glyph name="paragraph" format="1">
  <advance width="1243"/>
  <unicode hex="00B6"/>
  <outline>
    <contour>
      <point x="604" y="0" type="line"/>
      <point x="739" y="0" type="line"/>
      <point x="739" y="1386" type="line"/>
      <point x="833" y="1386" type="line"/>
      <point x="833" y="1516" type="line"/>
      <point x="502" y="1516" type="line" smooth="yes"/>
      <point x="292" y="1516"/>
      <point x="39" y="1481"/>
      <point x="39" y="1188" type="curve" smooth="yes"/>
      <point x="39" y="979"/>
      <point x="172" y="844"/>
      <point x="383" y="844" type="curve"/>
      <point x="383" y="0" type="line"/>
      <point x="518" y="0" type="line"/>
      <point x="518" y="1386" type="line"/>
      <point x="604" y="1386" type="line"/>
    </contour>
  </outline>
</glyph>
<glyph name="cedilla" format="1">
  <advance width="538"/>
  <unicode hex="00B8"/>
  <outline>
    <contour>
      <point x="520" y="349" type="curve" smooth="yes"/>
      <point x="520" y="192"/>
      <point x="373" y="147"/>
      <point x="262" y="147" type="curve" smooth="yes"/>
      <point x="176" y="147"/>
      <point x="95" y="168"/>
      <point x="38" y="202" type="curve"/>
      <point x="13" y="219"/>
      <point x="3" y="234"/>
      <point x="3" y="247" type="curve" smooth="yes"/>
      <point x="3" y="276"/>
      <point x="52" y="293"/>
      <point x="64" y="293" type="curve" smooth="yes"/>
      <point x="90" y="293"/>
      <point x="148" y="267"/>
      <point x="204" y="267" type="curve" smooth="yes"/>
      <point x="261" y="267"/>
      <point x="286" y="299"/>
      <point x="286" y="313" type="curve" smooth="yes"/>
      <point x="286" y="370"/>
      <point x="195" y="377"/>
      <point x="99" y="377" type="curve"/>
      <point x="202" y="687" type="line"/>
      <point x="385" y="687" type="line"/>
      <point x="326" y="504" type="line"/>
      <point x="460" y="504"/>
      <point x="520" y="452"/>
    </contour>
    <contour>
      <point x="261.5" y="0" type="move" name="_bottom"/>
    </contour>
  </outline>
</glyph>
<glyph name="guillemotright" format="1">
  <advance width="768"/>
  <unicode hex="00BB"/>
  <outline>
    <contour>
      <point x="40" y="-31" type="line"/>
      <point x="725" y="405" type="line"/>
      <point x="725" y="616" type="line"/>
      <point x="40" y="1032" type="line"/>
      <point x="40" y="758" type="line"/>
      <point x="446" y="507" type="line"/>
      <point x="40" y="305" type="line"/>
    </contour>
  </outline>
</glyph>
<glyph name="Aacute" format="1">
  <advance width="1527"/>
  <unicode hex="00C1"/>
  <outline>
    <contour>
      <point x="-16" y="0" type="line"/>
      <point x="292" y="0" type="line"/>
      <point x="494" y="436" type="line"/>
      <point x="1031" y="436" type="line"/>
      <point x="1244" y="0" type="line"/>
      <point x="1478" y="0" type="line"/>
      <point x="1530" y="34" type="line"/>
      <point x="851" y="1515" type="line"/>
      <point x="640" y="1515" type="line"/>
    </contour>
    <contour>
      <point x="628" y="1566" type="curve" smooth="yes"/>
      <point x="664" y="1566"/>
      <point x="678" y="1585"/>
      <point x="694" y="1609" type="curve"/>
      <point x="914" y="1898" type="line" smooth="yes"/>
      <point x="942" y="1936"/>
      <point x="958" y="1975"/>
      <point x="958" y="2014" type="curve" smooth="yes"/>
      <point x="958" y="2100"/>
      <point x="884" y="2152"/>
      <point x="816" y="2152" type="curve" smooth="yes"/>
      <point x="752" y="2152"/>
      <point x="692" y="2110"/>
      <point x="669" y="2028" type="curve"/>
      <point x="572" y="1666" type="line" smooth="yes"/>
      <point x="568" y="1653"/>
      <point x="567" y="1643"/>
      <point x="567" y="1632" type="curve" smooth="yes"/>
      <point x="567" y="1617"/>
      <point x="578" y="1566"/>
    </contour>
    <contour>
      <point x="606" y="713" type="line"/>
      <point x="753" y="1121" type="line"/>
      <point x="913" y="713" type="line"/>
    </contour>
  </outline>
</glyph>
<glyph name="AE" format="1">
  <advance width="1642"/>
  <unicode hex="00C6"/>
  <outline>
    <contour>
      <point x="633" y="713" type="line"/>
      <point x="760" y="713" type="line"/>
      <point x="760" y="1013" type="line"/>
    </contour>
    <contour>
      <point x="-31" y="0" type="line"/>
      <point x="698" y="1516" type="line"/>
      <point x="1594" y="1516" type="line"/>
      <point x="1594" y="1237" type="line"/>
      <point x="1053" y="1237" type="line"/>
      <point x="1053" y="907" type="line"/>
      <point x="1580" y="907" type="line"/>
      <point x="1580" y="631" type="line"/>
      <point x="1053" y="631" type="line"/>
      <point x="1053" y="279" type="line"/>
      <point x="1606" y="279" type="line"/>
      <point x="1606" y="0" type="line"/>
      <point x="760" y="0" type="line"/>
      <point x="760" y="436" type="line"/>
      <point x="517" y="436" type="line"/>
      <point x="297" y="0" type="line"/>
    </contour>
    <contour>
      <point x="821" y="1514" type="move" name="top"/>
    </contour>
  </outline>
</glyph>
<glyph name="Egrave" format="1">
  <advance width="1060"/>
  <unicode hex="00C8"/>
  <outline>
    <contour>
      <point x="77" y="0" type="line"/>
      <point x="1024" y="0" type="line"/>
      <point x="1024" y="278" type="line"/>
      <point x="370" y="278" type="line"/>
      <point x="370" y="631" type="line"/>
      <point x="997" y="631" type="line"/>
      <point x="997" y="907" type="line"/>
      <point x="370" y="907" type="line"/>
      <point x="370" y="1237" type="line"/>
      <point x="1011" y="1237" type="line"/>
      <point x="1011" y="1515" type="line"/>
      <point x="77" y="1515" type="line"/>
    </contour>
    <contour>
      <point x="673" y="1566" type="curve" smooth="yes"/>
      <point x="721" y="1566"/>
      <point x="733" y="1616"/>
      <point x="733" y="1631" type="curve" smooth="yes"/>
      <point x="733" y="1637"/>
      <point x="733" y="1646"/>
      <point x="729" y="1663" type="curve" smooth="yes"/>
      <point x="643" y="2040" type="line"/>
      <point x="619" y="2120"/>
      <point x="561" y="2164"/>
      <point x="498" y="2164" type="curve" smooth="yes"/>
      <point x="427" y="2164"/>
      <point x="355" y="2109"/>
      <point x="355" y="2024" type="curve" smooth="yes"/>
      <point x="355" y="1986"/>
      <point x="370" y="1948"/>
      <point x="396" y="1913" type="curve"/>
      <point x="603" y="1610" type="line" smooth="yes"/>
      <point x="621" y="1584"/>
      <point x="642" y="1566"/>
    </contour>
  </outline>
</glyph>
<glyph name="Eth" format="1">
  <advance width="1564"/>
  <unicode hex="00D0"/>
  <outline>
    <contour>
      <point x="77" y="0" type="line"/>
      <point x="77" y="657" type="line"/>
      <point x="-12" y="657" type="line"/>
      <point x="-12" y="912" type="line"/>
      <point x="77" y="912" type="line"/>
      <point x="77" y="1520" type="line"/>
      <point x="745" y="1520" type="line" smooth="yes"/>
      <point x="1241" y="1520"/>
      <point x="1512" y="1203"/>
      <point x="1512" y="767" type="curve" smooth="yes"/>
      <point x="1512" y="362"/>
      <point x="1225" y="0"/>
      <point x="710" y="0" type="curve" smooth="yes"/>
    </contour>
    <contour>
      <point x="392" y="283" type="line"/>
      <point x="667" y="283" type="line" smooth="yes"/>
      <point x="989" y="283"/>
      <point x="1197" y="439"/>
      <point x="1197" y="763" type="curve" smooth="yes"/>
      <point x="1197" y="1132"/>
      <point x="992" y="1235"/>
      <point x="716" y="1235" type="curve" smooth="yes"/>
      <point x="392" y="1235" type="line"/>
      <point x="392" y="912" type="line"/>
      <point x="604" y="912" type="line"/>
      <point x="604" y="657" type="line"/>
      <point x="392" y="657" type="line"/>
    </contour>
  </outline>
</glyph>
<glyph name="Odieresis" format="1">
  <advance width="1757"/>
  <unicode hex="00D6"/>
  <outline>
    <contour>
      <point x="687" y="1565" type="curve" smooth="yes"/>
      <point x="765" y="1565"/>
      <point x="855" y="1619"/>
      <point x="855" y="1730" type="curve" smooth="yes"/>
      <point x="855" y="1837"/>
      <point x="770" y="1901"/>
      <point x="687" y="1901" type="curve" smooth="yes"/>
      <point x="603" y="1901"/>
      <point x="520" y="1836"/>
      <point x="520" y="1730" type="curve" smooth="yes"/>
      <point x="520" y="1621"/>
      <point x="607" y="1565"/>
    </contour>
    <contour>
      <point x="877" y="263" type="curve" smooth="yes"/>
      <point x="592" y="263"/>
      <point x="356" y="484"/>
      <point x="356" y="758" type="curve" smooth="yes"/>
      <point x="356" y="1032"/>
      <point x="592" y="1253"/>
      <point x="877" y="1253" type="curve" smooth="yes"/>
      <point x="1162" y="1253"/>
      <point x="1400" y="1032"/>
      <point x="1400" y="758" type="curve" smooth="yes"/>
      <point x="1400" y="484"/>
      <point x="1162" y="263"/>
    </contour>
    <contour>
      <point x="877" y="-20" type="curve" smooth="yes"/>
      <point x="1329" y="-20"/>
      <point x="1701" y="330"/>
      <point x="1701" y="758" type="curve" smooth="yes"/>
      <point x="1701" y="1187"/>
      <point x="1329" y="1535"/>
      <point x="877" y="1535" type="curve" smooth="yes"/>
      <point x="424" y="1535"/>
      <point x="54" y="1187"/>
      <point x="54" y="758" type="curve" smooth="yes"/>
      <point x="54" y="330"/>
      <point x="423" y="-20"/>
    </contour>
    <contour>
      <point x="1063" y="1565" type="curve" smooth="yes"/>
      <point x="1141" y="1565"/>
      <point x="1231" y="1619"/>
      <point x="1231" y="1730" type="curve" smooth="yes"/>
      <point x="1231" y="1837"/>
      <point x="1146" y="1901"/>
      <point x="1063" y="1901" type="curve" smooth="yes"/>
      <point x="982" y="1901"/>
      <point x="895" y="1838"/>
      <point x="895" y="1730" type="curve" smooth="yes"/>
      <point x="895" y="1620"/>
      <point x="985" y="1565"/>
    </contour>
  </outline>
</glyph>
<glyph name="multiply" format="1">
  <advance width="1069"/>
  <unicode hex="00D7"/>
  <outline>
    <contour>
      <point x="776" y="384" type="line"/>
      <point x="960" y="566" type="line"/>
      <point x="717" y="817" type="line"/>
      <point x="964" y="1029" type="line"/>
      <point x="780" y="1176" type="line"/>
      <point x="533" y="965" type="line"/>
      <point x="286" y="1175" type="line"/>
      <point x="102" y="1027" type="line"/>
      <point x="348" y="816" type="line"/>
      <point x="101" y="569" type="line"/>
      <point x="285" y="385" type="line"/>
      <point x="531" y="631" type="line"/>
    </contour>
  </outline>
</glyph>
<glyph name="Ucircumflex" format="1">
  <advance width="1486"/>
  <unicode hex="00DB"/>
  <outline>
    <contour>
      <point x="443" y="1565" type="curve" smooth="yes"/>
      <point x="411" y="1565"/>
      <point x="388" y="1588"/>
      <point x="388" y="1620" type="curve" smooth="yes"/>
      <point x="388" y="1662"/>
      <point x="401" y="1655"/>
      <point x="401" y="1655" type="curve"/>
      <point x="665" y="2061" type="line"/>
      <point x="683" y="2079"/>
      <point x="707" y="2096"/>
      <point x="742" y="2096" type="curve" smooth="yes"/>
      <point x="773" y="2096"/>
      <point x="807" y="2084"/>
      <point x="824" y="2057" type="curve" smooth="yes"/>
      <point x="1096" y="1637" type="line"/>
      <point x="1096" y="1620" type="line"/>
      <point x="1096" y="1615" type="line" smooth="yes"/>
      <point x="1096" y="1601"/>
      <point x="1092" y="1565"/>
      <point x="1043" y="1565" type="curve" smooth="yes"/>
      <point x="1036" y="1565"/>
      <point x="1016" y="1571"/>
      <point x="1009" y="1576" type="curve" smooth="yes"/>
      <point x="742" y="1761" type="line"/>
      <point x="476" y="1576" type="line"/>
      <point x="476" y="1576"/>
      <point x="457" y="1565"/>
    </contour>
    <contour>
      <point x="744" y="-19" type="curve" smooth="yes"/>
      <point x="417" y="-19"/>
      <point x="78" y="187"/>
      <point x="78" y="596" type="curve" smooth="yes"/>
      <point x="78" y="1515" type="line"/>
      <point x="372" y="1515" type="line"/>
      <point x="372" y="613" type="line" smooth="yes"/>
      <point x="372" y="371"/>
      <point x="553" y="256"/>
      <point x="741" y="256" type="curve" smooth="yes"/>
      <point x="929" y="256"/>
      <point x="1113" y="372"/>
      <point x="1113" y="613" type="curve" smooth="yes"/>
      <point x="1113" y="1515" type="line"/>
      <point x="1407" y="1515" type="line"/>
      <point x="1407" y="597" type="line" smooth="yes"/>
      <point x="1407" y="187"/>
      <point x="1071" y="-19"/>
    </contour>
  </outline>
</glyph>
<glyph name="adieresis" format="1">
  <advance width="958"/>
  <unicode hex="00E4"/>
  <outline>
    <contour>
      <point x="831" y="-27" type="line"/>
      <point x="792" y="-9" type="line" smooth="yes"/>
      <point x="742" y="14"/>
      <point x="677" y="53"/>
      <point x="630" y="104" type="curve"/>
      <point x="548" y="14"/>
      <point x="435" y="-20"/>
      <point x="354" y="-20" type="curve" smooth="yes"/>
      <point x="191" y="-20"/>
      <point x="35" y="54"/>
      <point x="35" y="246" type="curve" smooth="yes"/>
      <point x="35" y="374"/>
      <point x="162" y="489"/>
      <point x="425" y="551" type="curve"/>
      <point x="552" y="579" type="line"/>
      <point x="552" y="595" type="line" smooth="yes"/>
      <point x="552" y="697"/>
      <point x="507" y="741"/>
      <point x="433" y="741" type="curve" smooth="yes"/>
      <point x="337" y="741"/>
      <point x="252" y="696"/>
      <point x="190" y="637" type="curve" smooth="yes"/>
      <point x="132" y="581" type="line"/>
      <point x="46" y="841" type="line"/>
      <point x="67" y="863" type="line" smooth="yes"/>
      <point x="117" y="916"/>
      <point x="269" y="1007"/>
      <point x="429" y="1007" type="curve" smooth="yes"/>
      <point x="609" y="1007"/>
      <point x="831" y="919"/>
      <point x="831" y="675" type="curve" smooth="yes"/>
      <point x="831" y="304" type="line" smooth="yes"/>
      <point x="831" y="231"/>
      <point x="843" y="246"/>
      <point x="934" y="203" type="curve" smooth="yes"/>
      <point x="986" y="179" type="line"/>
    </contour>
    <contour>
      <point x="380" y="169" type="curve" smooth="yes"/>
      <point x="427" y="169"/>
      <point x="503" y="196"/>
      <point x="551" y="244" type="curve"/>
      <point x="551" y="391" type="line"/>
      <point x="419" y="352"/>
      <point x="326" y="309"/>
      <point x="326" y="245" type="curve" smooth="yes"/>
      <point x="326" y="204"/>
      <point x="336" y="187"/>
      <point x="344" y="179" type="curve" smooth="yes"/>
      <point x="351" y="172"/>
      <point x="364" y="169"/>
    </contour>
    <contour>
      <point x="310" y="1047" type="curve" smooth="yes"/>
      <point x="231" y="1047"/>
      <point x="143" y="1102"/>
      <point x="143" y="1211" type="curve" smooth="yes"/>
      <point x="143" y="1320"/>
      <point x="228" y="1382"/>
      <point x="310" y="1382" type="curve" smooth="yes"/>
      <point x="391" y="1382"/>
      <point x="479" y="1321"/>
      <point x="479" y="1211" type="curve" smooth="yes"/>
      <point x="479" y="1100"/>
      <point x="388" y="1047"/>
    </contour>
    <contour>
      <point x="687" y="1047" type="curve" smooth="yes"/>
      <point x="609" y="1047"/>
      <point x="518" y="1101"/>
      <point x="518" y="1211" type="curve" smooth="yes"/>
      <point x="518" y="1321"/>
      <point x="606" y="1382"/>
      <point x="687" y="1382" type="curve" smooth="yes"/>
      <point x="769" y="1382"/>
      <point x="854" y="1320"/>
      <point x="854" y="1211" type="curve" smooth="yes"/>
      <point x="854" y="1101"/>
      <point x="765" y="1047"/>
    </contour>
  </outline>
</glyph>
<glyph name="ntilde" format="1">
  <advance width="1146"/>
  <unicode hex="00F1"/>
  <outline>
    <contour>
      <point x="166" y="0" type="line"/>
      <point x="447" y="0" type="line"/>
      <point x="447" y="657" type="line"/>
      <point x="498" y="713"/>
      <point x="610" y="766"/>
      <point x="692" y="766" type="curve" smooth="yes"/>
      <point x="754" y="766"/>
      <point x="801" y="746"/>
      <point x="801" y="640" type="curve" smooth="yes"/>
      <point x="801" y="0" type="line"/>
      <point x="1081" y="0" type="line"/>
      <point x="1081" y="665" type="line" smooth="yes"/>
      <point x="1081" y="866"/>
      <point x="935" y="1017"/>
      <point x="719" y="1017" type="curve" smooth="yes"/>
      <point x="668" y="1017"/>
      <point x="561" y="1009"/>
      <point x="443" y="920" type="curve"/>
      <point x="443" y="998" type="line"/>
      <point x="166" y="998" type="line"/>
    </contour>
    <contour>
      <point x="740" y="1047" type="curve" smooth="yes"/>
      <point x="863" y="1047"/>
      <point x="947" y="1122"/>
      <point x="1009" y="1215" type="curve" smooth="yes"/>
      <point x="1015" y="1224"/>
      <point x="1022" y="1241"/>
      <point x="1022" y="1259" type="curve" smooth="yes"/>
      <point x="1022" y="1291"/>
      <point x="991" y="1322"/>
      <point x="959" y="1322" type="curve" smooth="yes"/>
      <point x="881" y="1322"/>
      <point x="891" y="1276"/>
      <point x="852" y="1276" type="curve" smooth="yes"/>
      <point x="795" y="1276"/>
      <point x="630" y="1366"/>
      <point x="486" y="1366" type="curve" smooth="yes"/>
      <point x="367" y="1366"/>
      <point x="293" y="1288"/>
      <point x="238" y="1198" type="curve"/>
      <point x="232" y="1190"/>
      <point x="224" y="1167"/>
      <point x="224" y="1154" type="curve" smooth="yes"/>
      <point x="224" y="1117"/>
      <point x="255" y="1090"/>
      <point x="289" y="1090" type="curve" smooth="yes"/>
      <point x="362" y="1090"/>
      <point x="359" y="1135"/>
      <point x="394" y="1135" type="curve" smooth="yes"/>
      <point x="485" y="1135"/>
      <point x="622" y="1047"/>
    </contour>
  </outline>
</glyph>
<glyph name="udieresis" format="1">
  <advance width="1003"/>
  <unicode hex="00FC"/>
  <outline>
    <contour>
      <point x="418" y="-17" type="curve" smooth="yes"/>
      <point x="505" y="-17"/>
      <point x="591" y="12"/>
      <point x="669" y="67" type="curve"/>
      <point x="669" y="0" type="line"/>
      <point x="946" y="0" type="line"/>
      <point x="946" y="997" type="line"/>
      <point x="667" y="997" type="line"/>
      <point x="667" y="326" type="line"/>
      <point x="619" y="270"/>
      <point x="528" y="230"/>
      <point x="452" y="230" type="curve" smooth="yes"/>
      <point x="383" y="230"/>
      <point x="330" y="256"/>
      <point x="330" y="360" type="curve" smooth="yes"/>
      <point x="330" y="997" type="line"/>
      <point x="49" y="997" type="line"/>
      <point x="49" y="350" type="line" smooth="yes"/>
      <point x="49" y="113"/>
      <point x="225" y="-17"/>
    </contour>
    <contour>
      <point x="309" y="1047" type="curve" smooth="yes"/>
      <point x="387" y="1047"/>
      <point x="477" y="1101"/>
      <point x="477" y="1211" type="curve" smooth="yes"/>
      <point x="477" y="1321"/>
      <point x="391" y="1382"/>
      <point x="309" y="1382" type="curve" smooth="yes"/>
      <point x="226" y="1382"/>
      <point x="142" y="1320"/>
      <point x="142" y="1211" type="curve" smooth="yes"/>
      <point x="142" y="1103"/>
      <point x="229" y="1047"/>
    </contour>
    <contour>
      <point x="685" y="1047" type="curve" smooth="yes"/>
      <point x="763" y="1047"/>
      <point x="853" y="1101"/>
      <point x="853" y="1211" type="curve" smooth="yes"/>
      <point x="853" y="1321"/>
      <point x="767" y="1382"/>
      <point x="685" y="1382" type="curve" smooth="yes"/>
      <point x="604" y="1382"/>
      <point x="517" y="1321"/>
      <point x="517" y="1211" type="curve" smooth="yes"/>
      <point x="517" y="1101"/>
      <point x="608" y="1047"/>
    </contour>
  </outline>
</glyph>
<glyph name="thorn" format="1">
  <advance width="1201"/>
  <unicode hex="00FE"/>
  <outline>
    <contour>
      <point x="593" y="241" type="curve" smooth="yes"/>
      <point x="763" y="241"/>
      <point x="861" y="377"/>
      <point x="861" y="522" type="curve" smooth="yes"/>
      <point x="861" y="650"/>
      <point x="786" y="752"/>
      <point x="635" y="752" type="curve" smooth="yes"/>
      <point x="551" y="752"/>
      <point x="483" y="720"/>
      <point x="453" y="702" type="curve"/>
      <point x="453" y="265" type="line"/>
      <point x="477" y="255"/>
      <point x="522" y="241"/>
    </contour>
    <contour>
      <point x="165" y="-361" type="line"/>
      <point x="165" y="1477" type="line"/>
      <point x="453" y="1477" type="line"/>
      <point x="453" y="958" type="line"/>
      <point x="519" y="998"/>
      <point x="587" y="1017"/>
      <point x="652" y="1017" type="curve" smooth="yes"/>
      <point x="994" y="1017"/>
      <point x="1157" y="767"/>
      <point x="1157" y="526" type="curve" smooth="yes"/>
      <point x="1157" y="265"/>
      <point x="973" y="-20"/>
      <point x="609" y="-20" type="curve" smooth="yes"/>
      <point x="544" y="-20"/>
      <point x="488" y="-7"/>
      <point x="450" y="6" type="curve"/>
      <point x="450" y="-361" type="line"/>
    </contour>
  </outline>
</glyph>
<glyph name="Amacron" format="1">
  <advance width="1527"/>
  <unicode hex="0100"/>
  <outline>
    <contour>
      <point x="-16" y="0" type="line"/>
      <point x="292" y="0" type="line"/>
      <point x="494" y="436" type="line"/>
      <point x="1031" y="436" type="line"/>
      <point x="1244" y="0" type="line"/>
      <point x="1484" y="0" type="line"/>
      <point x="1526" y="42" type="line"/>
      <point x="851" y="1516" type="line"/>
      <point x="640" y="1516" type="line"/>
    </contour>
    <contour>
      <point x="454" y="1566" type="line"/>
      <point x="1070" y="1566" type="line"/>
      <point x="1070" y="1820" type="line"/>
      <point x="454" y="1820" type="line"/>
    </contour>
    <contour>
      <point x="606" y="713" type="line"/>
      <point x="753" y="1121" type="line"/>
      <point x="913" y="713" type="line"/>
    </contour>
  </outline>
</glyph>
<glyph name="amacron" format="1">
  <advance width="958"/>
  <unicode hex="0101"/>
  <outline>
    <contour>
      <point x="830" y="-29" type="line"/>
      <point x="791" y="-10" type="line" smooth="yes"/>
      <point x="742" y="14"/>
      <point x="678" y="52"/>
      <point x="630" y="103" type="curve"/>
      <point x="547" y="13"/>
      <point x="434" y="-20"/>
      <point x="354" y="-20" type="curve" smooth="yes"/>
      <point x="191" y="-20"/>
      <point x="35" y="53"/>
      <point x="35" y="245" type="curve" smooth="yes"/>
      <point x="35" y="373"/>
      <point x="162" y="488"/>
      <point x="425" y="550" type="curve"/>
      <point x="552" y="579" type="line"/>
      <point x="552" y="595" type="line" smooth="yes"/>
      <point x="552" y="697"/>
      <point x="507" y="740"/>
      <point x="433" y="740" type="curve" smooth="yes"/>
      <point x="337" y="740"/>
      <point x="252" y="696"/>
      <point x="190" y="638" type="curve" smooth="yes"/>
      <point x="132" y="583" type="line"/>
      <point x="46" y="840" type="line"/>
      <point x="67" y="862" type="line" smooth="yes"/>
      <point x="117" y="915"/>
      <point x="269" y="1006"/>
      <point x="429" y="1006" type="curve" smooth="yes"/>
      <point x="609" y="1006"/>
      <point x="831" y="918"/>
      <point x="831" y="674" type="curve" smooth="yes"/>
      <point x="831" y="303" type="line" smooth="yes"/>
      <point x="831" y="231"/>
      <point x="843" y="244"/>
      <point x="934" y="202" type="curve" smooth="yes"/>
      <point x="986" y="178" type="line"/>
    </contour>
    <contour>
      <point x="380" y="168" type="curve" smooth="yes"/>
      <point x="427" y="168"/>
      <point x="503" y="195"/>
      <point x="551" y="244" type="curve"/>
      <point x="551" y="390" type="line"/>
      <point x="419" y="351"/>
      <point x="326" y="310"/>
      <point x="326" y="244" type="curve" smooth="yes"/>
      <point x="326" y="203"/>
      <point x="336" y="186"/>
      <point x="344" y="178" type="curve" smooth="yes"/>
      <point x="351" y="171"/>
      <point x="364" y="168"/>
    </contour>
    <contour>
      <point x="191" y="1047" type="line"/>
      <point x="191" y="1301" type="line"/>
      <point x="806" y="1301" type="line"/>
      <point x="806" y="1047" type="line"/>
    </contour>
  </outline>
</glyph>
<glyph name="aogonek" format="1">
  <advance width="958"/>
  <unicode hex="0105"/>
  <outline>
    <contour>
      <point x="812" y="-395" type="curve" smooth="yes"/>
      <point x="643" y="-395"/>
      <point x="525" y="-265"/>
      <point x="525" y="-124" type="curve" smooth="yes"/>
      <point x="525" y="-40"/>
      <point x="563" y="46"/>
      <point x="639" y="94" type="curve"/>
      <point x="636" y="97"/>
      <point x="633" y="99"/>
      <point x="631" y="102" type="curve"/>
      <point x="549" y="13"/>
      <point x="435" y="-22"/>
      <point x="354" y="-22" type="curve" smooth="yes"/>
      <point x="190" y="-22"/>
      <point x="35" y="52"/>
      <point x="35" y="245" type="curve" smooth="yes"/>
      <point x="35" y="373"/>
      <point x="162" y="489"/>
      <point x="425" y="549" type="curve" smooth="yes"/>
      <point x="552" y="578" type="line"/>
      <point x="552" y="593" type="line" smooth="yes"/>
      <point x="552" y="695"/>
      <point x="507" y="739"/>
      <point x="433" y="739" type="curve" smooth="yes"/>
      <point x="337" y="739"/>
      <point x="251" y="696"/>
      <point x="190" y="637" type="curve" smooth="yes"/>
      <point x="132" y="582" type="line"/>
      <point x="46" y="839" type="line"/>
      <point x="67" y="861" type="line" smooth="yes"/>
      <point x="118" y="916"/>
      <point x="269" y="1006"/>
      <point x="429" y="1006" type="curve" smooth="yes"/>
      <point x="609" y="1006"/>
      <point x="831" y="918"/>
      <point x="831" y="674" type="curve" smooth="yes"/>
      <point x="831" y="304" type="line" smooth="yes"/>
      <point x="831" y="232"/>
      <point x="842" y="247"/>
      <point x="935" y="203" type="curve" smooth="yes"/>
      <point x="986" y="179" type="line"/>
      <point x="846" y="-6" type="line"/>
      <point x="833" y="-11"/>
      <point x="818" y="-15"/>
      <point x="807" y="-21" type="curve" smooth="yes"/>
      <point x="761" y="-44"/>
      <point x="747" y="-73"/>
      <point x="747" y="-90" type="curve" smooth="yes"/>
      <point x="747" y="-113"/>
      <point x="774" y="-163"/>
      <point x="883" y="-163" type="curve" smooth="yes"/>
      <point x="949" y="-163" type="line"/>
      <point x="897" y="-380" type="line"/>
      <point x="868" y="-388" type="line" smooth="yes"/>
      <point x="847" y="-394"/>
      <point x="828" y="-395"/>
    </contour>
    <contour>
      <point x="381" y="168" type="curve" smooth="yes"/>
      <point x="428" y="168"/>
      <point x="503" y="194"/>
      <point x="551" y="242" type="curve"/>
      <point x="551" y="391" type="line"/>
      <point x="419" y="351"/>
      <point x="326" y="309"/>
      <point x="326" y="244" type="curve" smooth="yes"/>
      <point x="326" y="204"/>
      <point x="336" y="187"/>
      <point x="344" y="179" type="curve" smooth="yes"/>
      <point x="351" y="172"/>
      <point x="364" y="168"/>
    </contour>
  </outline>
</glyph>
<glyph name="ccaron" format="1">
  <advance width="964"/>
  <unicode hex="010D"/>
  <outline>
    <contour>
      <point x="592" y="-20" type="curve" smooth="yes"/>
      <point x="276" y="-20"/>
      <point x="30" y="198"/>
      <point x="30" y="500" type="curve" smooth="yes"/>
      <point x="30" y="807"/>
      <point x="291" y="1017"/>
      <point x="585" y="1017" type="curve" smooth="yes"/>
      <point x="679" y="1017"/>
      <point x="797" y="996"/>
      <point x="867" y="953" type="curve" smooth="yes"/>
      <point x="891" y="938" type="line"/>
      <point x="891" y="658" type="line"/>
      <point x="815" y="701" type="line" smooth="yes"/>
      <point x="729" y="749"/>
      <point x="696" y="760"/>
      <point x="601" y="760" type="curve" smooth="yes"/>
      <point x="419" y="760"/>
      <point x="316" y="629"/>
      <point x="316" y="500" type="curve" smooth="yes"/>
      <point x="316" y="370"/>
      <point x="411" y="234"/>
      <point x="604" y="234" type="curve" smooth="yes"/>
      <point x="674" y="234"/>
      <point x="764" y="272"/>
      <point x="831" y="314" type="curve"/>
      <point x="914" y="314" type="line"/>
      <point x="914" y="67" type="line"/>
      <point x="890" y="52" type="line" smooth="yes"/>
      <point x="781" y="-16"/>
      <point x="622" y="-20"/>
    </contour>
    <contour>
      <point x="471" y="1047" type="curve" smooth="yes"/>
      <point x="448" y="1047"/>
      <point x="415" y="1051"/>
      <point x="392" y="1084" type="curve"/>
      <point x="118" y="1505" type="line"/>
      <point x="118" y="1522" type="line" smooth="yes"/>
      <point x="118" y="1532"/>
      <point x="116" y="1576"/>
      <point x="171" y="1576" type="curve" smooth="yes"/>
      <point x="176" y="1576"/>
      <point x="193" y="1574"/>
      <point x="206" y="1565" type="curve" smooth="yes"/>
      <point x="471" y="1379" type="line"/>
      <point x="739" y="1565" type="line"/>
      <point x="739" y="1565"/>
      <point x="758" y="1576"/>
      <point x="772" y="1576" type="curve" smooth="yes"/>
      <point x="812" y="1576"/>
      <point x="826" y="1544"/>
      <point x="826" y="1522" type="curve" smooth="yes"/>
      <point x="826" y="1480"/>
      <point x="813" y="1487"/>
      <point x="813" y="1487" type="curve"/>
      <point x="550" y="1083" type="line"/>
      <point x="527" y="1054"/>
      <point x="496" y="1047"/>
    </contour>
  </outline>
</glyph>
<glyph name="Dcaron" format="1">
  <advance width="1557"/>
  <unicode hex="010E"/>
  <outline>
    <contour>
      <point x="788" y="1567" type="curve" smooth="yes"/>
      <point x="761" y="1567"/>
      <point x="731" y="1575"/>
      <point x="709" y="1603" type="curve"/>
      <point x="435" y="2025" type="line"/>
      <point x="435" y="2043" type="line" smooth="yes"/>
      <point x="435" y="2074"/>
      <point x="457" y="2096"/>
      <point x="488" y="2096" type="curve"/>
      <point x="489" y="2096" type="line"/>
      <point x="492" y="2096"/>
      <point x="502" y="2096"/>
      <point x="516" y="2090" type="curve"/>
      <point x="607" y="2027"/>
      <point x="700" y="1961"/>
      <point x="788" y="1900" type="curve"/>
      <point x="852" y="1945"/>
      <point x="915" y="1988"/>
      <point x="978" y="2032" type="curve" smooth="yes"/>
      <point x="1053" y="2084" type="line"/>
      <point x="1067" y="2095"/>
      <point x="1078" y="2097"/>
      <point x="1084" y="2097" type="curve" smooth="yes"/>
      <point x="1087" y="2097"/>
      <point x="1089" y="2096"/>
      <point x="1089" y="2096" type="curve"/>
      <point x="1105" y="2096"/>
      <point x="1143" y="2083"/>
      <point x="1143" y="2043" type="curve" smooth="yes"/>
      <point x="1143" y="2042"/>
      <point x="1145" y="2037"/>
      <point x="1137" y="2018" type="curve"/>
      <point x="867" y="1603" type="line"/>
      <point x="845" y="1575"/>
      <point x="815" y="1567"/>
    </contour>
    <contour>
      <point x="370" y="279" type="line"/>
      <point x="664" y="279" type="line" smooth="yes"/>
      <point x="983" y="279"/>
      <point x="1191" y="436"/>
      <point x="1191" y="761" type="curve" smooth="yes"/>
      <point x="1191" y="1133"/>
      <point x="986" y="1235"/>
      <point x="713" y="1235" type="curve" smooth="yes"/>
      <point x="370" y="1235" type="line"/>
    </contour>
    <contour>
      <point x="77" y="0" type="line"/>
      <point x="77" y="1516" type="line"/>
      <point x="739" y="1516" type="line" smooth="yes"/>
      <point x="1234" y="1516"/>
      <point x="1503" y="1199"/>
      <point x="1503" y="764" type="curve" smooth="yes"/>
      <point x="1503" y="360"/>
      <point x="1214" y="0"/>
      <point x="706" y="0" type="curve" smooth="yes"/>
    </contour>
  </outline>
</glyph>
<glyph name="Dcroat" format="1">
  <advance width="1553"/>
  <unicode hex="0110"/>
  <outline>
    <contour>
      <point x="76" y="0" type="line"/>
      <point x="76" y="630" type="line"/>
      <point x="-51" y="630" type="line"/>
      <point x="-51" y="880" type="line"/>
      <point x="76" y="880" type="line"/>
      <point x="76" y="1516" type="line"/>
      <point x="738" y="1516" type="line" smooth="yes"/>
      <point x="1232" y="1516"/>
      <point x="1501" y="1199"/>
      <point x="1501" y="763" type="curve" smooth="yes"/>
      <point x="1501" y="361"/>
      <point x="1214" y="0"/>
      <point x="704" y="0" type="curve" smooth="yes"/>
    </contour>
    <contour>
      <point x="369" y="279" type="line"/>
      <point x="663" y="279" type="line" smooth="yes"/>
      <point x="982" y="279"/>
      <point x="1191" y="435"/>
      <point x="1191" y="760" type="curve" smooth="yes"/>
      <point x="1191" y="1132"/>
      <point x="985" y="1235"/>
      <point x="711" y="1235" type="curve" smooth="yes"/>
      <point x="369" y="1235" type="line"/>
      <point x="369" y="880" type="line"/>
      <point x="669" y="880" type="line"/>
      <point x="669" y="630" type="line"/>
      <point x="369" y="630" type="line"/>
    </contour>
  </outline>
</glyph>
<glyph name="Emacron" format="1">
  <advance width="1060"/>
  <unicode hex="0112"/>
  <outline>
    <contour>
      <point x="77" y="0" type="line"/>
      <point x="1024" y="0" type="line"/>
      <point x="1024" y="279" type="line"/>
      <point x="370" y="279" type="line"/>
      <point x="370" y="631" type="line"/>
      <point x="997" y="631" type="line"/>
      <point x="997" y="908" type="line"/>
      <point x="370" y="908" type="line"/>
      <point x="370" y="1236" type="line"/>
      <point x="1011" y="1236" type="line"/>
      <point x="1011" y="1516" type="line"/>
      <point x="77" y="1516" type="line"/>
    </contour>
    <contour>
      <point x="236" y="1566" type="line"/>
      <point x="852" y="1566" type="line"/>
      <point x="852" y="1820" type="line"/>
      <point x="236" y="1820" type="line"/>
    </contour>
  </outline>
</glyph>
<glyph name="emacron" format="1">
  <advance width="1051"/>
  <unicode hex="0113"/>
  <outline>
    <contour>
      <point x="615" y="-18" type="curve" smooth="yes"/>
      <point x="265" y="-18"/>
      <point x="29" y="203"/>
      <point x="29" y="515" type="curve" smooth="yes"/>
      <point x="29" y="782"/>
      <point x="236" y="1016"/>
      <point x="532" y="1016" type="curve" smooth="yes"/>
      <point x="847" y="1016"/>
      <point x="997" y="796"/>
      <point x="997" y="520" type="curve" smooth="yes"/>
      <point x="997" y="447" type="line"/>
      <point x="326" y="447" type="line"/>
      <point x="346" y="315"/>
      <point x="448" y="232"/>
      <point x="614" y="232" type="curve" smooth="yes"/>
      <point x="713" y="232"/>
      <point x="809" y="261"/>
      <point x="900" y="322" type="curve" smooth="yes"/>
      <point x="979" y="375" type="line"/>
      <point x="979" y="96" type="line"/>
      <point x="956" y="80" type="line" smooth="yes"/>
      <point x="856" y="14"/>
      <point x="742" y="-18"/>
    </contour>
    <contour>
      <point x="205" y="1048" type="line"/>
      <point x="205" y="1302" type="line"/>
      <point x="821" y="1302" type="line"/>
      <point x="821" y="1048" type="line"/>
    </contour>
    <contour>
      <point x="344" y="669" type="curve"/>
      <point x="726" y="669" type="line"/>
      <point x="705" y="727"/>
      <point x="634" y="765"/>
      <point x="538" y="765" type="curve" smooth="yes"/>
      <point x="439" y="765"/>
      <point x="376" y="728"/>
    </contour>
  </outline>
</glyph>
<glyph name="Edotaccent" format="1">
  <advance width="1060"/>
  <unicode hex="0116"/>
  <outline>
    <contour>
      <point x="77" y="0" type="line"/>
      <point x="1024" y="0" type="line"/>
      <point x="1024" y="278" type="line"/>
      <point x="370" y="278" type="line"/>
      <point x="370" y="631" type="line"/>
      <point x="997" y="631" type="line"/>
      <point x="997" y="907" type="line"/>
      <point x="370" y="907" type="line"/>
      <point x="370" y="1237" type="line"/>
      <point x="1011" y="1237" type="line"/>
      <point x="1011" y="1515" type="line"/>
      <point x="77" y="1515" type="line"/>
    </contour>
    <contour>
      <point x="545" y="1566" type="curve" smooth="yes"/>
      <point x="630" y="1566"/>
      <point x="724" y="1627"/>
      <point x="724" y="1745" type="curve" smooth="yes"/>
      <point x="724" y="1863"/>
      <point x="632" y="1929"/>
      <point x="545" y="1929" type="curve" smooth="yes"/>
      <point x="456" y="1929"/>
      <point x="364" y="1864"/>
      <point x="364" y="1745" type="curve" smooth="yes"/>
      <point x="364" y="1627"/>
      <point x="458" y="1566"/>
    </contour>
  </outline>
</glyph>
<glyph name="gbreve" format="1">
  <advance width="1186"/>
  <unicode hex="011F"/>
  <outline>
    <contour>
      <point x="564" y="-438" type="curve" smooth="yes"/>
      <point x="454" y="-438"/>
      <point x="344" y="-415"/>
      <point x="256" y="-377" type="curve" smooth="yes"/>
      <point x="225" y="-364" type="line"/>
      <point x="225" y="-96" type="line"/>
      <point x="296" y="-126" type="line" smooth="yes"/>
      <point x="389" y="-165"/>
      <point x="490" y="-190"/>
      <point x="572" y="-190" type="curve" smooth="yes"/>
      <point x="692" y="-190"/>
      <point x="765" y="-148"/>
      <point x="765" y="-9" type="curve" smooth="yes"/>
      <point x="765" y="10"/>
      <point x="763" y="32"/>
      <point x="759" y="55" type="curve"/>
      <point x="710" y="29"/>
      <point x="638" y="0"/>
      <point x="551" y="0" type="curve" smooth="yes"/>
      <point x="205" y="0"/>
      <point x="42" y="274"/>
      <point x="42" y="523" type="curve" smooth="yes"/>
      <point x="42" y="801"/>
      <point x="279" y="1014"/>
      <point x="529" y="1014" type="curve" smooth="yes"/>
      <point x="601" y="1014"/>
      <point x="675" y="990"/>
      <point x="745" y="942" type="curve"/>
      <point x="745" y="996" type="line"/>
      <point x="1022" y="996" type="line"/>
      <point x="1022" y="-3" type="line" smooth="yes"/>
      <point x="1022" y="-329"/>
      <point x="784" y="-438"/>
    </contour>
    <contour>
      <point x="532" y="1047" type="curve" smooth="yes"/>
      <point x="395" y="1047"/>
      <point x="256" y="1146"/>
      <point x="249" y="1333" type="curve" smooth="yes"/>
      <point x="247" y="1386" type="line"/>
      <point x="449" y="1386" type="line"/>
      <point x="455" y="1341" type="line" smooth="yes"/>
      <point x="462" y="1284"/>
      <point x="496" y="1264"/>
      <point x="531" y="1264" type="curve" smooth="yes"/>
      <point x="565" y="1264"/>
      <point x="601" y="1285"/>
      <point x="607" y="1341" type="curve" smooth="yes"/>
      <point x="612" y="1386" type="line"/>
      <point x="815" y="1386" type="line"/>
      <point x="813" y="1333" type="line" smooth="yes"/>
      <point x="807" y="1146"/>
      <point x="667" y="1047"/>
    </contour>
    <contour>
      <point x="584" y="252" type="curve" smooth="yes"/>
      <point x="630" y="252"/>
      <point x="683" y="261"/>
      <point x="742" y="280" type="curve"/>
      <point x="742" y="706" type="line"/>
      <point x="679" y="746"/>
      <point x="621" y="760"/>
      <point x="570" y="760" type="curve" smooth="yes"/>
      <point x="453" y="760"/>
      <point x="328" y="674"/>
      <point x="328" y="514" type="curve" smooth="yes"/>
      <point x="328" y="339"/>
      <point x="431" y="252"/>
    </contour>
  </outline>
</glyph>
<glyph name="gcommaaccent" format="1">
  <advance width="1186"/>
  <unicode hex="0123"/>
  <outline>
    <contour>
      <point x="584" y="253" type="curve" smooth="yes"/>
      <point x="630" y="253"/>
      <point x="684" y="261"/>
      <point x="742" y="280" type="curve"/>
      <point x="742" y="706" type="line"/>
      <point x="679" y="745"/>
      <point x="621" y="760"/>
      <point x="570" y="760" type="curve" smooth="yes"/>
      <point x="453" y="760"/>
      <point x="328" y="674"/>
      <point x="328" y="514" type="curve" smooth="yes"/>
      <point x="328" y="338"/>
      <point x="431" y="253"/>
    </contour>
    <contour>
      <point x="569" y="1033" type="curve" smooth="yes"/>
      <point x="476" y="1033"/>
      <point x="375" y="1099"/>
      <point x="375" y="1231" type="curve" smooth="yes"/>
      <point x="375" y="1383"/>
      <point x="510" y="1607"/>
      <point x="663" y="1607" type="curve" smooth="yes"/>
      <point x="684" y="1607" type="line"/>
      <point x="761" y="1530" type="line"/>
      <point x="721" y="1494" type="line" smooth="yes"/>
      <point x="676" y="1454"/>
      <point x="660" y="1424"/>
      <point x="654" y="1379" type="curve"/>
      <point x="720" y="1345"/>
      <point x="752" y="1284"/>
      <point x="752" y="1223" type="curve" smooth="yes"/>
      <point x="752" y="1103"/>
      <point x="661" y="1033"/>
    </contour>
    <contour>
      <point x="564" y="-437" type="curve" smooth="yes"/>
      <point x="454" y="-437"/>
      <point x="344" y="-414"/>
      <point x="256" y="-376" type="curve"/>
      <point x="225" y="-363" type="line"/>
      <point x="225" y="-95" type="line"/>
      <point x="296" y="-125" type="line" smooth="yes"/>
      <point x="389" y="-164"/>
      <point x="490" y="-189"/>
      <point x="572" y="-189" type="curve" smooth="yes"/>
      <point x="692" y="-189"/>
      <point x="765" y="-148"/>
      <point x="765" y="-9" type="curve" smooth="yes"/>
      <point x="765" y="10"/>
      <point x="763" y="32"/>
      <point x="759" y="55" type="curve"/>
      <point x="710" y="29"/>
      <point x="638" y="0"/>
      <point x="551" y="0" type="curve" smooth="yes"/>
      <point x="205" y="0"/>
      <point x="42" y="275"/>
      <point x="42" y="523" type="curve" smooth="yes"/>
      <point x="42" y="801"/>
      <point x="279" y="1016"/>
      <point x="529" y="1016" type="curve" smooth="yes"/>
      <point x="602" y="1016"/>
      <point x="676" y="992"/>
      <point x="745" y="944" type="curve"/>
      <point x="745" y="997" type="line"/>
      <point x="1022" y="997" type="line"/>
      <point x="1022" y="-2" type="line" smooth="yes"/>
      <point x="1022" y="-329"/>
      <point x="784" y="-437"/>
    </contour>
  </outline>
</glyph>
<glyph name="Hbar" format="1">
  <advance width="1480"/>
  <unicode hex="0126"/>
  <outline>
    <contour>
      <point x="73" y="0" type="line"/>
      <point x="368" y="0" type="line"/>
      <point x="368" y="636" type="line"/>
      <point x="1112" y="636" type="line"/>
      <point x="1112" y="0" type="line"/>
      <point x="1407" y="0" type="line"/>
      <point x="1407" y="1048" type="line"/>
      <point x="1531" y="1048" type="line"/>
      <point x="1531" y="1278" type="line"/>
      <point x="1407" y="1278" type="line"/>
      <point x="1407" y="1516" type="line"/>
      <point x="1112" y="1516" type="line"/>
      <point x="1112" y="1262" type="line"/>
      <point x="368" y="1262" type="line"/>
      <point x="368" y="1516" type="line"/>
      <point x="73" y="1516" type="line"/>
      <point x="73" y="1278" type="line"/>
      <point x="-51" y="1278" type="line"/>
      <point x="-51" y="1048" type="line"/>
      <point x="73" y="1048" type="line"/>
    </contour>
    <contour>
      <point x="368" y="905" type="line"/>
      <point x="368" y="1068" type="line"/>
      <point x="1112" y="1068" type="line"/>
      <point x="1112" y="905" type="line"/>
    </contour>
  </outline>
</glyph>
<glyph name="hbar" format="1">
  <advance width="1264"/>
  <unicode hex="0127"/>
  <outline>
    <contour>
      <point x="273" y="0" type="line"/>
      <point x="273" y="1089" type="line"/>
      <point x="166" y="1089" type="line"/>
      <point x="166" y="1320" type="line"/>
      <point x="273" y="1320" type="line"/>
      <point x="273" y="1491" type="line"/>
      <point x="554" y="1491" type="line"/>
      <point x="554" y="1320" type="line"/>
      <point x="840" y="1320" type="line"/>
      <point x="840" y="1089" type="line"/>
      <point x="554" y="1089" type="line"/>
      <point x="554" y="941" type="line"/>
      <point x="635" y="990"/>
      <point x="727" y="1017"/>
      <point x="816" y="1017" type="curve" smooth="yes"/>
      <point x="1014" y="1017"/>
      <point x="1199" y="895"/>
      <point x="1199" y="647" type="curve" smooth="yes"/>
      <point x="1199" y="0" type="line"/>
      <point x="920" y="0" type="line"/>
      <point x="920" y="574" type="line" smooth="yes"/>
      <point x="920" y="732"/>
      <point x="884" y="760"/>
      <point x="795" y="760" type="curve" smooth="yes"/>
      <point x="747" y="760"/>
      <point x="607" y="716"/>
      <point x="554" y="671" type="curve"/>
      <point x="554" y="0" type="line"/>
    </contour>
  </outline>
</glyph>
<glyph name="imacron" format="1">
  <advance width="456"/>
  <unicode hex="012B"/>
  <outline>
    <contour>
      <point x="110" y="0" type="line"/>
      <point x="393" y="0" type="line"/>
      <point x="393" y="998" type="line"/>
      <point x="110" y="998" type="line"/>
    </contour>
    <contour>
      <point x="-57" y="1047" type="line"/>
      <point x="558" y="1047" type="line"/>
      <point x="558" y="1301" type="line"/>
      <point x="-57" y="1301" type="line"/>
    </contour>
  </outline>
</glyph>
<glyph name="iogonek" format="1">
  <advance width="465"/>
  <unicode hex="012F"/>
  <outline>
    <contour>
      <point x="260" y="-412" type="curve" smooth="yes"/>
      <point x="276" y="-412"/>
      <point x="294" y="-411"/>
      <point x="313" y="-407" type="curve" smooth="yes"/>
      <point x="344" y="-400" type="line"/>
      <point x="398" y="-181" type="line"/>
      <point x="332" y="-181" type="line" smooth="yes"/>
      <point x="221" y="-181"/>
      <point x="195" y="-131"/>
      <point x="195" y="-107" type="curve" smooth="yes"/>
      <point x="195" y="-90"/>
      <point x="215" y="-51"/>
      <point x="278" y="-29" type="curve" smooth="yes"/>
      <point x="339" y="-8" type="line"/>
      <point x="334" y="0" type="line"/>
      <point x="372" y="0" type="line"/>
      <point x="372" y="997" type="line"/>
      <point x="92" y="997" type="line"/>
      <point x="92" y="62" type="line"/>
      <point x="12" y="17"/>
      <point x="-27" y="-64"/>
      <point x="-27" y="-143" type="curve" smooth="yes"/>
      <point x="-27" y="-282"/>
      <point x="92" y="-412"/>
    </contour>
    <contour>
      <point x="232" y="1053" type="curve" smooth="yes"/>
      <point x="343" y="1053"/>
      <point x="409" y="1138"/>
      <point x="409" y="1224" type="curve" smooth="yes"/>
      <point x="409" y="1311"/>
      <point x="343" y="1396"/>
      <point x="232" y="1396" type="curve" smooth="yes"/>
      <point x="122" y="1396"/>
      <point x="56" y="1311"/>
      <point x="56" y="1224" type="curve" smooth="yes"/>
      <point x="56" y="1138"/>
      <point x="122" y="1053"/>
    </contour>
  </outline>
</glyph>
<glyph name="IJ" format="1">
  <advance width="1036"/>
  <unicode hex="0132"/>
  <outline>
    <contour>
      <point x="676" y="0" type="line"/>
      <point x="676" y="1514" type="line"/>
      <point x="970" y="1514" type="line"/>
      <point x="970" y="0" type="line"/>
    </contour>
    <contour>
      <point x="-43" y="-394" type="line"/>
      <point x="-43" y="-138" type="line"/>
      <point x="8" y="-138" type="line" smooth="yes"/>
      <point x="219" y="-138"/>
      <point x="221" y="-113"/>
      <point x="221" y="62" type="curve" smooth="yes"/>
      <point x="221" y="1514" type="line"/>
      <point x="514" y="1514" type="line"/>
      <point x="514" y="7" type="line" smooth="yes"/>
      <point x="514" y="-271"/>
      <point x="341" y="-393"/>
      <point x="8" y="-394" type="curve"/>
    </contour>
  </outline>
</glyph>
<glyph name="kgreenlandic" format="1">
  <advance width="1006"/>
  <unicode hex="0138"/>
  <outline>
    <contour>
      <point x="57" y="0" type="line"/>
      <point x="57" y="1491" type="line"/>
      <point x="337" y="1491" type="line"/>
      <point x="337" y="616" type="line"/>
      <point x="695" y="998" type="line"/>
      <point x="1067" y="998" type="line"/>
      <point x="564" y="524" type="line"/>
      <point x="1123" y="0" type="line"/>
      <point x="743" y="0" type="line"/>
      <point x="337" y="426" type="line"/>
      <point x="337" y="0" type="line"/>
    </contour>
  </outline>
</glyph>
<glyph name="ncommaaccent" format="1">
  <advance width="1146"/>
  <unicode hex="0146"/>
  <outline>
    <contour>
      <point x="166" y="0" type="line"/>
      <point x="166" y="997" type="line"/>
      <point x="443" y="997" type="line"/>
      <point x="443" y="920" type="line"/>
      <point x="561" y="1009"/>
      <point x="669" y="1016"/>
      <point x="719" y="1016" type="curve" smooth="yes"/>
      <point x="935" y="1016"/>
      <point x="1081" y="867"/>
      <point x="1081" y="664" type="curve" smooth="yes"/>
      <point x="1081" y="0" type="line"/>
      <point x="801" y="0" type="line"/>
      <point x="801" y="642" type="line" smooth="yes"/>
      <point x="801" y="745"/>
      <point x="754" y="766"/>
      <point x="692" y="766" type="curve" smooth="yes"/>
      <point x="610" y="766"/>
      <point x="498" y="713"/>
      <point x="447" y="657" type="curve"/>
      <point x="447" y="0" type="line"/>
    </contour>
    <contour>
      <point x="502" y="-604" type="line"/>
      <point x="427" y="-529" type="line"/>
      <point x="465" y="-493" type="line" smooth="yes"/>
      <point x="510" y="-451"/>
      <point x="526" y="-421"/>
      <point x="532" y="-377" type="curve"/>
      <point x="466" y="-342"/>
      <point x="435" y="-281"/>
      <point x="435" y="-219" type="curve" smooth="yes"/>
      <point x="435" y="-100"/>
      <point x="525" y="-30"/>
      <point x="619" y="-30" type="curve" smooth="yes"/>
      <point x="710" y="-30"/>
      <point x="810" y="-98"/>
      <point x="810" y="-228" type="curve" smooth="yes"/>
      <point x="810" y="-379"/>
      <point x="675" y="-604"/>
      <point x="523" y="-604" type="curve" smooth="yes"/>
    </contour>
  </outline>
</glyph>
<glyph name="ohungarumlaut" format="1">
  <advance width="1198"/>
  <unicode hex="0151"/>
  <outline>
    <contour>
      <point x="286" y="1046" type="curve" smooth="yes"/>
      <point x="329" y="1046"/>
      <point x="343" y="1076"/>
      <point x="352" y="1089" type="curve" smooth="yes"/>
      <point x="572" y="1379" type="line" smooth="yes"/>
      <point x="601" y="1417"/>
      <point x="617" y="1457"/>
      <point x="617" y="1495" type="curve" smooth="yes"/>
      <point x="617" y="1580"/>
      <point x="546" y="1633"/>
      <point x="476" y="1633" type="curve" smooth="yes"/>
      <point x="412" y="1633"/>
      <point x="352" y="1589"/>
      <point x="329" y="1509" type="curve"/>
      <point x="233" y="1147" type="line"/>
      <point x="233" y="1146"/>
      <point x="224" y="1137"/>
      <point x="224" y="1112" type="curve" smooth="yes"/>
      <point x="224" y="1084"/>
      <point x="237" y="1046"/>
    </contour>
    <contour>
      <point x="643" y="1046" type="curve" smooth="yes"/>
      <point x="684" y="1046"/>
      <point x="696" y="1070"/>
      <point x="710" y="1089" type="curve" smooth="yes"/>
      <point x="931" y="1379" type="line" smooth="yes"/>
      <point x="961" y="1418"/>
      <point x="974" y="1460"/>
      <point x="974" y="1495" type="curve" smooth="yes"/>
      <point x="974" y="1581"/>
      <point x="902" y="1633"/>
      <point x="833" y="1633" type="curve" smooth="yes"/>
      <point x="767" y="1633"/>
      <point x="710" y="1587"/>
      <point x="685" y="1509" type="curve"/>
      <point x="589" y="1149" type="line"/>
      <point x="584" y="1133"/>
      <point x="584" y="1117"/>
      <point x="584" y="1112" type="curve" smooth="yes"/>
      <point x="584" y="1107"/>
      <point x="581" y="1046"/>
    </contour>
    <contour>
      <point x="599" y="234" type="curve" smooth="yes"/>
      <point x="429" y="234"/>
      <point x="311" y="350"/>
      <point x="311" y="498" type="curve" smooth="yes"/>
      <point x="311" y="648"/>
      <point x="429" y="761"/>
      <point x="599" y="761" type="curve" smooth="yes"/>
      <point x="770" y="761"/>
      <point x="889" y="648"/>
      <point x="889" y="498" type="curve" smooth="yes"/>
      <point x="889" y="350"/>
      <point x="769" y="234"/>
    </contour>
    <contour>
      <point x="599" y="-19" type="curve" smooth="yes"/>
      <point x="908" y="-19"/>
      <point x="1170" y="188"/>
      <point x="1170" y="500" type="curve" smooth="yes"/>
      <point x="1170" y="810"/>
      <point x="907" y="1016"/>
      <point x="599" y="1016" type="curve" smooth="yes"/>
      <point x="290" y="1016"/>
      <point x="30" y="810"/>
      <point x="30" y="500" type="curve" smooth="yes"/>
      <point x="30" y="188"/>
      <point x="290" y="-19"/>
    </contour>
  </outline>
</glyph>
<glyph name="oe" format="1">
  <advance width="1861"/>
  <unicode hex="0153"/>
  <outline>
    <contour>
      <point x="574" y="-19" type="curve" smooth="yes"/>
      <point x="735" y="-19"/>
      <point x="876" y="48"/>
      <point x="975" y="175" type="curve"/>
      <point x="1075" y="59"/>
      <point x="1235" y="-19"/>
      <point x="1412" y="-19" type="curve" smooth="yes"/>
      <point x="1539" y="-19"/>
      <point x="1651" y="5"/>
      <point x="1777" y="67" type="curve"/>
      <point x="1777" y="314" type="line"/>
      <point x="1626" y="225"/>
      <point x="1509" y="206"/>
      <point x="1411" y="206" type="curve" smooth="yes"/>
      <point x="1245" y="206"/>
      <point x="1143" y="310"/>
      <point x="1123" y="457" type="curve"/>
      <point x="1795" y="457" type="line"/>
      <point x="1795" y="519" type="line" smooth="yes"/>
      <point x="1795" y="797"/>
      <point x="1646" y="1016"/>
      <point x="1330" y="1016" type="curve" smooth="yes"/>
      <point x="1185" y="1016"/>
      <point x="1051" y="938"/>
      <point x="966" y="833" type="curve"/>
      <point x="863" y="957"/>
      <point x="733" y="1017"/>
      <point x="577" y="1017" type="curve" smooth="yes"/>
      <point x="211" y="1017"/>
      <point x="28" y="755"/>
      <point x="28" y="500" type="curve" smooth="yes"/>
      <point x="28" y="246"/>
      <point x="213" y="-19"/>
    </contour>
    <contour>
      <point x="574" y="224" type="curve" smooth="yes"/>
      <point x="392" y="224"/>
      <point x="299" y="359"/>
      <point x="299" y="498" type="curve" smooth="yes"/>
      <point x="299" y="636"/>
      <point x="394" y="772"/>
      <point x="577" y="772" type="curve" smooth="yes"/>
      <point x="728" y="772"/>
      <point x="837" y="652"/>
      <point x="837" y="498" type="curve" smooth="yes"/>
      <point x="837" y="347"/>
      <point x="727" y="224"/>
    </contour>
    <contour>
      <point x="1134" y="629" type="line"/>
      <point x="1157" y="720"/>
      <point x="1249" y="806"/>
      <point x="1369" y="806" type="curve"/>
      <point x="1473" y="806"/>
      <point x="1540" y="745"/>
      <point x="1563" y="629" type="curve"/>
    </contour>
    <contour>
      <point x="931" y="996" type="move"/>
    </contour>
  </outline>
</glyph>
<glyph name="scaron" format="1">
  <advance width="833"/>
  <unicode hex="0161"/>
  <outline>
    <contour>
      <point x="426" y="-20" type="curve" smooth="yes"/>
      <point x="292" y="-20"/>
      <point x="149" y="19"/>
      <point x="65" y="101" type="curve"/>
      <point x="47" y="120" type="line"/>
      <point x="85" y="376" type="line"/>
      <point x="153" y="326" type="line" smooth="yes"/>
      <point x="218" y="279"/>
      <point x="331" y="236"/>
      <point x="424" y="236" type="curve" smooth="yes"/>
      <point x="492" y="236"/>
      <point x="516" y="257"/>
      <point x="516" y="286" type="curve" smooth="yes"/>
      <point x="516" y="301"/>
      <point x="508" y="328"/>
      <point x="446" y="363" type="curve"/>
      <point x="234" y="471" type="line"/>
      <point x="103" y="541"/>
      <point x="55" y="644"/>
      <point x="55" y="739" type="curve" smooth="yes"/>
      <point x="55" y="888"/>
      <point x="195" y="1017"/>
      <point x="430" y="1017" type="curve" smooth="yes"/>
      <point x="530" y="1017"/>
      <point x="649" y="989"/>
      <point x="730" y="937" type="curve" smooth="yes"/>
      <point x="761" y="917" type="line"/>
      <point x="700" y="675" type="line"/>
      <point x="642" y="708" type="line" smooth="yes"/>
      <point x="593" y="736"/>
      <point x="513" y="770"/>
      <point x="441" y="770" type="curve" smooth="yes"/>
      <point x="367" y="770"/>
      <point x="336" y="752"/>
      <point x="336" y="711" type="curve" smooth="yes"/>
      <point x="336" y="700"/>
      <point x="342" y="674"/>
      <point x="417" y="627" type="curve"/>
      <point x="599" y="525" type="line" smooth="yes"/>
      <point x="724" y="454"/>
      <point x="787" y="355"/>
      <point x="787" y="260" type="curve" smooth="yes"/>
      <point x="787" y="107"/>
      <point x="639" y="-20"/>
    </contour>
    <contour>
      <point x="392" y="1047" type="curve" smooth="yes"/>
      <point x="370" y="1047"/>
      <point x="334" y="1054"/>
      <point x="315" y="1083" type="curve" smooth="yes"/>
      <point x="40" y="1505" type="line"/>
      <point x="40" y="1522" type="line" smooth="yes"/>
      <point x="40" y="1544"/>
      <point x="54" y="1576"/>
      <point x="94" y="1576" type="curve"/>
      <point x="95" y="1576" type="line"/>
      <point x="99" y="1576"/>
      <point x="108" y="1576"/>
      <point x="120" y="1570" type="curve"/>
      <point x="392" y="1379" type="line"/>
      <point x="671" y="1572" type="line"/>
      <point x="672" y="1572"/>
      <point x="691" y="1576"/>
      <point x="692" y="1576" type="curve" smooth="yes"/>
      <point x="722" y="1576"/>
      <point x="747" y="1552"/>
      <point x="747" y="1522" type="curve" smooth="yes"/>
      <point x="747" y="1480"/>
      <point x="734" y="1487"/>
      <point x="734" y="1487" type="curve"/>
      <point x="474" y="1089" type="line"/>
      <point x="451" y="1052"/>
      <point x="413" y="1047"/>
    </contour>
  </outline>
</glyph>
<glyph name="Tcaron" format="1">
  <advance width="1312"/>
  <unicode hex="0164"/>
  <outline>
    <contour>
      <point x="655" y="1567" type="curve" smooth="yes"/>
      <point x="684" y="1567"/>
      <point x="712" y="1577"/>
      <point x="734" y="1602" type="curve"/>
      <point x="1004" y="2018" type="line"/>
      <point x="1012" y="2037"/>
      <point x="1010" y="2042"/>
      <point x="1010" y="2043" type="curve" smooth="yes"/>
      <point x="1010" y="2083"/>
      <point x="972" y="2096"/>
      <point x="956" y="2096" type="curve" smooth="yes"/>
      <point x="943" y="2096"/>
      <point x="936" y="2092"/>
      <point x="929" y="2090" type="curve"/>
      <point x="838" y="2027"/>
      <point x="747" y="1964"/>
      <point x="655" y="1900" type="curve"/>
      <point x="390" y="2086" type="line" smooth="yes"/>
      <point x="383" y="2091"/>
      <point x="363" y="2096"/>
      <point x="355" y="2096" type="curve" smooth="yes"/>
      <point x="324" y="2096"/>
      <point x="302" y="2074"/>
      <point x="302" y="2043" type="curve" smooth="yes"/>
      <point x="302" y="2025" type="line"/>
      <point x="576" y="1603" type="line"/>
      <point x="598" y="1575"/>
      <point x="628" y="1567"/>
    </contour>
    <contour>
      <point x="508" y="0" type="line"/>
      <point x="802" y="0" type="line"/>
      <point x="802" y="1238" type="line"/>
      <point x="1324" y="1238" type="line"/>
      <point x="1324" y="1516" type="line"/>
      <point x="-12" y="1516" type="line"/>
      <point x="-12" y="1238" type="line"/>
      <point x="508" y="1238" type="line"/>
    </contour>
  </outline>
</glyph>
<glyph name="ubreve" format="1">
  <advance width="1003"/>
  <unicode hex="016D"/>
  <outline>
    <contour>
      <point x="418" y="-17" type="curve" smooth="yes"/>
      <point x="225" y="-17"/>
      <point x="49" y="113"/>
      <point x="49" y="349" type="curve" smooth="yes"/>
      <point x="49" y="997" type="line"/>
      <point x="330" y="997" type="line"/>
      <point x="330" y="360" type="line" smooth="yes"/>
      <point x="330" y="256"/>
      <point x="383" y="230"/>
      <point x="452" y="230" type="curve" smooth="yes"/>
      <point x="528" y="230"/>
      <point x="619" y="271"/>
      <point x="667" y="327" type="curve"/>
      <point x="667" y="997" type="line"/>
      <point x="946" y="997" type="line"/>
      <point x="946" y="0" type="line"/>
      <point x="669" y="0" type="line"/>
      <point x="669" y="66" type="line"/>
      <point x="591" y="11"/>
      <point x="504" y="-17"/>
    </contour>
    <contour>
      <point x="498" y="1047" type="curve" smooth="yes"/>
      <point x="360" y="1047"/>
      <point x="222" y="1147"/>
      <point x="215" y="1334" type="curve" smooth="yes"/>
      <point x="213" y="1387" type="line"/>
      <point x="415" y="1387" type="line"/>
      <point x="421" y="1342" type="line" smooth="yes"/>
      <point x="428" y="1286"/>
      <point x="463" y="1265"/>
      <point x="497" y="1265" type="curve" smooth="yes"/>
      <point x="530" y="1265"/>
      <point x="566" y="1286"/>
      <point x="572" y="1342" type="curve" smooth="yes"/>
      <point x="577" y="1387" type="line"/>
      <point x="781" y="1387" type="line"/>
      <point x="779" y="1334" type="line" smooth="yes"/>
      <point x="771" y="1148"/>
      <point x="634" y="1047"/>
    </contour>
  </outline>
</glyph>
<glyph name="uring" format="1">
  <advance width="1003"/>
  <unicode hex="016F"/>
  <outline>
    <contour>
      <point x="418" y="-18" type="curve" smooth="yes"/>
      <point x="505" y="-18"/>
      <point x="591" y="11"/>
      <point x="669" y="66" type="curve"/>
      <point x="669" y="0" type="line"/>
      <point x="946" y="0" type="line"/>
      <point x="946" y="998" type="line"/>
      <point x="667" y="998" type="line"/>
      <point x="667" y="326" type="line"/>
      <point x="619" y="270"/>
      <point x="528" y="229"/>
      <point x="452" y="229" type="curve" smooth="yes"/>
      <point x="384" y="229"/>
      <point x="330" y="255"/>
      <point x="330" y="359" type="curve" smooth="yes"/>
      <point x="330" y="998" type="line"/>
      <point x="49" y="998" type="line"/>
      <point x="49" y="350" type="line" smooth="yes"/>
      <point x="49" y="113"/>
      <point x="225" y="-18"/>
    </contour>
    <contour>
      <point x="498" y="1250" type="curve" smooth="yes"/>
      <point x="455" y="1250"/>
      <point x="422" y="1275"/>
      <point x="422" y="1315" type="curve" smooth="yes"/>
      <point x="422" y="1357"/>
      <point x="451" y="1378"/>
      <point x="497" y="1378" type="curve" smooth="yes"/>
      <point x="540" y="1378"/>
      <point x="568" y="1359"/>
      <point x="568" y="1315" type="curve" smooth="yes"/>
      <point x="568" y="1272"/>
      <point x="539" y="1250"/>
    </contour>
    <contour>
      <point x="497" y="1046" type="curve" smooth="yes"/>
      <point x="636" y="1046"/>
      <point x="785" y="1135"/>
      <point x="785" y="1315" type="curve" smooth="yes"/>
      <point x="785" y="1494"/>
      <point x="635" y="1582"/>
      <point x="498" y="1582" type="curve" smooth="yes"/>
      <point x="359" y="1582"/>
      <point x="208" y="1495"/>
      <point x="208" y="1316" type="curve" smooth="yes"/>
      <point x="208" y="1137"/>
      <point x="358" y="1046"/>
    </contour>
  </outline>
</glyph>
<glyph name="uni01C6" format="1">
  <advance width="1967"/>
  <unicode hex="01C6"/>
  <outline>
    <contour>
      <point x="443" y="1047" type="curve" smooth="yes"/>
      <point x="420" y="1047"/>
      <point x="387" y="1051"/>
      <point x="364" y="1084" type="curve"/>
      <point x="90" y="1505" type="line"/>
      <point x="90" y="1522" type="line" smooth="yes"/>
      <point x="90" y="1532"/>
      <point x="88" y="1576"/>
      <point x="143" y="1576" type="curve" smooth="yes"/>
      <point x="145" y="1576" type="line" smooth="yes"/>
      <point x="149" y="1576"/>
      <point x="158" y="1575"/>
      <point x="171" y="1569" type="curve"/>
      <point x="443" y="1379" type="line"/>
      <point x="722" y="1572" type="line"/>
      <point x="723" y="1572"/>
      <point x="742" y="1576"/>
      <point x="743" y="1576" type="curve" smooth="yes"/>
      <point x="773" y="1576"/>
      <point x="798" y="1552"/>
      <point x="798" y="1522" type="curve" smooth="yes"/>
      <point x="798" y="1480"/>
      <point x="785" y="1487"/>
      <point x="785" y="1487" type="curve"/>
      <point x="523" y="1084" type="line"/>
      <point x="499" y="1049"/>
      <point x="466" y="1047"/>
    </contour>
    <contour>
      <point x="36" y="0" type="line"/>
      <point x="11" y="81" type="line"/>
      <point x="476" y="755" type="line"/>
      <point x="52" y="755" type="line"/>
      <point x="52" y="996" type="line"/>
      <point x="849" y="996" type="line"/>
      <point x="885" y="907" type="line"/>
      <point x="420" y="242" type="line"/>
      <point x="867" y="242" type="line"/>
      <point x="867" y="0" type="line"/>
    </contour>
    <contour>
      <point x="1542" y="-20" type="curve" smooth="yes"/>
      <point x="1129" y="-20"/>
      <point x="932" y="252"/>
      <point x="932" y="514" type="curve" smooth="yes"/>
      <point x="932" y="761"/>
      <point x="1110" y="1017"/>
      <point x="1443" y="1017" type="curve" smooth="yes"/>
      <point x="1506" y="1017"/>
      <point x="1569" y="1005"/>
      <point x="1627" y="983" type="curve"/>
      <point x="1627" y="1491" type="line"/>
      <point x="1909" y="1491" type="line"/>
      <point x="1909" y="61" type="line"/>
      <point x="1880" y="48" type="line" smooth="yes"/>
      <point x="1874" y="45"/>
      <point x="1727" y="-20"/>
    </contour>
    <contour>
      <point x="1555" y="215" type="curve" smooth="yes"/>
      <point x="1580" y="215"/>
      <point x="1605" y="217"/>
      <point x="1627" y="221" type="curve"/>
      <point x="1627" y="726" type="line"/>
      <point x="1589" y="751"/>
      <point x="1529" y="770"/>
      <point x="1467" y="770" type="curve" smooth="yes"/>
      <point x="1314" y="770"/>
      <point x="1220" y="649"/>
      <point x="1220" y="506" type="curve" smooth="yes"/>
      <point x="1220" y="353"/>
      <point x="1323" y="215"/>
    </contour>
  </outline>
</glyph>
<glyph name="uni01ca" format="1">
  <advance width="2204"/>
  <unicode hex="01CA"/>
  <outline>
    <contour>
      <point x="684" y="0" type="line"/>
      <point x="684" y="1514" type="line"/>
      <point x="911" y="1514" type="line"/>
      <point x="1840" y="400" type="line"/>
      <point x="1840" y="1514" type="line"/>
      <point x="2127" y="1514" type="line"/>
      <point x="2127" y="0" type="line"/>
      <point x="1890" y="0" type="line"/>
      <point x="965" y="1103" type="line"/>
      <point x="965" y="0" type="line"/>
    </contour>
    <contour>
      <point x="-43" y="-394" type="line"/>
      <point x="-43" y="-138" type="line"/>
      <point x="8" y="-138" type="line" smooth="yes"/>
      <point x="218" y="-138"/>
      <point x="220" y="-113"/>
      <point x="220" y="62" type="curve" smooth="yes"/>
      <point x="220" y="1514" type="line"/>
      <point x="514" y="1514" type="line"/>
      <point x="514" y="7" type="line" smooth="yes"/>
      <point x="514" y="-271"/>
      <point x="339" y="-393"/>
      <point x="8" y="-394" type="curve" smooth="yes"/>
    </contour>
  </outline>
</glyph>
<glyph name="uni01cb" format="1">
  <advance width="2072"/>
  <unicode hex="01CB"/>
  <outline>
    <contour>
      <point x="551" y="-102" type="line"/>
      <point x="551" y="1515" type="line"/>
      <point x="780" y="1515" type="line"/>
      <point x="1708" y="401" type="line"/>
      <point x="1708" y="1515" type="line"/>
      <point x="1996" y="1515" type="line"/>
      <point x="1996" y="-102" type="line"/>
      <point x="1758" y="-102" type="line"/>
      <point x="834" y="1003" type="line"/>
      <point x="834" y="-102" type="line"/>
    </contour>
    <contour>
      <point x="-24" y="-384" type="line"/>
      <point x="-73" y="-140" type="line"/>
      <point x="-11" y="-140" type="line" smooth="yes"/>
      <point x="121" y="-140"/>
      <point x="127" y="-79"/>
      <point x="127" y="23" type="curve" smooth="yes"/>
      <point x="127" y="55" type="line"/>
      <point x="127" y="1118" type="line"/>
      <point x="410" y="1118" type="line"/>
      <point x="410" y="-28" type="line" smooth="yes"/>
      <point x="410" y="-134"/>
      <point x="356" y="-384"/>
      <point x="18" y="-384" type="curve" smooth="yes"/>
    </contour>
    <contour>
      <point x="268" y="1054" type="curve" smooth="yes"/>
      <point x="159" y="1054"/>
      <point x="92" y="1138"/>
      <point x="92" y="1225" type="curve" smooth="yes"/>
      <point x="92" y="1311"/>
      <point x="158" y="1397"/>
      <point x="268" y="1397" type="curve" smooth="yes"/>
      <point x="379" y="1397"/>
      <point x="445" y="1311"/>
      <point x="445" y="1225" type="curve" smooth="yes"/>
      <point x="445" y="1138"/>
      <point x="379" y="1054"/>
    </contour>
  </outline>
</glyph>
<glyph name="uni01F5" format="1">
  <advance width="1186"/>
  <unicode hex="01F5"/>
  <outline>
    <contour>
      <point x="564" y="-437" type="curve" smooth="yes"/>
      <point x="453" y="-437"/>
      <point x="344" y="-413"/>
      <point x="256" y="-376" type="curve" smooth="yes"/>
      <point x="225" y="-363" type="line"/>
      <point x="225" y="-95" type="line"/>
      <point x="296" y="-125" type="line" smooth="yes"/>
      <point x="389" y="-164"/>
      <point x="490" y="-189"/>
      <point x="572" y="-189" type="curve" smooth="yes"/>
      <point x="692" y="-189"/>
      <point x="765" y="-147"/>
      <point x="765" y="-8" type="curve" smooth="yes"/>
      <point x="765" y="11"/>
      <point x="763" y="33"/>
      <point x="759" y="55" type="curve"/>
      <point x="710" y="28"/>
      <point x="638" y="0"/>
      <point x="551" y="0" type="curve" smooth="yes"/>
      <point x="205" y="0"/>
      <point x="42" y="275"/>
      <point x="42" y="524" type="curve" smooth="yes"/>
      <point x="42" y="801"/>
      <point x="279" y="1016"/>
      <point x="529" y="1016" type="curve" smooth="yes"/>
      <point x="602" y="1016"/>
      <point x="676" y="992"/>
      <point x="745" y="944" type="curve"/>
      <point x="745" y="997" type="line"/>
      <point x="1022" y="997" type="line"/>
      <point x="1022" y="-3" type="line" smooth="yes"/>
      <point x="1022" y="-329"/>
      <point x="784" y="-437"/>
    </contour>
    <contour>
      <point x="397" y="1047" type="curve" smooth="yes"/>
      <point x="347" y="1047"/>
      <point x="336" y="1098"/>
      <point x="336" y="1113" type="curve" smooth="yes"/>
      <point x="336" y="1123"/>
      <point x="338" y="1135"/>
      <point x="341" y="1146" type="curve" smooth="yes"/>
      <point x="438" y="1509" type="line"/>
      <point x="461" y="1590"/>
      <point x="520" y="1634"/>
      <point x="585" y="1634" type="curve" smooth="yes"/>
      <point x="654" y="1634"/>
      <point x="727" y="1581"/>
      <point x="727" y="1495" type="curve" smooth="yes"/>
      <point x="727" y="1455"/>
      <point x="710" y="1416"/>
      <point x="683" y="1379" type="curve"/>
      <point x="463" y="1089" type="line"/>
      <point x="449" y="1068"/>
      <point x="433" y="1047"/>
    </contour>
    <contour>
      <point x="584" y="254" type="curve" smooth="yes"/>
      <point x="629" y="254"/>
      <point x="685" y="263"/>
      <point x="742" y="281" type="curve"/>
      <point x="742" y="708" type="line"/>
      <point x="679" y="746"/>
      <point x="621" y="760"/>
      <point x="570" y="760" type="curve" smooth="yes"/>
      <point x="452" y="760"/>
      <point x="328" y="675"/>
      <point x="328" y="514" type="curve" smooth="yes"/>
      <point x="328" y="339"/>
      <point x="431" y="254"/>
    </contour>
  </outline>
</glyph>
<glyph name="uni0202" format="1">
  <advance width="1527"/>
  <unicode hex="0202"/>
  <outline>
    <contour>
      <point x="439" y="1566" type="line"/>
      <point x="441" y="1619" type="line" smooth="yes"/>
      <point x="449" y="1812"/>
      <point x="617" y="1920"/>
      <point x="763" y="1920" type="curve" smooth="yes"/>
      <point x="909" y="1920"/>
      <point x="1076" y="1812"/>
      <point x="1083" y="1619" type="curve" smooth="yes"/>
      <point x="1085" y="1566" type="line"/>
      <point x="843" y="1566" type="line"/>
      <point x="838" y="1611" type="line" smooth="yes"/>
      <point x="831" y="1671"/>
      <point x="803" y="1691"/>
      <point x="762" y="1691" type="curve" smooth="yes"/>
      <point x="722" y="1691"/>
      <point x="693" y="1672"/>
      <point x="686" y="1611" type="curve" smooth="yes"/>
      <point x="680" y="1566" type="line"/>
    </contour>
    <contour>
      <point x="-16" y="0" type="line"/>
      <point x="640" y="1516" type="line"/>
      <point x="851" y="1516" type="line"/>
      <point x="1530" y="34" type="line"/>
      <point x="1478" y="0" type="line"/>
      <point x="1244" y="0" type="line"/>
      <point x="1031" y="436" type="line"/>
      <point x="494" y="436" type="line"/>
      <point x="292" y="0" type="line"/>
    </contour>
    <contour>
      <point x="606" y="712" type="line"/>
      <point x="913" y="712" type="line"/>
      <point x="753" y="1120" type="line"/>
    </contour>
  </outline>
</glyph>
<glyph name="uni0206" format="1">
  <advance width="1060"/>
  <unicode hex="0206"/>
  <outline>
    <contour>
      <point x="77" y="0" type="line"/>
      <point x="77" y="1516" type="line"/>
      <point x="1011" y="1516" type="line"/>
      <point x="1011" y="1237" type="line"/>
      <point x="370" y="1237" type="line"/>
      <point x="370" y="907" type="line"/>
      <point x="997" y="907" type="line"/>
      <point x="997" y="631" type="line"/>
      <point x="370" y="631" type="line"/>
      <point x="370" y="279" type="line"/>
      <point x="1024" y="279" type="line"/>
      <point x="1024" y="0" type="line"/>
    </contour>
    <contour>
      <point x="221" y="1566" type="line"/>
      <point x="223" y="1619" type="line" smooth="yes"/>
      <point x="231" y="1811"/>
      <point x="398" y="1920"/>
      <point x="546" y="1920" type="curve" smooth="yes"/>
      <point x="691" y="1920"/>
      <point x="857" y="1811"/>
      <point x="865" y="1619" type="curve" smooth="yes"/>
      <point x="867" y="1566" type="line"/>
      <point x="624" y="1566" type="line"/>
      <point x="619" y="1611" type="line" smooth="yes"/>
      <point x="612" y="1672"/>
      <point x="584" y="1691"/>
      <point x="545" y="1691" type="curve" smooth="yes"/>
      <point x="503" y="1691"/>
      <point x="476" y="1672"/>
      <point x="469" y="1611" type="curve" smooth="yes"/>
      <point x="464" y="1566" type="line"/>
    </contour>
  </outline>
</glyph>
<glyph name="uni020C" format="1">
  <advance width="1757"/>
  <unicode hex="020C"/>
  <outline>
    <contour>
      <point x="877" y="265" type="curve" smooth="yes"/>
      <point x="592" y="265"/>
      <point x="356" y="485"/>
      <point x="356" y="759" type="curve" smooth="yes"/>
      <point x="356" y="1033"/>
      <point x="592" y="1254"/>
      <point x="877" y="1254" type="curve" smooth="yes"/>
      <point x="1162" y="1254"/>
      <point x="1400" y="1033"/>
      <point x="1400" y="759" type="curve" smooth="yes"/>
      <point x="1400" y="485"/>
      <point x="1162" y="265"/>
    </contour>
    <contour>
      <point x="877" y="-19" type="curve" smooth="yes"/>
      <point x="1329" y="-19"/>
      <point x="1701" y="331"/>
      <point x="1701" y="759" type="curve" smooth="yes"/>
      <point x="1701" y="1189"/>
      <point x="1329" y="1536"/>
      <point x="877" y="1536" type="curve" smooth="yes"/>
      <point x="424" y="1536"/>
      <point x="54" y="1189"/>
      <point x="54" y="759" type="curve" smooth="yes"/>
      <point x="54" y="331"/>
      <point x="423" y="-19"/>
    </contour>
  </outline>
</glyph>
<glyph name="uni0210" format="1">
  <advance width="1096"/>
  <unicode hex="0210"/>
  <outline>
    <contour>
      <point x="78" y="0" type="line"/>
      <point x="78" y="1516" type="line"/>
      <point x="469" y="1516" type="line" smooth="yes"/>
      <point x="753" y="1516"/>
      <point x="1007" y="1395"/>
      <point x="1007" y="1095" type="curve" smooth="yes"/>
      <point x="1007" y="918"/>
      <point x="919" y="770"/>
      <point x="729" y="697" type="curve"/>
      <point x="820" y="487"/>
      <point x="941" y="284"/>
      <point x="1054" y="108" type="curve"/>
      <point x="1052" y="0" type="line"/>
      <point x="780" y="0" type="line"/>
      <point x="765" y="25" type="line"/>
      <point x="678" y="160"/>
      <point x="541" y="432"/>
      <point x="445" y="644" type="curve"/>
      <point x="421" y="644" type="line"/>
      <point x="371" y="644" type="line"/>
      <point x="371" y="0" type="line"/>
    </contour>
    <contour>
      <point x="371" y="856" type="line"/>
      <point x="587" y="856"/>
      <point x="704" y="876"/>
      <point x="704" y="1056" type="curve" smooth="yes"/>
      <point x="704" y="1159"/>
      <point x="684" y="1250"/>
      <point x="448" y="1250" type="curve" smooth="yes"/>
      <point x="371" y="1250" type="line"/>
    </contour>
  </outline>
</glyph>
<glyph name="uni0212" format="1">
  <advance width="1096"/>
  <unicode hex="0212"/>
  <outline>
    <contour>
      <point x="78" y="0" type="line"/>
      <point x="78" y="1516" type="line"/>
      <point x="469" y="1516" type="line" smooth="yes"/>
      <point x="754" y="1516"/>
      <point x="1007" y="1394"/>
      <point x="1007" y="1095" type="curve" smooth="yes"/>
      <point x="1007" y="919"/>
      <point x="919" y="771"/>
      <point x="729" y="697" type="curve"/>
      <point x="820" y="488"/>
      <point x="941" y="284"/>
      <point x="1054" y="108" type="curve"/>
      <point x="1052" y="0" type="line"/>
      <point x="780" y="0" type="line"/>
      <point x="765" y="25" type="line"/>
      <point x="678" y="158"/>
      <point x="541" y="431"/>
      <point x="445" y="644" type="curve"/>
      <point x="421" y="644" type="line"/>
      <point x="371" y="644" type="line"/>
      <point x="371" y="0" type="line"/>
    </contour>
    <contour>
      <point x="237" y="1566" type="line"/>
      <point x="239" y="1619" type="line" smooth="yes"/>
      <point x="247" y="1811"/>
      <point x="414" y="1920"/>
      <point x="562" y="1920" type="curve" smooth="yes"/>
      <point x="707" y="1920"/>
      <point x="874" y="1811"/>
      <point x="881" y="1619" type="curve" smooth="yes"/>
      <point x="883" y="1566" type="line"/>
      <point x="640" y="1566" type="line"/>
      <point x="635" y="1611" type="line" smooth="yes"/>
      <point x="628" y="1672"/>
      <point x="600" y="1691"/>
      <point x="561" y="1691" type="curve" smooth="yes"/>
      <point x="520" y="1691"/>
      <point x="492" y="1671"/>
      <point x="485" y="1611" type="curve" smooth="yes"/>
      <point x="480" y="1566" type="line"/>
    </contour>
    <contour>
      <point x="371" y="856" type="line"/>
      <point x="587" y="856"/>
      <point x="704" y="876"/>
      <point x="704" y="1056" type="curve" smooth="yes"/>
      <point x="704" y="1159"/>
      <point x="684" y="1250"/>
      <point x="448" y="1250" type="curve" smooth="yes"/>
      <point x="371" y="1250" type="line"/>
    </contour>
  </outline>
</glyph>
<glyph name="Tcommaaccent" format="1">
  <advance width="1312"/>
  <unicode hex="021A"/>
  <outline>
    <contour>
      <point x="508" y="-102" type="line"/>
      <point x="802" y="-102" type="line"/>
      <point x="802" y="-100.216" type="line"/>
      <point x="827.536" y="-131.749"/>
      <point x="844" y="-173.967"/>
      <point x="844" y="-227" type="curve" smooth="yes"/>
      <point x="844" y="-378"/>
      <point x="708" y="-604"/>
      <point x="556" y="-604" type="curve" smooth="yes"/>
      <point x="533" y="-604" type="line"/>
      <point x="461" y="-523" type="line"/>
      <point x="499" y="-489" type="line" smooth="yes"/>
      <point x="543" y="-449"/>
      <point x="559" y="-419"/>
      <point x="565" y="-375" type="curve"/>
      <point x="499" y="-341"/>
      <point x="468" y="-278"/>
      <point x="468" y="-218" type="curve" smooth="yes"/>
      <point x="468" y="-168.427"/>
      <point x="483.442" y="-127.918"/>
      <point x="508" y="-97.3664" type="curve"/>
    </contour>
    <contour>
      <point x="802" y="-100.216" type="curve"/>
      <point x="802" y="1240" type="line"/>
      <point x="1324" y="1240" type="line"/>
      <point x="1324" y="1517" type="line"/>
      <point x="-12" y="1517" type="line"/>
      <point x="-12" y="1240" type="line"/>
      <point x="508" y="1240" type="line"/>
      <point x="508" y="-97.3664" type="line"/>
      <point x="543.384" y="-53.3468"/>
      <point x="597.692" y="-30"/>
      <point x="652" y="-30" type="curve" smooth="yes"/>
      <point x="705.841" y="-30"/>
      <point x="763.977" y="-53.2625"/>
    </contour>
  </outline>
</glyph>
<glyph name="tcommaaccent" format="1">
  <advance width="747"/>
  <unicode hex="021B"/>
  <outline>
    <contour>
      <point x="233" y="-626" type="line"/>
      <point x="160" y="-547" type="line"/>
      <point x="197" y="-513" type="line" smooth="yes"/>
      <point x="242" y="-471"/>
      <point x="258" y="-442"/>
      <point x="264" y="-397" type="curve"/>
      <point x="198" y="-363"/>
      <point x="167" y="-300"/>
      <point x="167" y="-239" type="curve" smooth="yes"/>
      <point x="167" y="-129.789"/>
      <point x="243.201" y="-63.6475"/>
      <point x="326.253" y="-52.6373" type="curve"/>
      <point x="362.073" y="-64.2294"/>
      <point x="400.254" y="-70.7142"/>
      <point x="438.979" y="-71.8273" type="curve"/>
      <point x="496.926" y="-100.695"/>
      <point x="543" y="-159.522"/>
      <point x="543" y="-248" type="curve" smooth="yes"/>
      <point x="543" y="-399"/>
      <point x="407" y="-626"/>
      <point x="255" y="-626" type="curve" smooth="yes"/>
    </contour>
    <contour>
      <point x="451" y="-72" type="curve" smooth="yes"/>
      <point x="548" y="-72"/>
      <point x="650" y="-43"/>
      <point x="733" y="21" type="curve"/>
      <point x="753" y="36" type="line"/>
      <point x="753" y="315" type="line"/>
      <point x="673" y="261" type="line" smooth="yes"/>
      <point x="608" y="217"/>
      <point x="526" y="180"/>
      <point x="475" y="180" type="curve" smooth="yes"/>
      <point x="421" y="180"/>
      <point x="394" y="192"/>
      <point x="394" y="259" type="curve" smooth="yes"/>
      <point x="394" y="779" type="line"/>
      <point x="702" y="779" type="line"/>
      <point x="702" y="1007" type="line"/>
      <point x="394" y="1007" type="line"/>
      <point x="394" y="1238" type="line"/>
      <point x="300" y="1238" type="line"/>
      <point x="-23" y="889" type="line"/>
      <point x="-33" y="876"/>
      <point x="-43" y="864"/>
      <point x="-43" y="838" type="curve" smooth="yes"/>
      <point x="-43" y="778"/>
      <point x="20" y="775"/>
      <point x="35" y="775" type="curve" smooth="yes"/>
      <point x="114" y="775" type="line"/>
      <point x="114" y="223" type="line" smooth="yes"/>
      <point x="114" y="81.0628"/>
      <point x="207.058" y="-14.0635"/>
      <point x="326.253" y="-52.6373" type="curve"/>
      <point x="334.457" y="-51.5496"/>
      <point x="342.729" y="-51"/>
      <point x="351" y="-51" type="curve" smooth="yes"/>
      <point x="380.538" y="-51"/>
      <point x="411.13" y="-57.9538"/>
      <point x="438.979" y="-71.8273" type="curve"/>
      <point x="442.981" y="-71.9423"/>
      <point x="446.988" y="-72"/>
    </contour>
  </outline>
</glyph>
<glyph name="uni0237" format="1">
  <advance width="508"/>
  <unicode hex="0237"/>
  <outline>
    <contour>
      <point x="12" y="-385" type="line"/>
      <point x="-36" y="-140" type="line"/>
      <point x="26" y="-140" type="line" smooth="yes"/>
      <point x="157" y="-140"/>
      <point x="163" y="-85"/>
      <point x="163" y="9" type="curve" smooth="yes"/>
      <point x="163" y="38" type="line"/>
      <point x="163" y="1017" type="line"/>
      <point x="451" y="1017" type="line"/>
      <point x="451" y="-28" type="line" smooth="yes"/>
      <point x="451" y="-135"/>
      <point x="397" y="-385"/>
      <point x="54" y="-385" type="curve" smooth="yes"/>
    </contour>
    <contour>
      <point x="254" y="996" type="move" name="top"/>
    </contour>
  </outline>
</glyph>
<glyph name="circumflex" format="1">
  <advance width="757"/>
  <unicode hex="02C6"/>
  <outline>
    <contour>
      <point x="74" y="158" type="curve" smooth="yes"/>
      <point x="50" y="158"/>
      <point x="34" y="176"/>
      <point x="34" y="194" type="curve" smooth="yes"/>
      <point x="34" y="206"/>
      <point x="38" y="219"/>
      <point x="46" y="230" type="curve" smooth="yes"/>
      <point x="309" y="636" type="line" smooth="yes"/>
      <point x="327" y="664"/>
      <point x="355" y="670"/>
      <point x="382" y="670" type="curve" smooth="yes"/>
      <point x="411" y="670"/>
      <point x="439" y="664"/>
      <point x="457" y="636" type="curve" smooth="yes"/>
      <point x="720" y="230" type="line" smooth="yes"/>
      <point x="728" y="219"/>
      <point x="732" y="206"/>
      <point x="732" y="194" type="curve" smooth="yes"/>
      <point x="732" y="176"/>
      <point x="716" y="158"/>
      <point x="692" y="158" type="curve" smooth="yes"/>
      <point x="683" y="158"/>
      <point x="672" y="161"/>
      <point x="661" y="170" type="curve" smooth="yes"/>
      <point x="382" y="380" type="line"/>
      <point x="105" y="170" type="line" smooth="yes"/>
      <point x="94" y="161"/>
      <point x="83" y="158"/>
    </contour>
    <contour>
      <point x="383" y="996" type="move" name="_top"/>
    </contour>
  </outline>
</glyph>
<glyph name="caron" format="1">
  <advance width="757"/>
  <unicode hex="02C7"/>
  <outline>
    <contour>
      <point x="384" y="91" type="curve" smooth="yes"/>
      <point x="355" y="91"/>
      <point x="327" y="98"/>
      <point x="309" y="126" type="curve" smooth="yes"/>
      <point x="46" y="532" type="line" smooth="yes"/>
      <point x="38" y="543"/>
      <point x="34" y="555"/>
      <point x="34" y="567" type="curve" smooth="yes"/>
      <point x="34" y="585"/>
      <point x="50" y="603"/>
      <point x="74" y="603" type="curve" smooth="yes"/>
      <point x="83" y="603"/>
      <point x="94" y="600"/>
      <point x="105" y="591" type="curve" smooth="yes"/>
      <point x="384" y="381" type="line"/>
      <point x="661" y="591" type="line" smooth="yes"/>
      <point x="672" y="600"/>
      <point x="683" y="603"/>
      <point x="692" y="603" type="curve" smooth="yes"/>
      <point x="716" y="603"/>
      <point x="732" y="585"/>
      <point x="732" y="567" type="curve" smooth="yes"/>
      <point x="732" y="555"/>
      <point x="728" y="543"/>
      <point x="720" y="532" type="curve" smooth="yes"/>
      <point x="457" y="126" type="line" smooth="yes"/>
      <point x="439" y="98"/>
      <point x="411" y="91"/>
    </contour>
    <contour>
      <point x="383" y="996" type="move" name="_top"/>
    </contour>
  </outline>
</glyph>
<glyph name="breve" format="1">
  <advance width="648"/>
  <unicode hex="02D8"/>
  <outline>
    <contour>
      <point x="326" y="122" type="curve" smooth="yes"/>
      <point x="174" y="122"/>
      <point x="20" y="223"/>
      <point x="11" y="463" type="curve"/>
      <point x="215" y="463" type="line"/>
      <point x="226" y="360"/>
      <point x="281" y="338"/>
      <point x="325" y="338" type="curve" smooth="yes"/>
      <point x="373" y="338"/>
      <point x="425" y="361"/>
      <point x="436" y="463" type="curve"/>
      <point x="640" y="463" type="line"/>
      <point x="631" y="223"/>
      <point x="484" y="122"/>
    </contour>
    <contour>
      <point x="325.5" y="996" type="move" name="_top"/>
    </contour>
  </outline>
</glyph>
<glyph name="dotaccent" format="1">
  <advance width="640"/>
  <unicode hex="02D9"/>
  <outline>
    <contour>
      <point x="320" y="-120" type="curve" smooth="yes"/>
      <point x="234" y="-120"/>
      <point x="139" y="-59"/>
      <point x="139" y="59" type="curve" smooth="yes"/>
      <point x="139" y="179"/>
      <point x="232" y="243"/>
      <point x="320" y="243" type="curve" smooth="yes"/>
      <point x="408" y="243"/>
      <point x="501" y="177"/>
      <point x="501" y="59" type="curve" smooth="yes"/>
      <point x="501" y="-60"/>
      <point x="405" y="-120"/>
    </contour>
    <contour>
      <point x="320" y="996" type="move" name="_top"/>
    </contour>
  </outline>
</glyph>
<glyph name="ogonek" format="1">
  <advance width="444"/>
  <unicode hex="02DB"/>
  <outline>
    <contour>
      <point x="309" y="-501" type="curve" smooth="yes"/>
      <point x="140" y="-501"/>
      <point x="22" y="-385"/>
      <point x="22" y="-204" type="curve" smooth="yes"/>
      <point x="22" y="-101"/>
      <point x="111" y="46"/>
      <point x="308" y="46" type="curve"/>
      <point x="354" y="-36" type="line"/>
      <point x="289" y="-36"/>
      <point x="244" y="-97"/>
      <point x="244" y="-161" type="curve" smooth="yes"/>
      <point x="244" y="-235"/>
      <point x="294" y="-309"/>
      <point x="427" y="-309" type="curve"/>
      <point x="393" y="-489" type="line"/>
      <point x="343" y="-500"/>
      <point x="325" y="-501"/>
    </contour>
    <contour>
      <point x="427" y="10" type="move" name="_ogonek"/>
    </contour>
  </outline>
</glyph>
<glyph name="tilde" format="1">
  <advance width="624"/>
  <unicode hex="02DC"/>
  <outline>
    <contour>
      <point x="429" y="177" type="curve" smooth="yes"/>
      <point x="311" y="177"/>
      <point x="174" y="264"/>
      <point x="83" y="264" type="curve" smooth="yes"/>
      <point x="49" y="264"/>
      <point x="50" y="220"/>
      <point x="-22" y="220" type="curve" smooth="yes"/>
      <point x="-56" y="220"/>
      <point x="-87" y="247"/>
      <point x="-87" y="284" type="curve" smooth="yes"/>
      <point x="-87" y="295"/>
      <point x="-81" y="317"/>
      <point x="-71" y="329" type="curve"/>
      <point x="-16" y="419"/>
      <point x="58" y="495"/>
      <point x="175" y="495" type="curve" smooth="yes"/>
      <point x="319" y="495"/>
      <point x="484" y="406"/>
      <point x="541" y="406" type="curve" smooth="yes"/>
      <point x="579" y="406"/>
      <point x="569" y="453"/>
      <point x="648" y="453" type="curve" smooth="yes"/>
      <point x="687" y="453"/>
      <point x="711" y="415"/>
      <point x="711" y="388" type="curve" smooth="yes"/>
      <point x="711" y="371"/>
      <point x="705" y="355"/>
      <point x="698" y="345" type="curve" smooth="yes"/>
      <point x="636" y="252"/>
      <point x="552" y="177"/>
    </contour>
    <contour>
      <point x="312" y="996" type="move" name="_top"/>
    </contour>
  </outline>
</glyph>
<glyph name="hungarumlaut" format="1">
  <advance width="730"/>
  <unicode hex="02DD"/>
  <outline>
    <contour>
      <point x="408" y="76" type="curve" smooth="yes"/>
      <point x="348" y="76"/>
      <point x="349" y="135"/>
      <point x="349" y="142" type="curve" smooth="yes"/>
      <point x="349" y="146"/>
      <point x="348" y="161"/>
      <point x="354" y="178" type="curve"/>
      <point x="450" y="538" type="line"/>
      <point x="475" y="618"/>
      <point x="533" y="662"/>
      <point x="598" y="662" type="curve" smooth="yes"/>
      <point x="666" y="662"/>
      <point x="740" y="610"/>
      <point x="740" y="524" type="curve" smooth="yes"/>
      <point x="740" y="487"/>
      <point x="726" y="446"/>
      <point x="696" y="408" type="curve" smooth="yes"/>
      <point x="476" y="118" type="line"/>
      <point x="462" y="97"/>
      <point x="444" y="76"/>
    </contour>
    <contour>
      <point x="51" y="76" type="curve" smooth="yes"/>
      <point x="5" y="76"/>
      <point x="-11" y="112"/>
      <point x="-11" y="142" type="curve" smooth="yes"/>
      <point x="-11" y="171"/>
      <point x="-3" y="174"/>
      <point x="-2" y="176" type="curve" smooth="yes"/>
      <point x="94" y="538" type="line"/>
      <point x="117" y="620"/>
      <point x="178" y="662"/>
      <point x="241" y="662" type="curve" smooth="yes"/>
      <point x="310" y="662"/>
      <point x="383" y="610"/>
      <point x="383" y="524" type="curve" smooth="yes"/>
      <point x="383" y="485"/>
      <point x="366" y="445"/>
      <point x="337" y="408" type="curve" smooth="yes"/>
      <point x="117" y="118" type="line" smooth="yes"/>
      <point x="106" y="103"/>
      <point x="91" y="76"/>
    </contour>
    <contour>
      <point x="364.5" y="996" type="move" name="_top"/>
    </contour>
  </outline>
</glyph>
<glyph name="quoteleft" format="1">
  <advance width="474"/>
  <unicode hex="2018"/>
  <outline>
    <contour>
      <point x="248" y="965" type="curve" smooth="yes"/>
      <point x="340" y="965"/>
      <point x="432" y="1045"/>
      <point x="432" y="1133" type="curve" smooth="yes"/>
      <point x="432" y="1199"/>
      <point x="407" y="1279"/>
      <point x="303" y="1300" type="curve"/>
      <point x="310" y="1348"/>
      <point x="356" y="1409"/>
      <point x="431" y="1462" type="curve"/>
      <point x="365" y="1538" type="line"/>
      <point x="164" y="1470"/>
      <point x="55" y="1314"/>
      <point x="55" y="1161" type="curve" smooth="yes"/>
      <point x="55" y="1033"/>
      <point x="150" y="965"/>
    </contour>
  </outline>
</glyph>
<glyph name="quoteright" format="1">
  <advance width="468"/>
  <unicode hex="2019"/>
  <outline>
    <contour>
      <point x="122" y="963" type="curve"/>
      <point x="56" y="1039" type="line"/>
      <point x="131" y="1092"/>
      <point x="177" y="1153"/>
      <point x="184" y="1201" type="curve"/>
      <point x="80" y="1222"/>
      <point x="55" y="1302"/>
      <point x="55" y="1368" type="curve" smooth="yes"/>
      <point x="55" y="1456"/>
      <point x="147" y="1536"/>
      <point x="239" y="1536" type="curve" smooth="yes"/>
      <point x="337" y="1536"/>
      <point x="432" y="1468"/>
      <point x="432" y="1340" type="curve" smooth="yes"/>
      <point x="432" y="1187"/>
      <point x="323" y="1031"/>
    </contour>
  </outline>
</glyph>
<glyph name="quotedblleft" format="1">
  <advance width="872"/>
  <unicode hex="201C"/>
  <outline>
    <contour>
      <point x="659" y="965" type="curve" smooth="yes"/>
      <point x="561" y="965"/>
      <point x="466" y="1033"/>
      <point x="466" y="1161" type="curve" smooth="yes"/>
      <point x="466" y="1314"/>
      <point x="575" y="1470"/>
      <point x="776" y="1538" type="curve"/>
      <point x="842" y="1462" type="line"/>
      <point x="767" y="1409"/>
      <point x="721" y="1348"/>
      <point x="714" y="1300" type="curve"/>
      <point x="818" y="1279"/>
      <point x="843" y="1199"/>
      <point x="843" y="1133" type="curve" smooth="yes"/>
      <point x="843" y="1045"/>
      <point x="751" y="965"/>
    </contour>
    <contour>
      <point x="234" y="965" type="curve" smooth="yes"/>
      <point x="136" y="965"/>
      <point x="41" y="1033"/>
      <point x="41" y="1161" type="curve" smooth="yes"/>
      <point x="41" y="1314"/>
      <point x="150" y="1470"/>
      <point x="351" y="1538" type="curve"/>
      <point x="417" y="1462" type="line"/>
      <point x="342" y="1409"/>
      <point x="296" y="1348"/>
      <point x="289" y="1300" type="curve"/>
      <point x="393" y="1279"/>
      <point x="418" y="1199"/>
      <point x="418" y="1133" type="curve" smooth="yes"/>
      <point x="418" y="1045"/>
      <point x="326" y="965"/>
    </contour>
  </outline>
</glyph>
<glyph name="quotedblright" format="1">
  <advance width="871"/>
  <unicode hex="201D"/>
  <outline>
    <contour>
      <point x="92" y="963" type="line"/>
      <point x="293" y="1031"/>
      <point x="402" y="1187"/>
      <point x="402" y="1340" type="curve" smooth="yes"/>
      <point x="402" y="1468"/>
      <point x="307" y="1536"/>
      <point x="209" y="1536" type="curve" smooth="yes"/>
      <point x="117" y="1536"/>
      <point x="25" y="1456"/>
      <point x="25" y="1368" type="curve" smooth="yes"/>
      <point x="25" y="1302"/>
      <point x="50" y="1222"/>
      <point x="154" y="1201" type="curve"/>
      <point x="147" y="1153"/>
      <point x="101" y="1092"/>
      <point x="26" y="1039" type="curve"/>
    </contour>
    <contour>
      <point x="531" y="963" type="line"/>
      <point x="732" y="1031"/>
      <point x="841" y="1187"/>
      <point x="841" y="1340" type="curve" smooth="yes"/>
      <point x="841" y="1468"/>
      <point x="746" y="1536"/>
      <point x="648" y="1536" type="curve" smooth="yes"/>
      <point x="556" y="1536"/>
      <point x="464" y="1456"/>
      <point x="464" y="1368" type="curve" smooth="yes"/>
      <point x="464" y="1302"/>
      <point x="489" y="1222"/>
      <point x="593" y="1201" type="curve"/>
      <point x="586" y="1153"/>
      <point x="540" y="1092"/>
      <point x="465" y="1039" type="curve"/>
    </contour>
  </outline>
</glyph>
<glyph name="ellipsis" format="1">
  <advance width="1387"/>
  <unicode hex="2026"/>
  <outline>
    <contour>
      <point x="1259" y="-120" type="curve" smooth="yes"/>
      <point x="1172" y="-120"/>
      <point x="1078" y="-59"/>
      <point x="1078" y="59" type="curve" smooth="yes"/>
      <point x="1078" y="178"/>
      <point x="1170" y="243"/>
      <point x="1259" y="243" type="curve" smooth="yes"/>
      <point x="1346" y="243"/>
      <point x="1438" y="176"/>
      <point x="1438" y="59" type="curve" smooth="yes"/>
      <point x="1438" y="-59"/>
      <point x="1344" y="-120"/>
    </contour>
    <contour>
      <point x="790" y="-120" type="curve" smooth="yes"/>
      <point x="705" y="-120"/>
      <point x="609" y="-60"/>
      <point x="609" y="59" type="curve" smooth="yes"/>
      <point x="609" y="179"/>
      <point x="703" y="243"/>
      <point x="790" y="243" type="curve" smooth="yes"/>
      <point x="879" y="243"/>
      <point x="971" y="176"/>
      <point x="971" y="59" type="curve" smooth="yes"/>
      <point x="971" y="-59"/>
      <point x="876" y="-120"/>
    </contour>
    <contour>
      <point x="320" y="-120" type="curve" smooth="yes"/>
      <point x="235" y="-120"/>
      <point x="141" y="-59"/>
      <point x="141" y="59" type="curve" smooth="yes"/>
      <point x="141" y="178"/>
      <point x="233" y="243"/>
      <point x="320" y="243" type="curve" smooth="yes"/>
      <point x="410" y="243"/>
      <point x="501" y="176"/>
      <point x="501" y="59" type="curve" smooth="yes"/>
      <point x="501" y="-59"/>
      <point x="407" y="-120"/>
    </contour>
  </outline>
</glyph>
<glyph name="minus" format="1">
  <advance width="1255"/>
  <unicode hex="2212"/>
  <outline>
    <contour>
      <point x="148" y="410" type="line"/>
      <point x="148" y="619" type="line"/>
      <point x="1105" y="619" type="line"/>
      <point x="1105" y="410" type="line"/>
    </contour>
  </outline>
</glyph>
<glyph name=".notdef" format="1">
  <advance width="1326"/>
  <outline>
    <contour>
      <point x="81" y="0" type="line"/>
      <point x="81" y="1414" type="line"/>
      <point x="1245" y="1414" type="line"/>
      <point x="1245" y="0" type="line"/>
    </contour>
    <contour>
      <point x="315" y="233" type="line"/>
      <point x="1011" y="233" type="line"/>
      <point x="1011" y="1181" type="line"/>
      <point x="315" y="1181" type="line"/>
    </contour>
  </outline>
</glyph>
